M48
METRIC,TZ
FILE_FORMAT=3:3
T1C0.150
T2C3.000
%
G90
M71
T1
X4233Y557
X4582Y1898
X4490Y3446
X2599Y3388
X1898Y4582
X739Y5612
X-557Y4233
X-1898Y4582
X-3446Y4490
X-3388Y2599
X-4582Y1898
X-5612Y739
X-4233Y-557
X-4582Y-1898
X-4490Y-3446
X-2599Y-3388
X-1898Y-4582
X-739Y-5612
X557Y-4233
X1898Y-4582
X3446Y-4490
X3388Y-2599
X4582Y-1898
X5612Y-739
X3150Y0
X3043Y815
X2728Y1575
X2227Y2227
X1575Y2728
X815Y3043
X0Y3150
X-815Y3043
X-1575Y2728
X-2227Y2227
X-2728Y1575
X-3043Y815
X-3150Y0
X-3043Y-815
X-2728Y-1575
X-2227Y-2227
X-1575Y-2728
X-815Y-3043
X0Y-3150
X1575Y-2728
X2227Y-2227
X2728Y-1575
X3043Y-815
X5500Y9526
X-9526Y5500
X-5500Y-9526
X9526Y-5500
X9593Y2329
X8243Y3109
X8243Y1550
X-1429Y8693
X-2779Y9473
X-2779Y7914
X-7793Y-2329
X-9143Y-1550
X-9143Y-3109
T2
X8693Y2329
X-2329Y8693
X-8693Y-2329
X2329Y-8693
T0
M30
