G04 Edge_Cuts - flexG rev G*
%FSLAX46Y46*%
%MOMM*%
%LPD*%
%ADD10C,0.100000*%
D10*
X12700000Y0D02*
X12696175Y-311674D01*
X12684702Y-623159D01*
X12665589Y-934270D01*
X12638846Y-1244818D01*
X12604490Y-1554616D01*
X12562542Y-1863477D01*
X12513026Y-2171216D01*
X12455973Y-2477647D01*
X12391417Y-2782586D01*
X12319397Y-3085848D01*
X12239956Y-3387252D01*
X12153142Y-3686615D01*
X12059008Y-3983758D01*
X11957610Y-4278501D01*
X11849009Y-4570667D01*
X11733270Y-4860080D01*
X11610464Y-5146565D01*
X11480664Y-5429950D01*
X11343949Y-5710064D01*
X11200400Y-5986739D01*
X11050105Y-6259807D01*
X10893153Y-6529105D01*
X10729640Y-6794470D01*
X10559664Y-7055742D01*
X10383327Y-7312764D01*
X10200736Y-7565381D01*
X10012000Y-7813441D01*
X9817233Y-8056795D01*
X9616552Y-8295295D01*
X9410079Y-8528799D01*
X9197938Y-8757165D01*
X8980256Y-8980256D01*
X8757165Y-9197938D01*
X8528799Y-9410079D01*
X8295295Y-9616552D01*
X8056795Y-9817233D01*
X7813441Y-10012000D01*
X7565381Y-10200736D01*
X7312764Y-10383327D01*
X7055742Y-10559664D01*
X6794470Y-10729640D01*
X6529105Y-10893153D01*
X6259807Y-11050105D01*
X5986739Y-11200400D01*
X5710064Y-11343949D01*
X5429950Y-11480664D01*
X5146565Y-11610464D01*
X4860080Y-11733270D01*
X4570667Y-11849009D01*
X4278501Y-11957610D01*
X3983758Y-12059008D01*
X3686615Y-12153142D01*
X3387252Y-12239956D01*
X3085848Y-12319397D01*
X2782586Y-12391417D01*
X2477647Y-12455973D01*
X2171216Y-12513026D01*
X1863477Y-12562542D01*
X1554616Y-12604490D01*
X1244818Y-12638846D01*
X934270Y-12665589D01*
X623159Y-12684702D01*
X311674Y-12696175D01*
X0Y-12700000D01*
X-311674Y-12696175D01*
X-623159Y-12684702D01*
X-934270Y-12665589D01*
X-1244818Y-12638846D01*
X-1554616Y-12604490D01*
X-1863477Y-12562542D01*
X-2171216Y-12513026D01*
X-2477647Y-12455973D01*
X-2782586Y-12391417D01*
X-3085848Y-12319397D01*
X-3387252Y-12239956D01*
X-3686615Y-12153142D01*
X-3983758Y-12059008D01*
X-4278501Y-11957610D01*
X-4570667Y-11849009D01*
X-4860080Y-11733270D01*
X-5146565Y-11610464D01*
X-5429950Y-11480664D01*
X-5710064Y-11343949D01*
X-5986739Y-11200400D01*
X-6259807Y-11050105D01*
X-6529105Y-10893153D01*
X-6794470Y-10729640D01*
X-7055742Y-10559664D01*
X-7312764Y-10383327D01*
X-7565381Y-10200736D01*
X-7813441Y-10012000D01*
X-8056795Y-9817233D01*
X-8295295Y-9616552D01*
X-8528799Y-9410079D01*
X-8757165Y-9197938D01*
X-8980256Y-8980256D01*
X-9197938Y-8757165D01*
X-9410079Y-8528799D01*
X-9616552Y-8295295D01*
X-9817233Y-8056795D01*
X-10012000Y-7813441D01*
X-10200736Y-7565381D01*
X-10383327Y-7312764D01*
X-10559664Y-7055742D01*
X-10729640Y-6794470D01*
X-10893153Y-6529105D01*
X-11050105Y-6259807D01*
X-11200400Y-5986739D01*
X-11343949Y-5710064D01*
X-11480664Y-5429950D01*
X-11610464Y-5146565D01*
X-11733270Y-4860080D01*
X-11849009Y-4570667D01*
X-11957610Y-4278501D01*
X-12059008Y-3983758D01*
X-12153142Y-3686615D01*
X-12239956Y-3387252D01*
X-12319397Y-3085848D01*
X-12391417Y-2782586D01*
X-12455973Y-2477647D01*
X-12513026Y-2171216D01*
X-12562542Y-1863477D01*
X-12604490Y-1554616D01*
X-12638846Y-1244818D01*
X-12665589Y-934270D01*
X-12684702Y-623159D01*
X-12696175Y-311674D01*
X-12700000Y0D01*
X-12696175Y311674D01*
X-12684702Y623159D01*
X-12665589Y934270D01*
X-12638846Y1244818D01*
X-12604490Y1554616D01*
X-12562542Y1863477D01*
X-12513026Y2171216D01*
X-12455973Y2477647D01*
X-12391417Y2782586D01*
X-12319397Y3085848D01*
X-12239956Y3387252D01*
X-12153142Y3686615D01*
X-12059008Y3983758D01*
X-11957610Y4278501D01*
X-11849009Y4570667D01*
X-11733270Y4860080D01*
X-11610464Y5146565D01*
X-11480664Y5429950D01*
X-11343949Y5710064D01*
X-11200400Y5986739D01*
X-11050105Y6259807D01*
X-10893153Y6529105D01*
X-10729640Y6794470D01*
X-10559664Y7055742D01*
X-10383327Y7312764D01*
X-10200736Y7565381D01*
X-10012000Y7813441D01*
X-9817233Y8056795D01*
X-9616552Y8295295D01*
X-9410079Y8528799D01*
X-9197938Y8757165D01*
X-8980256Y8980256D01*
X-8757165Y9197938D01*
X-8528799Y9410079D01*
X-8295295Y9616552D01*
X-8056795Y9817233D01*
X-7813441Y10012000D01*
X-7565381Y10200736D01*
X-7312764Y10383327D01*
X-7055742Y10559664D01*
X-6794470Y10729640D01*
X-6529105Y10893153D01*
X-6259807Y11050105D01*
X-5986739Y11200400D01*
X-5710064Y11343949D01*
X-5429950Y11480664D01*
X-5146565Y11610464D01*
X-4860080Y11733270D01*
X-4570667Y11849009D01*
X-4278501Y11957610D01*
X-3983758Y12059008D01*
X-3686615Y12153142D01*
X-3387252Y12239956D01*
X-3085848Y12319397D01*
X-2782586Y12391417D01*
X-2477647Y12455973D01*
X-2171216Y12513026D01*
X-1863477Y12562542D01*
X-1554616Y12604490D01*
X-1244818Y12638846D01*
X-934270Y12665589D01*
X-623159Y12684702D01*
X-311674Y12696175D01*
X0Y12700000D01*
X311674Y12696175D01*
X623159Y12684702D01*
X934270Y12665589D01*
X1244818Y12638846D01*
X1554616Y12604490D01*
X1863477Y12562542D01*
X2171216Y12513026D01*
X2477647Y12455973D01*
X2782586Y12391417D01*
X3085848Y12319397D01*
X3387252Y12239956D01*
X3686615Y12153142D01*
X3983758Y12059008D01*
X4278501Y11957610D01*
X4570667Y11849009D01*
X4860080Y11733270D01*
X5146565Y11610464D01*
X5429950Y11480664D01*
X5710064Y11343949D01*
X5986739Y11200400D01*
X6259807Y11050105D01*
X6529105Y10893153D01*
X6794470Y10729640D01*
X7055742Y10559664D01*
X7312764Y10383327D01*
X7565381Y10200736D01*
X7813441Y10012000D01*
X8056795Y9817233D01*
X8295295Y9616552D01*
X8528799Y9410079D01*
X8757165Y9197938D01*
X8980256Y8980256D01*
X9197938Y8757165D01*
X9410079Y8528799D01*
X9616552Y8295295D01*
X9817233Y8056795D01*
X10012000Y7813441D01*
X10200736Y7565381D01*
X10383327Y7312764D01*
X10559664Y7055742D01*
X10729640Y6794470D01*
X10893153Y6529105D01*
X11050105Y6259807D01*
X11200400Y5986739D01*
X11343949Y5710064D01*
X11480664Y5429950D01*
X11610464Y5146565D01*
X11733270Y4860080D01*
X11849009Y4570667D01*
X11957610Y4278501D01*
X12059008Y3983758D01*
X12153142Y3686615D01*
X12239956Y3387252D01*
X12319397Y3085848D01*
X12391417Y2782586D01*
X12455973Y2477647D01*
X12513026Y2171216D01*
X12562542Y1863477D01*
X12604490Y1554616D01*
X12638846Y1244818D01*
X12665589Y934270D01*
X12684702Y623159D01*
X12696175Y311674D01*
X12700000Y0D01*
M02*
