G04 F.Mask openings - flexG rev G*
%FSLAX46Y46*%
%MOMM*%
%LPD*%
%ADD10C,0.050000*%
D10*
%LPD*%
G36*
X-3602168Y-9441396D02*
X-3604877Y-9485491D01*
X-3608667Y-9529505D01*
X-3613537Y-9573414D01*
X-3619482Y-9617189D01*
X-3626500Y-9660806D01*
X-3634586Y-9704237D01*
X-3643736Y-9747457D01*
X-3653944Y-9790439D01*
X-3665203Y-9833157D01*
X-3677507Y-9875587D01*
X-3690849Y-9917701D01*
X-3705221Y-9959476D01*
X-3720613Y-10000885D01*
X-3737017Y-10041905D01*
X-3754422Y-10082509D01*
X-3772819Y-10122674D01*
X-3792196Y-10162375D01*
X-3812542Y-10201588D01*
X-3833843Y-10240291D01*
X-3856089Y-10278459D01*
X-3879264Y-10316070D01*
X-3903355Y-10353101D01*
X-3928347Y-10389529D01*
X-3954226Y-10425333D01*
X-3980976Y-10460491D01*
X-4008581Y-10494982D01*
X-4037024Y-10528785D01*
X-4066288Y-10561880D01*
X-4096355Y-10594247D01*
X-4127208Y-10625867D01*
X-4158827Y-10656719D01*
X-4191194Y-10686786D01*
X-4224289Y-10716050D01*
X-4258092Y-10744493D01*
X-4292583Y-10772098D01*
X-4327741Y-10798848D01*
X-4363545Y-10824727D01*
X-4399974Y-10849720D01*
X-4437004Y-10873811D01*
X-4474615Y-10896986D01*
X-4512783Y-10919231D01*
X-4551486Y-10940533D01*
X-4590700Y-10960878D01*
X-4630401Y-10980255D01*
X-4670566Y-10998652D01*
X-4711170Y-11016058D01*
X-4752189Y-11032461D01*
X-4793598Y-11047854D01*
X-4835373Y-11062225D01*
X-4877488Y-11075567D01*
X-4919917Y-11087871D01*
X-4962636Y-11099131D01*
X-5005618Y-11109338D01*
X-5048837Y-11118488D01*
X-5092269Y-11126574D01*
X-5135885Y-11133592D01*
X-5179661Y-11139538D01*
X-5223569Y-11144407D01*
X-5267584Y-11148197D01*
X-5311678Y-11150906D01*
X-5355826Y-11152532D01*
X-5400000Y-11153074D01*
X-5444174Y-11152532D01*
X-5488322Y-11150906D01*
X-5532416Y-11148197D01*
X-5576431Y-11144407D01*
X-5620339Y-11139538D01*
X-5664115Y-11133592D01*
X-5707731Y-11126574D01*
X-5751163Y-11118488D01*
X-5794382Y-11109338D01*
X-5837364Y-11099131D01*
X-5880083Y-11087871D01*
X-5922512Y-11075567D01*
X-5964627Y-11062225D01*
X-6006402Y-11047854D01*
X-6047811Y-11032461D01*
X-6088830Y-11016058D01*
X-6129434Y-10998652D01*
X-6169599Y-10980255D01*
X-6209300Y-10960878D01*
X-6248514Y-10940533D01*
X-6287217Y-10919231D01*
X-6325385Y-10896986D01*
X-6362996Y-10873811D01*
X-6400026Y-10849720D01*
X-6436455Y-10824727D01*
X-6472259Y-10798848D01*
X-6507417Y-10772098D01*
X-6541908Y-10744493D01*
X-6575711Y-10716050D01*
X-6608806Y-10686786D01*
X-6641173Y-10656719D01*
X-6672792Y-10625867D01*
X-6703645Y-10594247D01*
X-6733712Y-10561880D01*
X-6762976Y-10528785D01*
X-6791419Y-10494982D01*
X-6819024Y-10460491D01*
X-6845774Y-10425333D01*
X-6871653Y-10389529D01*
X-6896645Y-10353101D01*
X-6920736Y-10316070D01*
X-6943911Y-10278459D01*
X-6966157Y-10240291D01*
X-6987458Y-10201588D01*
X-7007804Y-10162375D01*
X-7027181Y-10122674D01*
X-7045578Y-10082509D01*
X-7062983Y-10041905D01*
X-7079387Y-10000885D01*
X-7094779Y-9959476D01*
X-7109151Y-9917701D01*
X-7122493Y-9875587D01*
X-7134797Y-9833157D01*
X-7146056Y-9790439D01*
X-7156264Y-9747457D01*
X-7165414Y-9704237D01*
X-7173500Y-9660806D01*
X-7180518Y-9617189D01*
X-7186463Y-9573414D01*
X-7191333Y-9529505D01*
X-7195123Y-9485491D01*
X-7197832Y-9441396D01*
X-7199458Y-9397249D01*
X-7200000Y-9353074D01*
X-7199458Y-9308900D01*
X-7197832Y-9264753D01*
X-7195123Y-9220658D01*
X-7191333Y-9176644D01*
X-7186463Y-9132735D01*
X-7180518Y-9088960D01*
X-7173500Y-9045343D01*
X-7165414Y-9001912D01*
X-7156264Y-8958692D01*
X-7146056Y-8915710D01*
X-7134797Y-8872991D01*
X-7122493Y-8830562D01*
X-7109151Y-8788447D01*
X-7094779Y-8746673D01*
X-7079387Y-8705263D01*
X-7062983Y-8664244D01*
X-7045578Y-8623640D01*
X-7027181Y-8583475D01*
X-7007804Y-8543774D01*
X-6987458Y-8504560D01*
X-6966157Y-8465858D01*
X-6943911Y-8427689D01*
X-6920736Y-8390079D01*
X-6896645Y-8353048D01*
X-6871653Y-8316620D01*
X-6845774Y-8280816D01*
X-6819024Y-8245657D01*
X-6791419Y-8211166D01*
X-6762976Y-8177363D01*
X-6733712Y-8144268D01*
X-6703645Y-8111901D01*
X-6672792Y-8080282D01*
X-6641173Y-8049430D01*
X-6608806Y-8019362D01*
X-6575711Y-7990098D01*
X-6541908Y-7961656D01*
X-6507417Y-7934051D01*
X-6472259Y-7907301D01*
X-6436455Y-7881422D01*
X-6400026Y-7856429D01*
X-6362996Y-7832338D01*
X-6325385Y-7809163D01*
X-6287217Y-7786918D01*
X-6248514Y-7765616D01*
X-6209300Y-7745271D01*
X-6169599Y-7725894D01*
X-6129434Y-7707497D01*
X-6088830Y-7690091D01*
X-6047811Y-7673687D01*
X-6006402Y-7658295D01*
X-5964627Y-7643924D01*
X-5922512Y-7630582D01*
X-5880083Y-7618277D01*
X-5837364Y-7607018D01*
X-5794382Y-7596811D01*
X-5751163Y-7587661D01*
X-5707731Y-7579575D01*
X-5664115Y-7572557D01*
X-5620339Y-7566611D01*
X-5576431Y-7561742D01*
X-5532416Y-7557952D01*
X-5488322Y-7555243D01*
X-5444174Y-7553616D01*
X-5400000Y-7553074D01*
X-5355826Y-7553616D01*
X-5311678Y-7555243D01*
X-5267584Y-7557952D01*
X-5223569Y-7561742D01*
X-5179661Y-7566611D01*
X-5135885Y-7572557D01*
X-5092269Y-7579575D01*
X-5048837Y-7587661D01*
X-5005618Y-7596811D01*
X-4962636Y-7607018D01*
X-4919917Y-7618277D01*
X-4877488Y-7630582D01*
X-4835373Y-7643924D01*
X-4793598Y-7658295D01*
X-4752189Y-7673687D01*
X-4711170Y-7690091D01*
X-4670566Y-7707497D01*
X-4630401Y-7725894D01*
X-4590700Y-7745271D01*
X-4551486Y-7765616D01*
X-4512783Y-7786918D01*
X-4474615Y-7809163D01*
X-4437004Y-7832338D01*
X-4399974Y-7856429D01*
X-4363545Y-7881422D01*
X-4327741Y-7907301D01*
X-4292583Y-7934051D01*
X-4258092Y-7961656D01*
X-4224289Y-7990098D01*
X-4191194Y-8019362D01*
X-4158827Y-8049430D01*
X-4127208Y-8080282D01*
X-4096355Y-8111901D01*
X-4066288Y-8144268D01*
X-4037024Y-8177363D01*
X-4008581Y-8211166D01*
X-3980976Y-8245657D01*
X-3954226Y-8280816D01*
X-3928347Y-8316620D01*
X-3903355Y-8353048D01*
X-3879264Y-8390079D01*
X-3856089Y-8427689D01*
X-3833843Y-8465858D01*
X-3812542Y-8504560D01*
X-3792196Y-8543774D01*
X-3772819Y-8583475D01*
X-3754422Y-8623640D01*
X-3737017Y-8664244D01*
X-3720613Y-8705263D01*
X-3705221Y-8746673D01*
X-3690849Y-8788447D01*
X-3677507Y-8830562D01*
X-3665203Y-8872991D01*
X-3653944Y-8915710D01*
X-3643736Y-8958692D01*
X-3634586Y-9001912D01*
X-3626500Y-9045343D01*
X-3619482Y-9088960D01*
X-3613537Y-9132735D01*
X-3608667Y-9176644D01*
X-3604877Y-9220658D01*
X-3602168Y-9264753D01*
X-3600542Y-9308900D01*
X-3600000Y-9353074D01*
X-3600542Y-9397249D01*
X-3602168Y-9441396D01*
G37*
%LPD*%
G36*
X5670294Y-8939774D02*
X5663240Y-9021690D01*
X5654178Y-9103408D01*
X5643113Y-9184880D01*
X5630052Y-9266055D01*
X5615002Y-9346885D01*
X5597974Y-9427322D01*
X5578976Y-9507316D01*
X5558021Y-9586820D01*
X5535122Y-9665786D01*
X5510291Y-9744166D01*
X5483544Y-9821913D01*
X5454897Y-9898981D01*
X5424368Y-9975322D01*
X5391974Y-10050891D01*
X5357736Y-10125642D01*
X5321673Y-10199530D01*
X5283808Y-10272512D01*
X5244163Y-10344541D01*
X5202762Y-10415577D01*
X5159631Y-10485574D01*
X5114795Y-10554493D01*
X5068281Y-10622290D01*
X5020117Y-10688925D01*
X4970332Y-10754358D01*
X4918956Y-10818550D01*
X4866021Y-10881461D01*
X4811558Y-10943055D01*
X4755599Y-11003293D01*
X4698179Y-11062140D01*
X4639332Y-11119560D01*
X4579094Y-11175519D01*
X4517500Y-11229982D01*
X4454589Y-11282917D01*
X4390397Y-11334293D01*
X4324964Y-11384078D01*
X4258329Y-11432242D01*
X4190532Y-11478756D01*
X4121613Y-11523592D01*
X4051616Y-11566723D01*
X3980580Y-11608124D01*
X3908550Y-11647769D01*
X3835569Y-11685634D01*
X3761681Y-11721697D01*
X3686930Y-11755935D01*
X3611361Y-11788329D01*
X3535020Y-11818858D01*
X3457952Y-11847505D01*
X3380205Y-11874252D01*
X3301825Y-11899083D01*
X3222859Y-11921982D01*
X3143355Y-11942937D01*
X3063361Y-11961935D01*
X2982924Y-11978963D01*
X2902094Y-11994013D01*
X2820918Y-12007074D01*
X2739447Y-12018139D01*
X2657729Y-12027201D01*
X2575813Y-12034255D01*
X2493748Y-12039297D01*
X2411585Y-12042323D01*
X2329371Y-12043332D01*
X2247158Y-12042323D01*
X2164995Y-12039297D01*
X2082930Y-12034255D01*
X2001014Y-12027201D01*
X1919296Y-12018139D01*
X1837824Y-12007074D01*
X1756649Y-11994013D01*
X1675819Y-11978963D01*
X1595382Y-11961935D01*
X1515388Y-11942937D01*
X1435884Y-11921982D01*
X1356918Y-11899083D01*
X1278538Y-11874252D01*
X1200790Y-11847505D01*
X1123723Y-11818858D01*
X1047382Y-11788329D01*
X971813Y-11755935D01*
X897062Y-11721697D01*
X823173Y-11685634D01*
X750192Y-11647769D01*
X678162Y-11608124D01*
X607127Y-11566723D01*
X537129Y-11523592D01*
X468211Y-11478756D01*
X400414Y-11432242D01*
X333779Y-11384078D01*
X268346Y-11334293D01*
X204154Y-11282917D01*
X141242Y-11229982D01*
X79649Y-11175519D01*
X19411Y-11119560D01*
X-39436Y-11062140D01*
X-96856Y-11003293D01*
X-152815Y-10943055D01*
X-207278Y-10881461D01*
X-260214Y-10818550D01*
X-311589Y-10754358D01*
X-361374Y-10688925D01*
X-409538Y-10622290D01*
X-456052Y-10554493D01*
X-500888Y-10485574D01*
X-544019Y-10415577D01*
X-585420Y-10344541D01*
X-625065Y-10272512D01*
X-662930Y-10199530D01*
X-698993Y-10125642D01*
X-733231Y-10050891D01*
X-765625Y-9975322D01*
X-796154Y-9898981D01*
X-824801Y-9821913D01*
X-851548Y-9744166D01*
X-876379Y-9665786D01*
X-899278Y-9586820D01*
X-920233Y-9507316D01*
X-939231Y-9427322D01*
X-956259Y-9346885D01*
X-971309Y-9266055D01*
X-984370Y-9184880D01*
X-995435Y-9103408D01*
X-1004497Y-9021690D01*
X-1011552Y-8939774D01*
X-1016593Y-8857709D01*
X-1019620Y-8775546D01*
X-1020629Y-8693332D01*
X-1019620Y-8611119D01*
X-1016593Y-8528956D01*
X-1011552Y-8446891D01*
X-1004497Y-8364975D01*
X-995435Y-8283257D01*
X-984370Y-8201785D01*
X-971309Y-8120610D01*
X-956259Y-8039780D01*
X-939231Y-7959343D01*
X-920233Y-7879349D01*
X-899278Y-7799845D01*
X-876379Y-7720879D01*
X-851548Y-7642499D01*
X-824801Y-7564751D01*
X-796154Y-7487684D01*
X-765625Y-7411343D01*
X-733231Y-7335774D01*
X-698993Y-7261023D01*
X-662930Y-7187134D01*
X-625065Y-7114153D01*
X-585420Y-7042123D01*
X-544019Y-6971088D01*
X-500888Y-6901090D01*
X-456052Y-6832172D01*
X-409538Y-6764375D01*
X-361374Y-6697740D01*
X-311589Y-6632307D01*
X-260214Y-6568115D01*
X-207278Y-6505203D01*
X-152815Y-6443610D01*
X-96856Y-6383372D01*
X-39436Y-6324525D01*
X19411Y-6267105D01*
X79649Y-6211146D01*
X93553Y-6198852D01*
X0Y-6200000D01*
X-152156Y-6198133D01*
X-304220Y-6192532D01*
X-456100Y-6183201D01*
X-607706Y-6170145D01*
X-758946Y-6153373D01*
X-909729Y-6132894D01*
X-1059964Y-6108721D01*
X-1209560Y-6080869D01*
X-1358428Y-6049353D01*
X-1506477Y-6014194D01*
X-1653619Y-5975412D01*
X-1799765Y-5933030D01*
X-1944827Y-5887075D01*
X-2088717Y-5837573D01*
X-2231349Y-5784555D01*
X-2372637Y-5728053D01*
X-2512496Y-5668100D01*
X-2650842Y-5604734D01*
X-2787590Y-5537991D01*
X-2922660Y-5467912D01*
X-3055969Y-5394539D01*
X-3187437Y-5317917D01*
X-3316985Y-5238092D01*
X-3444535Y-5155112D01*
X-3570011Y-5069026D01*
X-3693336Y-4979887D01*
X-3814436Y-4887748D01*
X-3933238Y-4792665D01*
X-4049672Y-4694695D01*
X-4163666Y-4593897D01*
X-4275151Y-4490332D01*
X-4384062Y-4384062D01*
X-4490332Y-4275151D01*
X-4593897Y-4163666D01*
X-4694695Y-4049672D01*
X-4792665Y-3933238D01*
X-4887748Y-3814436D01*
X-4979887Y-3693336D01*
X-5069026Y-3570011D01*
X-5155112Y-3444535D01*
X-5238092Y-3316985D01*
X-5317917Y-3187437D01*
X-5394539Y-3055969D01*
X-5415213Y-3018406D01*
X-5424730Y-3063361D01*
X-5443728Y-3143355D01*
X-5464683Y-3222859D01*
X-5487582Y-3301825D01*
X-5512413Y-3380205D01*
X-5539160Y-3457952D01*
X-5567807Y-3535020D01*
X-5598336Y-3611361D01*
X-5630730Y-3686930D01*
X-5664968Y-3761681D01*
X-5701031Y-3835569D01*
X-5738896Y-3908550D01*
X-5778541Y-3980580D01*
X-5819942Y-4051616D01*
X-5863073Y-4121613D01*
X-5907909Y-4190532D01*
X-5954423Y-4258329D01*
X-6002587Y-4324964D01*
X-6052372Y-4390397D01*
X-6103747Y-4454589D01*
X-6156683Y-4517500D01*
X-6211146Y-4579094D01*
X-6267105Y-4639332D01*
X-6324525Y-4698179D01*
X-6383372Y-4755599D01*
X-6443610Y-4811558D01*
X-6505203Y-4866021D01*
X-6568115Y-4918956D01*
X-6632307Y-4970332D01*
X-6697740Y-5020117D01*
X-6764375Y-5068281D01*
X-6832172Y-5114795D01*
X-6901090Y-5159631D01*
X-6971088Y-5202762D01*
X-7042123Y-5244163D01*
X-7114153Y-5283808D01*
X-7187134Y-5321673D01*
X-7261023Y-5357736D01*
X-7335774Y-5391974D01*
X-7411343Y-5424368D01*
X-7487684Y-5454897D01*
X-7564751Y-5483544D01*
X-7642499Y-5510291D01*
X-7720879Y-5535122D01*
X-7799845Y-5558021D01*
X-7879349Y-5578976D01*
X-7959343Y-5597974D01*
X-8039780Y-5615002D01*
X-8120610Y-5630052D01*
X-8201785Y-5643113D01*
X-8283257Y-5654178D01*
X-8364975Y-5663240D01*
X-8446891Y-5670294D01*
X-8528956Y-5675336D01*
X-8611119Y-5678362D01*
X-8693332Y-5679371D01*
X-8775546Y-5678362D01*
X-8857709Y-5675336D01*
X-8939774Y-5670294D01*
X-9021690Y-5663240D01*
X-9103408Y-5654178D01*
X-9184880Y-5643113D01*
X-9266055Y-5630052D01*
X-9346885Y-5615002D01*
X-9427322Y-5597974D01*
X-9507316Y-5578976D01*
X-9586820Y-5558021D01*
X-9665786Y-5535122D01*
X-9744166Y-5510291D01*
X-9821913Y-5483544D01*
X-9898981Y-5454897D01*
X-9975322Y-5424368D01*
X-10050891Y-5391974D01*
X-10125642Y-5357736D01*
X-10199530Y-5321673D01*
X-10272512Y-5283808D01*
X-10344541Y-5244163D01*
X-10415577Y-5202762D01*
X-10485574Y-5159631D01*
X-10554493Y-5114795D01*
X-10622290Y-5068281D01*
X-10688925Y-5020117D01*
X-10754358Y-4970332D01*
X-10818550Y-4918956D01*
X-10881461Y-4866021D01*
X-10943055Y-4811558D01*
X-11003293Y-4755599D01*
X-11062140Y-4698179D01*
X-11119560Y-4639332D01*
X-11175519Y-4579094D01*
X-11229982Y-4517500D01*
X-11282917Y-4454589D01*
X-11334293Y-4390397D01*
X-11384078Y-4324964D01*
X-11432242Y-4258329D01*
X-11478756Y-4190532D01*
X-11523592Y-4121613D01*
X-11566723Y-4051616D01*
X-11608124Y-3980580D01*
X-11647769Y-3908550D01*
X-11685634Y-3835569D01*
X-11721697Y-3761681D01*
X-11755935Y-3686930D01*
X-11788329Y-3611361D01*
X-11818858Y-3535020D01*
X-11847505Y-3457952D01*
X-11874252Y-3380205D01*
X-11899083Y-3301825D01*
X-11921982Y-3222859D01*
X-11942937Y-3143355D01*
X-11961935Y-3063361D01*
X-11978963Y-2982924D01*
X-11994013Y-2902094D01*
X-12007074Y-2820918D01*
X-12018139Y-2739447D01*
X-12027201Y-2657729D01*
X-12034255Y-2575813D01*
X-12039297Y-2493748D01*
X-12042323Y-2411585D01*
X-12043332Y-2329371D01*
X-12042323Y-2247158D01*
X-12039297Y-2164995D01*
X-12034255Y-2082930D01*
X-12027201Y-2001014D01*
X-12018139Y-1919296D01*
X-12007074Y-1837824D01*
X-11994013Y-1756649D01*
X-11978963Y-1675819D01*
X-11961935Y-1595382D01*
X-11942937Y-1515388D01*
X-11921982Y-1435884D01*
X-11899083Y-1356918D01*
X-11874252Y-1278538D01*
X-11847505Y-1200790D01*
X-11818858Y-1123723D01*
X-11788329Y-1047382D01*
X-11755935Y-971813D01*
X-11721697Y-897062D01*
X-11685634Y-823173D01*
X-11647769Y-750192D01*
X-11608124Y-678162D01*
X-11566723Y-607127D01*
X-11523592Y-537129D01*
X-11478756Y-468211D01*
X-11432242Y-400414D01*
X-11384078Y-333779D01*
X-11334293Y-268346D01*
X-11282917Y-204154D01*
X-11229982Y-141242D01*
X-11175519Y-79649D01*
X-11119560Y-19411D01*
X-11062140Y39436D01*
X-11003293Y96856D01*
X-10943055Y152815D01*
X-10881461Y207278D01*
X-10818550Y260214D01*
X-10754358Y311589D01*
X-10688925Y361374D01*
X-10622290Y409538D01*
X-10554493Y456052D01*
X-10485574Y500888D01*
X-10415577Y544019D01*
X-10344541Y585420D01*
X-10272512Y625065D01*
X-10199530Y662930D01*
X-10125642Y698993D01*
X-10050891Y733231D01*
X-9975322Y765625D01*
X-9898981Y796154D01*
X-9821913Y824801D01*
X-9744166Y851548D01*
X-9665786Y876379D01*
X-9586820Y899278D01*
X-9507316Y920233D01*
X-9427322Y939231D01*
X-9346885Y956259D01*
X-9266055Y971309D01*
X-9184880Y984370D01*
X-9103408Y995435D01*
X-9021690Y1004497D01*
X-8939774Y1011552D01*
X-8857709Y1016593D01*
X-8775546Y1019620D01*
X-8693332Y1020629D01*
X-8611119Y1019620D01*
X-8528956Y1016593D01*
X-8446891Y1011552D01*
X-8364975Y1004497D01*
X-8283257Y995435D01*
X-8201785Y984370D01*
X-8120610Y971309D01*
X-8039780Y956259D01*
X-7959343Y939231D01*
X-7879349Y920233D01*
X-7799845Y899278D01*
X-7720879Y876379D01*
X-7642499Y851548D01*
X-7564751Y824801D01*
X-7487684Y796154D01*
X-7411343Y765625D01*
X-7335774Y733231D01*
X-7261023Y698993D01*
X-7187134Y662930D01*
X-7114153Y625065D01*
X-7042123Y585420D01*
X-6971088Y544019D01*
X-6901090Y500888D01*
X-6832172Y456052D01*
X-6764375Y409538D01*
X-6697740Y361374D01*
X-6632307Y311589D01*
X-6568115Y260214D01*
X-6505203Y207278D01*
X-6443610Y152815D01*
X-6383372Y96856D01*
X-6324525Y39436D01*
X-6267105Y-19411D01*
X-6211146Y-79649D01*
X-6198852Y-93553D01*
X-6200000Y0D01*
X-6198133Y152156D01*
X-6192532Y304220D01*
X-6183201Y456100D01*
X-6170145Y607706D01*
X-6153373Y758946D01*
X-6132894Y909729D01*
X-6108721Y1059964D01*
X-6080869Y1209560D01*
X-6049353Y1358428D01*
X-6014194Y1506477D01*
X-5975412Y1653619D01*
X-5933030Y1799765D01*
X-5887075Y1944827D01*
X-5837573Y2088717D01*
X-5784555Y2231349D01*
X-5728053Y2372637D01*
X-5668100Y2512496D01*
X-5604734Y2650842D01*
X-5537991Y2787590D01*
X-5467912Y2922660D01*
X-5394539Y3055969D01*
X-5317917Y3187437D01*
X-5238092Y3316985D01*
X-5155112Y3444535D01*
X-5069026Y3570011D01*
X-4979887Y3693336D01*
X-4887748Y3814436D01*
X-4792665Y3933238D01*
X-4694695Y4049672D01*
X-4593897Y4163666D01*
X-4490332Y4275151D01*
X-4384062Y4384062D01*
X-4275151Y4490332D01*
X-4163666Y4593897D01*
X-4049672Y4694695D01*
X-3933238Y4792665D01*
X-3814436Y4887748D01*
X-3693336Y4979887D01*
X-3570011Y5069026D01*
X-3444535Y5155112D01*
X-3316985Y5238092D01*
X-3187437Y5317917D01*
X-3055969Y5394539D01*
X-3018406Y5415213D01*
X-3063361Y5424730D01*
X-3143355Y5443728D01*
X-3222859Y5464683D01*
X-3301825Y5487582D01*
X-3380205Y5512413D01*
X-3457952Y5539160D01*
X-3535020Y5567807D01*
X-3611361Y5598336D01*
X-3686930Y5630730D01*
X-3761681Y5664968D01*
X-3835569Y5701031D01*
X-3908550Y5738896D01*
X-3980580Y5778541D01*
X-4051616Y5819942D01*
X-4121613Y5863073D01*
X-4190532Y5907909D01*
X-4258329Y5954423D01*
X-4324964Y6002587D01*
X-4390397Y6052372D01*
X-4454589Y6103747D01*
X-4517500Y6156683D01*
X-4579094Y6211146D01*
X-4639332Y6267105D01*
X-4698179Y6324525D01*
X-4755599Y6383372D01*
X-4811558Y6443610D01*
X-4866021Y6505203D01*
X-4918956Y6568115D01*
X-4970332Y6632307D01*
X-5020117Y6697740D01*
X-5068281Y6764375D01*
X-5114795Y6832172D01*
X-5159631Y6901090D01*
X-5202762Y6971088D01*
X-5244163Y7042123D01*
X-5283808Y7114153D01*
X-5321673Y7187134D01*
X-5357736Y7261023D01*
X-5391974Y7335774D01*
X-5424368Y7411343D01*
X-5454897Y7487684D01*
X-5483544Y7564751D01*
X-5510291Y7642499D01*
X-5535122Y7720879D01*
X-5558021Y7799845D01*
X-5578976Y7879349D01*
X-5597974Y7959343D01*
X-5615002Y8039780D01*
X-5630052Y8120610D01*
X-5643113Y8201785D01*
X-5654178Y8283257D01*
X-5663240Y8364975D01*
X-5670294Y8446891D01*
X-5675336Y8528956D01*
X-5678362Y8611119D01*
X-5679371Y8693332D01*
X-5678362Y8775546D01*
X-5675336Y8857709D01*
X-5670294Y8939774D01*
X-5663240Y9021690D01*
X-5654178Y9103408D01*
X-5643113Y9184880D01*
X-5630052Y9266055D01*
X-5615002Y9346885D01*
X-5597974Y9427322D01*
X-5578976Y9507316D01*
X-5558021Y9586820D01*
X-5535122Y9665786D01*
X-5510291Y9744166D01*
X-5483544Y9821913D01*
X-5454897Y9898981D01*
X-5424368Y9975322D01*
X-5391974Y10050891D01*
X-5357736Y10125642D01*
X-5321673Y10199530D01*
X-5283808Y10272512D01*
X-5244163Y10344541D01*
X-5202762Y10415577D01*
X-5159631Y10485574D01*
X-5114795Y10554493D01*
X-5068281Y10622290D01*
X-5020117Y10688925D01*
X-4970332Y10754358D01*
X-4918956Y10818550D01*
X-4866021Y10881461D01*
X-4811558Y10943055D01*
X-4755599Y11003293D01*
X-4698179Y11062140D01*
X-4639332Y11119560D01*
X-4579094Y11175519D01*
X-4517500Y11229982D01*
X-4454589Y11282917D01*
X-4390397Y11334293D01*
X-4324964Y11384078D01*
X-4258329Y11432242D01*
X-4190532Y11478756D01*
X-4121613Y11523592D01*
X-4051616Y11566723D01*
X-3980580Y11608124D01*
X-3908550Y11647769D01*
X-3835569Y11685634D01*
X-3761681Y11721697D01*
X-3686930Y11755935D01*
X-3611361Y11788329D01*
X-3535020Y11818858D01*
X-3457952Y11847505D01*
X-3380205Y11874252D01*
X-3301825Y11899083D01*
X-3222859Y11921982D01*
X-3143355Y11942937D01*
X-3063361Y11961935D01*
X-2982924Y11978963D01*
X-2902094Y11994013D01*
X-2820918Y12007074D01*
X-2739447Y12018139D01*
X-2657729Y12027201D01*
X-2575813Y12034255D01*
X-2493748Y12039297D01*
X-2411585Y12042323D01*
X-2329371Y12043332D01*
X-2247158Y12042323D01*
X-2164995Y12039297D01*
X-2082930Y12034255D01*
X-2001014Y12027201D01*
X-1919296Y12018139D01*
X-1837824Y12007074D01*
X-1756649Y11994013D01*
X-1675819Y11978963D01*
X-1595382Y11961935D01*
X-1515388Y11942937D01*
X-1435884Y11921982D01*
X-1356918Y11899083D01*
X-1278538Y11874252D01*
X-1200790Y11847505D01*
X-1123723Y11818858D01*
X-1047382Y11788329D01*
X-971813Y11755935D01*
X-897062Y11721697D01*
X-823173Y11685634D01*
X-750192Y11647769D01*
X-678162Y11608124D01*
X-607127Y11566723D01*
X-537129Y11523592D01*
X-468211Y11478756D01*
X-400414Y11432242D01*
X-333779Y11384078D01*
X-268346Y11334293D01*
X-204154Y11282917D01*
X-141242Y11229982D01*
X-79649Y11175519D01*
X-19411Y11119560D01*
X39436Y11062140D01*
X96856Y11003293D01*
X152815Y10943055D01*
X207278Y10881461D01*
X260214Y10818550D01*
X311589Y10754358D01*
X361374Y10688925D01*
X409538Y10622290D01*
X456052Y10554493D01*
X500888Y10485574D01*
X544019Y10415577D01*
X585420Y10344541D01*
X625065Y10272512D01*
X662930Y10199530D01*
X698993Y10125642D01*
X733231Y10050891D01*
X765625Y9975322D01*
X796154Y9898981D01*
X824801Y9821913D01*
X851548Y9744166D01*
X876379Y9665786D01*
X899278Y9586820D01*
X920233Y9507316D01*
X939231Y9427322D01*
X956259Y9346885D01*
X971309Y9266055D01*
X984370Y9184880D01*
X995435Y9103408D01*
X1004497Y9021690D01*
X1011552Y8939774D01*
X1016593Y8857709D01*
X1019620Y8775546D01*
X1020629Y8693332D01*
X1019620Y8611119D01*
X1016593Y8528956D01*
X1011552Y8446891D01*
X1004497Y8364975D01*
X995435Y8283257D01*
X984370Y8201785D01*
X971309Y8120610D01*
X956259Y8039780D01*
X939231Y7959343D01*
X920233Y7879349D01*
X899278Y7799845D01*
X876379Y7720879D01*
X851548Y7642499D01*
X824801Y7564751D01*
X796154Y7487684D01*
X765625Y7411343D01*
X733231Y7335774D01*
X698993Y7261023D01*
X662930Y7187134D01*
X625065Y7114153D01*
X585420Y7042123D01*
X544019Y6971088D01*
X500888Y6901090D01*
X456052Y6832172D01*
X409538Y6764375D01*
X361374Y6697740D01*
X311589Y6632307D01*
X260214Y6568115D01*
X207278Y6505203D01*
X152815Y6443610D01*
X96856Y6383372D01*
X39436Y6324525D01*
X-19411Y6267105D01*
X-79649Y6211146D01*
X-93553Y6198852D01*
X0Y6200000D01*
X152156Y6198133D01*
X304220Y6192532D01*
X456100Y6183201D01*
X607706Y6170145D01*
X758946Y6153373D01*
X909729Y6132894D01*
X1059964Y6108721D01*
X1209560Y6080869D01*
X1358428Y6049353D01*
X1506477Y6014194D01*
X1653619Y5975412D01*
X1799765Y5933030D01*
X1944827Y5887075D01*
X2088717Y5837573D01*
X2231349Y5784555D01*
X2372637Y5728053D01*
X2512496Y5668100D01*
X2650842Y5604734D01*
X2787590Y5537991D01*
X2922660Y5467912D01*
X3055969Y5394539D01*
X3187437Y5317917D01*
X3316985Y5238092D01*
X3444535Y5155112D01*
X3570011Y5069026D01*
X3693336Y4979887D01*
X3814436Y4887748D01*
X3933238Y4792665D01*
X4049672Y4694695D01*
X4163666Y4593897D01*
X4275151Y4490332D01*
X4384062Y4384062D01*
X4490332Y4275151D01*
X4593897Y4163666D01*
X4694695Y4049672D01*
X4792665Y3933238D01*
X4887748Y3814436D01*
X4979887Y3693336D01*
X5069026Y3570011D01*
X5155112Y3444535D01*
X5238092Y3316985D01*
X5317917Y3187437D01*
X5394539Y3055969D01*
X5415213Y3018406D01*
X5424730Y3063361D01*
X5443728Y3143355D01*
X5464683Y3222859D01*
X5487582Y3301825D01*
X5512413Y3380205D01*
X5539160Y3457952D01*
X5567807Y3535020D01*
X5598336Y3611361D01*
X5630730Y3686930D01*
X5664968Y3761681D01*
X5701031Y3835569D01*
X5738896Y3908550D01*
X5778541Y3980580D01*
X5819942Y4051616D01*
X5863073Y4121613D01*
X5907909Y4190532D01*
X5954423Y4258329D01*
X6002587Y4324964D01*
X6052372Y4390397D01*
X6103747Y4454589D01*
X6156683Y4517500D01*
X6211146Y4579094D01*
X6267105Y4639332D01*
X6324525Y4698179D01*
X6383372Y4755599D01*
X6443610Y4811558D01*
X6505203Y4866021D01*
X6568115Y4918956D01*
X6632307Y4970332D01*
X6697740Y5020117D01*
X6764375Y5068281D01*
X6832172Y5114795D01*
X6901090Y5159631D01*
X6971088Y5202762D01*
X7042123Y5244163D01*
X7114153Y5283808D01*
X7187134Y5321673D01*
X7261023Y5357736D01*
X7335774Y5391974D01*
X7411343Y5424368D01*
X7487684Y5454897D01*
X7564751Y5483544D01*
X7642499Y5510291D01*
X7720879Y5535122D01*
X7799845Y5558021D01*
X7879349Y5578976D01*
X7959343Y5597974D01*
X8039780Y5615002D01*
X8120610Y5630052D01*
X8201785Y5643113D01*
X8283257Y5654178D01*
X8364975Y5663240D01*
X8446891Y5670294D01*
X8528956Y5675336D01*
X8611119Y5678362D01*
X8693332Y5679371D01*
X8775546Y5678362D01*
X8857709Y5675336D01*
X8939774Y5670294D01*
X9021690Y5663240D01*
X9103408Y5654178D01*
X9184880Y5643113D01*
X9266055Y5630052D01*
X9346885Y5615002D01*
X9427322Y5597974D01*
X9507316Y5578976D01*
X9586820Y5558021D01*
X9665786Y5535122D01*
X9744166Y5510291D01*
X9821913Y5483544D01*
X9898981Y5454897D01*
X9975322Y5424368D01*
X10050891Y5391974D01*
X10125642Y5357736D01*
X10199530Y5321673D01*
X10272512Y5283808D01*
X10344541Y5244163D01*
X10415577Y5202762D01*
X10485574Y5159631D01*
X10554493Y5114795D01*
X10622290Y5068281D01*
X10688925Y5020117D01*
X10754358Y4970332D01*
X10818550Y4918956D01*
X10881461Y4866021D01*
X10943055Y4811558D01*
X11003293Y4755599D01*
X11062140Y4698179D01*
X11119560Y4639332D01*
X11175519Y4579094D01*
X11229982Y4517500D01*
X11282917Y4454589D01*
X11334293Y4390397D01*
X11384078Y4324964D01*
X11432242Y4258329D01*
X11478756Y4190532D01*
X11523592Y4121613D01*
X11566723Y4051616D01*
X11608124Y3980580D01*
X11647769Y3908550D01*
X11685634Y3835569D01*
X11721697Y3761681D01*
X11755935Y3686930D01*
X11788329Y3611361D01*
X11818858Y3535020D01*
X11847505Y3457952D01*
X11874252Y3380205D01*
X11899083Y3301825D01*
X11921982Y3222859D01*
X11942937Y3143355D01*
X11961935Y3063361D01*
X11978963Y2982924D01*
X11994013Y2902094D01*
X12007074Y2820918D01*
X12018139Y2739447D01*
X12027201Y2657729D01*
X12034255Y2575813D01*
X12039297Y2493748D01*
X12042323Y2411585D01*
X12043332Y2329371D01*
X12042323Y2247158D01*
X12039297Y2164995D01*
X12034255Y2082930D01*
X12027201Y2001014D01*
X12018139Y1919296D01*
X12007074Y1837824D01*
X11994013Y1756649D01*
X11978963Y1675819D01*
X11961935Y1595382D01*
X11942937Y1515388D01*
X11921982Y1435884D01*
X11899083Y1356918D01*
X11874252Y1278538D01*
X11847505Y1200790D01*
X11818858Y1123723D01*
X11788329Y1047382D01*
X11755935Y971813D01*
X11721697Y897062D01*
X11685634Y823173D01*
X11647769Y750192D01*
X11608124Y678162D01*
X11566723Y607127D01*
X11523592Y537129D01*
X11478756Y468211D01*
X11432242Y400414D01*
X11384078Y333779D01*
X11334293Y268346D01*
X11282917Y204154D01*
X11229982Y141242D01*
X11175519Y79649D01*
X11119560Y19411D01*
X11062140Y-39436D01*
X11003293Y-96856D01*
X10943055Y-152815D01*
X10881461Y-207278D01*
X10818550Y-260214D01*
X10754358Y-311589D01*
X10688925Y-361374D01*
X10622290Y-409538D01*
X10554493Y-456052D01*
X10485574Y-500888D01*
X10415577Y-544019D01*
X10344541Y-585420D01*
X10272512Y-625065D01*
X10199530Y-662930D01*
X10125642Y-698993D01*
X10050891Y-733231D01*
X9975322Y-765625D01*
X9898981Y-796154D01*
X9821913Y-824801D01*
X9744166Y-851548D01*
X9665786Y-876379D01*
X9586820Y-899278D01*
X9507316Y-920233D01*
X9427322Y-939231D01*
X9346885Y-956259D01*
X9266055Y-971309D01*
X9184880Y-984370D01*
X9103408Y-995435D01*
X9021690Y-1004497D01*
X8939774Y-1011552D01*
X8857709Y-1016593D01*
X8775546Y-1019620D01*
X8693332Y-1020629D01*
X8611119Y-1019620D01*
X8528956Y-1016593D01*
X8446891Y-1011552D01*
X8364975Y-1004497D01*
X8283257Y-995435D01*
X8201785Y-984370D01*
X8120610Y-971309D01*
X8039780Y-956259D01*
X7959343Y-939231D01*
X7879349Y-920233D01*
X7799845Y-899278D01*
X7720879Y-876379D01*
X7642499Y-851548D01*
X7564751Y-824801D01*
X7487684Y-796154D01*
X7411343Y-765625D01*
X7335774Y-733231D01*
X7261023Y-698993D01*
X7187134Y-662930D01*
X7114153Y-625065D01*
X7042123Y-585420D01*
X6971088Y-544019D01*
X6901090Y-500888D01*
X6832172Y-456052D01*
X6764375Y-409538D01*
X6697740Y-361374D01*
X6632307Y-311589D01*
X6568115Y-260214D01*
X6505203Y-207278D01*
X6443610Y-152815D01*
X6383372Y-96856D01*
X6324525Y-39436D01*
X6267105Y19411D01*
X6211146Y79649D01*
X6198852Y93553D01*
X6200000Y0D01*
X6198133Y-152156D01*
X6192532Y-304220D01*
X6183201Y-456100D01*
X6170145Y-607706D01*
X6153373Y-758946D01*
X6132894Y-909729D01*
X6108721Y-1059964D01*
X6080869Y-1209560D01*
X6049353Y-1358428D01*
X6014194Y-1506477D01*
X5975412Y-1653619D01*
X5933030Y-1799765D01*
X5887075Y-1944827D01*
X5837573Y-2088717D01*
X5784555Y-2231349D01*
X5728053Y-2372637D01*
X5668100Y-2512496D01*
X5604734Y-2650842D01*
X5537991Y-2787590D01*
X5467912Y-2922660D01*
X5394539Y-3055969D01*
X5317917Y-3187437D01*
X5238092Y-3316985D01*
X5155112Y-3444535D01*
X5069026Y-3570011D01*
X4979887Y-3693336D01*
X4887748Y-3814436D01*
X4792665Y-3933238D01*
X4694695Y-4049672D01*
X4593897Y-4163666D01*
X4490332Y-4275151D01*
X4384062Y-4384062D01*
X4275151Y-4490332D01*
X4163666Y-4593897D01*
X4049672Y-4694695D01*
X3933238Y-4792665D01*
X3814436Y-4887748D01*
X3693336Y-4979887D01*
X3570011Y-5069026D01*
X3444535Y-5155112D01*
X3316985Y-5238092D01*
X3187437Y-5317917D01*
X3055969Y-5394539D01*
X3018406Y-5415213D01*
X3063361Y-5424730D01*
X3143355Y-5443728D01*
X3222859Y-5464683D01*
X3301825Y-5487582D01*
X3380205Y-5512413D01*
X3457952Y-5539160D01*
X3535020Y-5567807D01*
X3611361Y-5598336D01*
X3686930Y-5630730D01*
X3761681Y-5664968D01*
X3835569Y-5701031D01*
X3908550Y-5738896D01*
X3980580Y-5778541D01*
X4051616Y-5819942D01*
X4121613Y-5863073D01*
X4190532Y-5907909D01*
X4258329Y-5954423D01*
X4324964Y-6002587D01*
X4390397Y-6052372D01*
X4454589Y-6103747D01*
X4517500Y-6156683D01*
X4579094Y-6211146D01*
X4639332Y-6267105D01*
X4698179Y-6324525D01*
X4755599Y-6383372D01*
X4811558Y-6443610D01*
X4866021Y-6505203D01*
X4918956Y-6568115D01*
X4970332Y-6632307D01*
X5020117Y-6697740D01*
X5068281Y-6764375D01*
X5114795Y-6832172D01*
X5159631Y-6901090D01*
X5202762Y-6971088D01*
X5244163Y-7042123D01*
X5283808Y-7114153D01*
X5321673Y-7187134D01*
X5357736Y-7261023D01*
X5391974Y-7335774D01*
X5424368Y-7411343D01*
X5454897Y-7487684D01*
X5483544Y-7564751D01*
X5510291Y-7642499D01*
X5535122Y-7720879D01*
X5558021Y-7799845D01*
X5578976Y-7879349D01*
X5597974Y-7959343D01*
X5615002Y-8039780D01*
X5630052Y-8120610D01*
X5643113Y-8201785D01*
X5654178Y-8283257D01*
X5663240Y-8364975D01*
X5670294Y-8446891D01*
X5675336Y-8528956D01*
X5678362Y-8611119D01*
X5679371Y-8693332D01*
X5678362Y-8775546D01*
X5675336Y-8857709D01*
X5670294Y-8939774D01*
G37*
%LPD*%
G36*
X7195123Y9220658D02*
X7191333Y9176644D01*
X7186463Y9132735D01*
X7180518Y9088960D01*
X7173500Y9045343D01*
X7165414Y9001912D01*
X7156264Y8958692D01*
X7146056Y8915710D01*
X7134797Y8872991D01*
X7122493Y8830562D01*
X7109151Y8788447D01*
X7094779Y8746673D01*
X7079387Y8705263D01*
X7062983Y8664244D01*
X7045578Y8623640D01*
X7027181Y8583475D01*
X7007804Y8543774D01*
X6987458Y8504560D01*
X6966157Y8465858D01*
X6943911Y8427689D01*
X6920736Y8390079D01*
X6896645Y8353048D01*
X6871653Y8316620D01*
X6845774Y8280816D01*
X6819024Y8245657D01*
X6791419Y8211166D01*
X6762976Y8177363D01*
X6733712Y8144268D01*
X6703645Y8111901D01*
X6672792Y8080282D01*
X6641173Y8049430D01*
X6608806Y8019362D01*
X6575711Y7990098D01*
X6541908Y7961656D01*
X6507417Y7934051D01*
X6472259Y7907301D01*
X6436455Y7881422D01*
X6400026Y7856429D01*
X6362996Y7832338D01*
X6325385Y7809163D01*
X6287217Y7786918D01*
X6248514Y7765616D01*
X6209300Y7745271D01*
X6169599Y7725894D01*
X6129434Y7707497D01*
X6088830Y7690091D01*
X6047811Y7673687D01*
X6006402Y7658295D01*
X5964627Y7643924D01*
X5922512Y7630582D01*
X5880083Y7618277D01*
X5837364Y7607018D01*
X5794382Y7596811D01*
X5751163Y7587661D01*
X5707731Y7579575D01*
X5664115Y7572557D01*
X5620339Y7566611D01*
X5576431Y7561742D01*
X5532416Y7557952D01*
X5488322Y7555243D01*
X5444174Y7553616D01*
X5400000Y7553074D01*
X5355826Y7553616D01*
X5311678Y7555243D01*
X5267584Y7557952D01*
X5223569Y7561742D01*
X5179661Y7566611D01*
X5135885Y7572557D01*
X5092269Y7579575D01*
X5048837Y7587661D01*
X5005618Y7596811D01*
X4962636Y7607018D01*
X4919917Y7618277D01*
X4877488Y7630582D01*
X4835373Y7643924D01*
X4793598Y7658295D01*
X4752189Y7673687D01*
X4711170Y7690091D01*
X4670566Y7707497D01*
X4630401Y7725894D01*
X4590700Y7745271D01*
X4551486Y7765616D01*
X4512783Y7786918D01*
X4474615Y7809163D01*
X4437004Y7832338D01*
X4399974Y7856429D01*
X4363545Y7881422D01*
X4327741Y7907301D01*
X4292583Y7934051D01*
X4258092Y7961656D01*
X4224289Y7990098D01*
X4191194Y8019362D01*
X4158827Y8049430D01*
X4127208Y8080282D01*
X4096355Y8111901D01*
X4066288Y8144268D01*
X4037024Y8177363D01*
X4008581Y8211166D01*
X3980976Y8245657D01*
X3954226Y8280816D01*
X3928347Y8316620D01*
X3903355Y8353048D01*
X3879264Y8390079D01*
X3856089Y8427689D01*
X3833843Y8465858D01*
X3812542Y8504560D01*
X3792196Y8543774D01*
X3772819Y8583475D01*
X3754422Y8623640D01*
X3737017Y8664244D01*
X3720613Y8705263D01*
X3705221Y8746673D01*
X3690849Y8788447D01*
X3677507Y8830562D01*
X3665203Y8872991D01*
X3653944Y8915710D01*
X3643736Y8958692D01*
X3634586Y9001912D01*
X3626500Y9045343D01*
X3619482Y9088960D01*
X3613537Y9132735D01*
X3608667Y9176644D01*
X3604877Y9220658D01*
X3602168Y9264753D01*
X3600542Y9308900D01*
X3600000Y9353074D01*
X3600542Y9397249D01*
X3602168Y9441396D01*
X3604877Y9485491D01*
X3608667Y9529505D01*
X3613537Y9573414D01*
X3619482Y9617189D01*
X3626500Y9660806D01*
X3634586Y9704237D01*
X3643736Y9747457D01*
X3653944Y9790439D01*
X3665203Y9833157D01*
X3677507Y9875587D01*
X3690849Y9917701D01*
X3705221Y9959476D01*
X3720613Y10000885D01*
X3737017Y10041905D01*
X3754422Y10082509D01*
X3772819Y10122674D01*
X3792196Y10162375D01*
X3812542Y10201588D01*
X3833843Y10240291D01*
X3856089Y10278459D01*
X3879264Y10316070D01*
X3903355Y10353101D01*
X3928347Y10389529D01*
X3954226Y10425333D01*
X3980976Y10460491D01*
X4008581Y10494982D01*
X4037024Y10528785D01*
X4066288Y10561880D01*
X4096355Y10594247D01*
X4127208Y10625867D01*
X4158827Y10656719D01*
X4191194Y10686786D01*
X4224289Y10716050D01*
X4258092Y10744493D01*
X4292583Y10772098D01*
X4327741Y10798848D01*
X4363545Y10824727D01*
X4399974Y10849720D01*
X4437004Y10873811D01*
X4474615Y10896986D01*
X4512783Y10919231D01*
X4551486Y10940533D01*
X4590700Y10960878D01*
X4630401Y10980255D01*
X4670566Y10998652D01*
X4711170Y11016058D01*
X4752189Y11032461D01*
X4793598Y11047854D01*
X4835373Y11062225D01*
X4877488Y11075567D01*
X4919917Y11087871D01*
X4962636Y11099131D01*
X5005618Y11109338D01*
X5048837Y11118488D01*
X5092269Y11126574D01*
X5135885Y11133592D01*
X5179661Y11139538D01*
X5223569Y11144407D01*
X5267584Y11148197D01*
X5311678Y11150906D01*
X5355826Y11152532D01*
X5400000Y11153074D01*
X5444174Y11152532D01*
X5488322Y11150906D01*
X5532416Y11148197D01*
X5576431Y11144407D01*
X5620339Y11139538D01*
X5664115Y11133592D01*
X5707731Y11126574D01*
X5751163Y11118488D01*
X5794382Y11109338D01*
X5837364Y11099131D01*
X5880083Y11087871D01*
X5922512Y11075567D01*
X5964627Y11062225D01*
X6006402Y11047854D01*
X6047811Y11032461D01*
X6088830Y11016058D01*
X6129434Y10998652D01*
X6169599Y10980255D01*
X6209300Y10960878D01*
X6248514Y10940533D01*
X6287217Y10919231D01*
X6325385Y10896986D01*
X6362996Y10873811D01*
X6400026Y10849720D01*
X6436455Y10824727D01*
X6472259Y10798848D01*
X6507417Y10772098D01*
X6541908Y10744493D01*
X6575711Y10716050D01*
X6608806Y10686786D01*
X6641173Y10656719D01*
X6672792Y10625867D01*
X6703645Y10594247D01*
X6733712Y10561880D01*
X6762976Y10528785D01*
X6791419Y10494982D01*
X6819024Y10460491D01*
X6845774Y10425333D01*
X6871653Y10389529D01*
X6896645Y10353101D01*
X6920736Y10316070D01*
X6943911Y10278459D01*
X6966157Y10240291D01*
X6987458Y10201588D01*
X7007804Y10162375D01*
X7027181Y10122674D01*
X7045578Y10082509D01*
X7062983Y10041905D01*
X7079387Y10000885D01*
X7094779Y9959476D01*
X7109151Y9917701D01*
X7122493Y9875587D01*
X7134797Y9833157D01*
X7146056Y9790439D01*
X7156264Y9747457D01*
X7165414Y9704237D01*
X7173500Y9660806D01*
X7180518Y9617189D01*
X7186463Y9573414D01*
X7191333Y9529505D01*
X7195123Y9485491D01*
X7197832Y9441396D01*
X7199458Y9397249D01*
X7200000Y9353074D01*
X7199458Y9308900D01*
X7197832Y9264753D01*
X7195123Y9220658D01*
G37*
M02*
