  0
SECTION
  2
HEADER
  9
$ACADVER
  1
AC1015
  9
$ACADMAINTVER
 70
     6
  9
$DWGCODEPAGE
  3
ANSI_1252
  9
$INSBASE
 10
0.0
 20
0.0
 30
0.0
  9
$EXTMIN
 10
-1.7427913279
 20
-1.7427913279
 30
0.0
  9
$EXTMAX
 10
1.7427913279
 20
1.7427913279
 30
0.0
  9
$LIMMIN
 10
0.0
 20
0.0
  9
$LIMMAX
 10
420.0
 20
297.0
  9
$ORTHOMODE
 70
     0
  9
$REGENMODE
 70
     1
  9
$FILLMODE
 70
     1
  9
$QTEXTMODE
 70
     0
  9
$MIRRTEXT
 70
     1
  9
$LTSCALE
 40
1.0
  9
$ATTMODE
 70
     1
  9
$TEXTSIZE
 40
3.5
  9
$TRACEWID
 40
1.0
  9
$TEXTSTYLE
  7
Standard
  9
$CLAYER
  8
0
  9
$CELTYPE
  6
ByLayer
  9
$CECOLOR
 62
   256
  9
$CELTSCALE
 40
1.0
  9
$DISPSILH
 70
     0
  9
$DIMSCALE
 40
1.0
  9
$DIMASZ
 40
3.302
  9
$DIMEXO
 40
0.0
  9
$DIMDLI
 40
3.75
  9
$DIMRND
 40
0.0
  9
$DIMDLE
 40
0.0
  9
$DIMEXE
 40
1.0
  9
$DIMTP
 40
0.0
  9
$DIMTM
 40
0.0
  9
$DIMTXT
 40
3.5
  9
$DIMCEN
 40
2.5
  9
$DIMTSZ
 40
0.0
  9
$DIMTOL
 70
     0
  9
$DIMLIM
 70
     0
  9
$DIMTIH
 70
     1
  9
$DIMTOH
 70
     1
  9
$DIMSE1
 70
     0
  9
$DIMSE2
 70
     0
  9
$DIMTAD
 70
     1
  9
$DIMZIN
 70
     1
  9
$DIMBLK
  1

  9
$DIMASO
 70
     1
  9
$DIMSHO
 70
     1
  9
$DIMPOST
  1

  9
$DIMAPOST
  1

  9
$DIMALT
 70
     0
  9
$DIMALTD
 70
     3
  9
$DIMALTF
 40
0.0393700787
  9
$DIMLFAC
 40
1.0
  9
$DIMTOFL
 70
     1
  9
$DIMTVP
 40
0.0
  9
$DIMTIX
 70
     0
  9
$DIMSOXD
 70
     0
  9
$DIMSAH
 70
     0
  9
$DIMBLK1
  1

  9
$DIMBLK2
  1

  9
$DIMSTYLE
  2
ISO-25
  9
$DIMCLRD
 70
     0
  9
$DIMCLRE
 70
     0
  9
$DIMCLRT
 70
     0
  9
$DIMTFAC
 40
1.0
  9
$DIMGAP
 40
1.524
  9
$DIMJUST
 70
     0
  9
$DIMSD1
 70
     0
  9
$DIMSD2
 70
     0
  9
$DIMTOLJ
 70
     0
  9
$DIMTZIN
 70
     1
  9
$DIMALTZ
 70
     0
  9
$DIMALTTZ
 70
     0
  9
$DIMUPT
 70
     0
  9
$DIMDEC
 70
     2
  9
$DIMTDEC
 70
     2
  9
$DIMALTU
 70
     2
  9
$DIMALTTD
 70
     3
  9
$DIMTXSTY
  7
Standard
  9
$DIMAUNIT
 70
     0
  9
$DIMADEC
 70
     2
  9
$DIMALTRND
 40
0.0
  9
$DIMAZIN
 70
     0
  9
$DIMDSEP
 70
    44
  9
$DIMATFIT
 70
     3
  9
$DIMFRAC
 70
     0
  9
$DIMLDRBLK
  1

  9
$DIMLUNIT
 70
     2
  9
$DIMLWD
 70
    -2
  9
$DIMLWE
 70
    -2
  9
$DIMTMOVE
 70
     0
  9
$LUNITS
 70
     2
  9
$LUPREC
 70
     2
  9
$SKETCHINC
 40
1.0
  9
$FILLETRAD
 40
0.0
  9
$AUNITS
 70
     0
  9
$AUPREC
 70
     2
  9
$MENU
  1
.
  9
$ELEVATION
 40
0.0
  9
$PELEVATION
 40
0.0
  9
$THICKNESS
 40
0.0
  9
$LIMCHECK
 70
     0
  9
$CHAMFERA
 40
0.0
  9
$CHAMFERB
 40
0.0
  9
$CHAMFERC
 40
0.0
  9
$CHAMFERD
 40
0.0
  9
$SKPOLY
 70
     0
  9
$TDCREATE
 40
2461231.581731702
  9
$TDUCREATE
 40
2461231.748398368
  9
$TDUPDATE
 40
2461231.581757639
  9
$TDUUPDATE
 40
2461231.748424306
  9
$TDINDWG
 40
0.0000000116
  9
$TDUSRTIMER
 40
0.0000000116
  9
$USRTIMER
 70
     1
  9
$ANGBASE
 50
0.0
  9
$ANGDIR
 70
     0
  9
$PDMODE
 70
     0
  9
$PDSIZE
 40
-1.0
  9
$PLINEWID
 40
0.0
  9
$SPLFRAME
 70
     0
  9
$SPLINETYPE
 70
     6
  9
$SPLINESEGS
 70
     8
  9
$HANDSEED
  5
393
  9
$SURFTAB1
 70
     6
  9
$SURFTAB2
 70
     6
  9
$SURFTYPE
 70
     6
  9
$SURFU
 70
     6
  9
$SURFV
 70
     6
  9
$UCSBASE
  2

  9
$UCSNAME
  2

  9
$UCSORG
 10
0.0
 20
0.0
 30
0.0
  9
$UCSXDIR
 10
1.0
 20
0.0
 30
0.0
  9
$UCSYDIR
 10
0.0
 20
1.0
 30
0.0
  9
$UCSORTHOREF
  2

  9
$UCSORTHOVIEW
 70
     0
  9
$UCSORGTOP
 10
0.0
 20
0.0
 30
0.0
  9
$UCSORGBOTTOM
 10
0.0
 20
0.0
 30
0.0
  9
$UCSORGLEFT
 10
0.0
 20
0.0
 30
0.0
  9
$UCSORGRIGHT
 10
0.0
 20
0.0
 30
0.0
  9
$UCSORGFRONT
 10
0.0
 20
0.0
 30
0.0
  9
$UCSORGBACK
 10
0.0
 20
0.0
 30
0.0
  9
$PUCSBASE
  2

  9
$PUCSNAME
  2

  9
$PUCSORG
 10
0.0
 20
0.0
 30
0.0
  9
$PUCSXDIR
 10
1.0
 20
0.0
 30
0.0
  9
$PUCSYDIR
 10
0.0
 20
1.0
 30
0.0
  9
$PUCSORTHOREF
  2

  9
$PUCSORTHOVIEW
 70
     0
  9
$PUCSORGTOP
 10
0.0
 20
0.0
 30
0.0
  9
$PUCSORGBOTTOM
 10
0.0
 20
0.0
 30
0.0
  9
$PUCSORGLEFT
 10
0.0
 20
0.0
 30
0.0
  9
$PUCSORGRIGHT
 10
0.0
 20
0.0
 30
0.0
  9
$PUCSORGFRONT
 10
0.0
 20
0.0
 30
0.0
  9
$PUCSORGBACK
 10
0.0
 20
0.0
 30
0.0
  9
$USERI1
 70
     0
  9
$USERI2
 70
     0
  9
$USERI3
 70
     0
  9
$USERI4
 70
     0
  9
$USERI5
 70
     0
  9
$USERR1
 40
0.0
  9
$USERR2
 40
0.0
  9
$USERR3
 40
0.0
  9
$USERR4
 40
0.0
  9
$USERR5
 40
0.0
  9
$WORLDVIEW
 70
     1
  9
$SHADEDGE
 70
     3
  9
$SHADEDIF
 70
    70
  9
$TILEMODE
 70
     1
  9
$MAXACTVP
 70
    64
  9
$PINSBASE
 10
0.0
 20
0.0
 30
0.0
  9
$PLIMCHECK
 70
     0
  9
$PEXTMIN
 10
1.0000000000E+20
 20
1.0000000000E+20
 30
1.0000000000E+20
  9
$PEXTMAX
 10
-1.0000000000E+20
 20
-1.0000000000E+20
 30
-1.0000000000E+20
  9
$PLIMMIN
 10
0.0
 20
0.0
  9
$PLIMMAX
 10
420.0
 20
297.0
  9
$UNITMODE
 70
     0
  9
$VISRETAIN
 70
     1
  9
$PLINEGEN
 70
     0
  9
$PSLTSCALE
 70
     1
  9
$TREEDEPTH
 70
  3020
  9
$CMLSTYLE
  2
Standard
  9
$CMLJUST
 70
     0
  9
$CMLSCALE
 40
20.0
  9
$PROXYGRAPHICS
 70
     1
  9
$MEASUREMENT
 70
     1
  9
$CELWEIGHT
370
    -1
  9
$ENDCAPS
280
     0
  9
$JOINSTYLE
280
     0
  9
$LWDISPLAY
290
     1
  9
$INSUNITS
 70
     4
  9
$HYPERLINKBASE
  1

  9
$STYLESHEET
  1

  9
$XEDIT
290
     1
  9
$CEPSNTYPE
380
     0
  9
$PSTYLEMODE
290
     1
  9
$FINGERPRINTGUID
  2
{50eca1ef-a4b5-485c-bdcd-570c25251a43}
  9
$VERSIONGUID
  2
{FAEB1C32-E019-11D5-929B-00C0DF256EC4}
  9
$EXTNAMES
290
     1
  9
$PSVPSCALE
 40
0.0
  9
$OLESTARTUP
290
     0
  0
ENDSEC
  0
SECTION
  2
CLASSES
  0
CLASS
  1
ACDBDICTIONARYWDFLT
  2
AcDbDictionaryWithDefault
  3
ObjectDBX Classes
 90
        0
280
     0
281
     0
  0
CLASS
  1
VISUALSTYLE
  2
AcDbVisualStyle
  3
ObjectDBX Classes
 90
     4095
280
     0
281
     0
  0
CLASS
  1
MATERIAL
  2
AcDbMaterial
  3
ObjectDBX Classes
 90
     1153
280
     0
281
     0
  0
CLASS
  1
SCALE
  2
AcDbScale
  3
ObjectDBX Classes
 90
     1153
280
     0
281
     0
  0
CLASS
  1
TABLESTYLE
  2
AcDbTableStyle
  3
ObjectDBX Classes
 90
     4095
280
     0
281
     0
  0
CLASS
  1
MLEADERSTYLE
  2
AcDbMLeaderStyle
  3
ACDB_MLEADERSTYLE_CLASS
 90
     4095
280
     0
281
     0
  0
CLASS
  1
SUN
  2
AcDbSun
  3
SCENEOE
 90
     1153
280
     0
281
     0
  0
CLASS
  1
ACDBPLACEHOLDER
  2
AcDbPlaceHolder
  3
ObjectDBX Classes
 90
        0
280
     0
281
     0
  0
CLASS
  1
LAYOUT
  2
AcDbLayout
  3
ObjectDBX Classes
 90
        0
280
     0
281
     0
  0
ENDSEC
  0
SECTION
  2
TABLES
  0
TABLE
  2
VPORT
  5
8
330
0
100
AcDbSymbolTable
 70
     1
  0
VPORT
  5
29
330
8
100
AcDbSymbolTableRecord
100
AcDbViewportTableRecord
  2
*Active
 70
     0
 10
0.0
 20
0.0
 11
1.0
 21
1.0
 12
0.0
 22
0.0
 13
0.0
 23
0.0
 14
10.0
 24
10.0
 15
10.0
 25
10.0
 16
0.0
 26
0.0
 36
1.0
 17
0.0
 27
0.0
 37
0.0
 40
3.5552943088
 41
1.0
 42
50.0
 43
0.0
 44
0.0
 50
0.0
 51
0.0
 71
     0
 72
   100
 73
     1
 74
     3
 75
     0
 76
     0
 77
     0
 78
     0
281
     0
 65
     1
110
0.0
120
0.0
130
0.0
111
1.0
121
0.0
131
0.0
112
0.0
122
1.0
132
0.0
 79
     0
146
0.0
  0
ENDTAB
  0
TABLE
  2
LTYPE
  5
5
330
0
100
AcDbSymbolTable
 70
     6
  0
LTYPE
  5
14
330
5
100
AcDbSymbolTableRecord
100
AcDbLinetypeTableRecord
  2
ByBlock
 70
     0
  3

 72
    65
 73
     0
 40
0.0
  0
LTYPE
  5
15
330
5
100
AcDbSymbolTableRecord
100
AcDbLinetypeTableRecord
  2
ByLayer
 70
     0
  3

 72
    65
 73
     0
 40
0.0
  0
LTYPE
  5
16
330
5
100
AcDbSymbolTableRecord
100
AcDbLinetypeTableRecord
  2
Continuous
 70
     0
  3
Solid line
 72
    65
 73
     0
 40
0.0
  0
LTYPE
  5
5E
330
5
100
AcDbSymbolTableRecord
100
AcDbLinetypeTableRecord
  2
HIDDEN
 70
     0
  3
Hidden __ __ __ __ __ __ __ __ __ __ __ __ __ __
 72
    65
 73
     2
 40
1.905
 49
1.27
 74
     0
 49
-0.635
 74
     0
  0
LTYPE
  5
5F
330
5
100
AcDbSymbolTableRecord
100
AcDbLinetypeTableRecord
  2
PHANTOM
 70
     0
  3
Phantom ______  __  __  ______  __  __  ______
 72
    65
 73
     6
 40
12.7
 49
6.35
 74
     0
 49
-1.27
 74
     0
 49
1.27
 74
     0
 49
-1.27
 74
     0
 49
1.27
 74
     0
 49
-1.27
 74
     0
  0
LTYPE
  5
60
330
5
100
AcDbSymbolTableRecord
100
AcDbLinetypeTableRecord
  2
CENTER
 70
     0
  3
Center ____ _ ____ _ ____ _ ____ _ ____ _ ____
 72
    65
 73
     4
 40
10.16
 49
6.35
 74
     0
 49
-1.27
 74
     0
 49
1.27
 74
     0
 49
-1.27
 74
     0
  0
LTYPE
  5
61
330
5
100
AcDbSymbolTableRecord
100
AcDbLinetypeTableRecord
  2
CENTERX2
 70
     0
  3
Center (2x) ________  __  ________  __  _____
 72
    65
 73
     4
 40
20.32
 49
12.7
 74
     0
 49
-2.54
 74
     0
 49
2.54
 74
     0
 49
-2.54
 74
     0
  0
LTYPE
  5
62
330
5
100
AcDbSymbolTableRecord
100
AcDbLinetypeTableRecord
  2
DOT2
 70
     0
  3
Dot (.5x) ........................................
 72
    65
 73
     2
 40
0.635
 49
0.0
 74
     0
 49
-0.635
 74
     0
  0
ENDTAB
  0
TABLE
  2
LAYER
  5
2
330
0
100
AcDbSymbolTable
 70
     1
  0
LAYER
  5
10
330
2
100
AcDbSymbolTableRecord
100
AcDbLayerTableRecord
  2
0
 70
     0
 62
     7
  6
Continuous
370
    -3
390
F
  0
ENDTAB
  0
TABLE
  2
STYLE
  5
3
330
0
100
AcDbSymbolTable
 70
     2
  0
STYLE
  5
11
330
3
100
AcDbSymbolTableRecord
100
AcDbTextStyleTableRecord
  2
Standard
 70
     0
 40
0.0
 41
1.0
 50
0.0
 71
     0
 42
3.5
  3
txt
  4

  0
STYLE
  5
38F
330
3
100
AcDbSymbolTableRecord
100
AcDbTextStyleTableRecord
  2
SLDTEXTSTYLE0
 70
     0
 40
0.0
 41
0.7
 50
0.0
 71
     0
 42
3.5
  3
TXT
  4

  0
ENDTAB
  0
TABLE
  2
VIEW
  5
6
330
0
100
AcDbSymbolTable
 70
     0
  0
ENDTAB
  0
TABLE
  2
UCS
  5
7
330
0
100
AcDbSymbolTable
 70
     0
  0
ENDTAB
  0
TABLE
  2
APPID
  5
9
330
0
100
AcDbSymbolTable
 70
     1
  0
APPID
  5
12
330
9
100
AcDbSymbolTableRecord
100
AcDbRegAppTableRecord
  2
ACAD
 70
     0
  0
ENDTAB
  0
TABLE
  2
DIMSTYLE
  5
A
330
0
100
AcDbSymbolTable
 70
     1
100
AcDbDimStyleTable
  0
DIMSTYLE
105
27
330
A
100
AcDbSymbolTableRecord
100
AcDbDimStyleTableRecord
  2
ISO-25
 70
     0
 41
2.5
 42
0.625
 43
3.75
 44
1.25
 73
     0
 74
     0
 77
     1
 78
     8
140
2.5
141
2.5
143
0.0393700787
147
0.625
171
     3
172
     1
178
     0
271
     2
272
     2
274
     3
278
    44
283
     0
284
     8
340
11
  0
ENDTAB
  0
TABLE
  2
BLOCK_RECORD
  5
1
330
0
100
AcDbSymbolTable
 70
     1
  0
BLOCK_RECORD
  5
1F
330
1
100
AcDbSymbolTableRecord
100
AcDbBlockTableRecord
  2
*Model_Space
340
22
  0
BLOCK_RECORD
  5
1B
330
1
100
AcDbSymbolTableRecord
100
AcDbBlockTableRecord
  2
*Paper_Space
340
1E
  0
BLOCK_RECORD
  5
23
330
1
100
AcDbSymbolTableRecord
100
AcDbBlockTableRecord
  2
*Paper_Space0
340
26
  0
ENDTAB
  0
ENDSEC
  0
SECTION
  2
BLOCKS
  0
BLOCK
  5
20
330
1F
100
AcDbEntity
  8
0
100
AcDbBlockBegin
  2
*Model_Space
 70
     0
 10
0.0
 20
0.0
 30
0.0
  3
*Model_Space
  1

  0
ENDBLK
  5
21
330
1F
100
AcDbEntity
  8
0
100
AcDbBlockEnd
  0
BLOCK
  5
1C
330
1B
100
AcDbEntity
 67
     1
  8
0
100
AcDbBlockBegin
  2
*Paper_Space
 70
     0
 10
0.0
 20
0.0
 30
0.0
  3
*Paper_Space
  1

  0
ENDBLK
  5
1D
330
1B
100
AcDbEntity
 67
     1
  8
0
100
AcDbBlockEnd
  0
BLOCK
  5
24
330
23
100
AcDbEntity
  8
0
100
AcDbBlockBegin
  2
*Paper_Space0
 70
     0
 10
0.0
 20
0.0
 30
0.0
  3
*Paper_Space0
  1

  0
ENDBLK
  5
25
330
23
100
AcDbEntity
  8
0
100
AcDbBlockEnd
  0
ENDSEC
  0
SECTION
  2
ENTITIES
  0
LINE
  5
1F9
330
1F
100
AcDbEntity
  8
0
  6
Continuous
 62
     7
370
    25
100
AcDbLine
 10
0.2388725615
 20
1.005538816
 30
0.0
 11
0.1903219907
 21
0.9214467606
 31
0.0
  0
LINE
  5
1FA
330
1F
100
AcDbEntity
  8
0
  6
Continuous
 62
     7
370
    25
100
AcDbLine
 10
0.1903219907
 20
0.8154467606
 30
0.0
 11
0.2291228622
 21
0.7482416798
 31
0.0
  0
LINE
  5
1FB
330
1F
100
AcDbEntity
  8
0
  6
Continuous
 62
     7
370
    25
100
AcDbLine
 10
0.320921555
 20
0.6952416798
 30
0.0
 11
0.3985232979
 21
0.6952416798
 31
0.0
  0
LINE
  5
1FC
330
1F
100
AcDbEntity
  8
0
  6
Continuous
 62
     7
370
    25
100
AcDbLine
 10
0.4903219907
 20
0.7482416798
 30
0.0
 11
0.5291228622
 21
0.8154467606
 31
0.0
  0
LINE
  5
1FD
330
1F
100
AcDbEntity
  8
0
  6
Continuous
 62
     7
370
    25
100
AcDbLine
 10
0.5291228622
 20
0.9214467606
 30
0.0
 11
0.528863836
 21
0.921895407
 31
0.0
  0
LINE
  5
1FE
330
1F
100
AcDbEntity
  8
0
  6
Continuous
 62
     7
370
    25
100
AcDbLine
 10
0.5251068126
 20
1.0449076528
 30
0.0
 11
0.5161827184
 21
0.9927830905
 31
0.0
  0
LINE
  5
1FF
330
1F
100
AcDbEntity
  8
0
  6
Continuous
 62
     7
370
    25
100
AcDbLine
 10
0.6626776504
 20
1.1694650601
 30
0.0
 11
0.7164896289
 21
1.2626701408
 31
0.0
  0
LINE
  5
200
330
1F
100
AcDbEntity
  8
0
  6
Continuous
 62
     7
370
    25
100
AcDbLine
 10
0.7164896289
 20
1.3426701408
 30
0.0
 11
0.7106029088
 21
1.3528662391
 31
0.0
  0
LINE
  5
201
330
1F
100
AcDbEntity
  8
0
  6
Continuous
 62
     7
370
    25
100
AcDbLine
 10
0.7064811753
 20
1.4246764132
 30
0.0
 11
0.7359157293
 21
1.492598302
 31
0.0
  0
LINE
  5
202
330
1F
100
AcDbEntity
  8
0
  6
Continuous
 62
     7
370
    25
100
AcDbLine
 10
1.0350702021
 20
1.2138117031
 30
0.0
 11
1.0773386391
 21
1.2964963411
 31
0.0
  0
LINE
  5
203
330
1F
100
AcDbEntity
  8
0
  6
Continuous
 62
     7
370
    25
100
AcDbLine
 10
0.9638380111
 20
1.1702256422
 30
0.0
 11
0.943208583
 21
1.1702256422
 31
0.0
  0
LINE
  5
204
330
1F
100
AcDbEntity
  8
0
  6
Continuous
 62
     7
370
    25
100
AcDbLine
 10
0.8739265507
 20
1.1302256422
 30
0.0
 11
0.8201145722
 21
1.0370205615
 31
0.0
  0
LINE
  5
205
330
1F
100
AcDbEntity
  8
0
  6
Continuous
 62
     7
370
    25
100
AcDbLine
 10
0.8201145722
 20
0.9570205615
 30
0.0
 11
0.8739265507
 21
0.8638154807
 31
0.0
  0
LINE
  5
206
330
1F
100
AcDbEntity
  8
0
  6
Continuous
 62
     7
370
    25
100
AcDbLine
 10
0.943208583
 20
0.8238154807
 30
0.0
 11
1.0508325399
 21
0.8238154807
 31
0.0
  0
LINE
  5
207
330
1F
100
AcDbEntity
  8
0
  6
Continuous
 62
     7
370
    25
100
AcDbLine
 10
1.1201145722
 20
0.8638154807
 30
0.0
 11
1.1739265507
 21
0.9570205615
 31
0.0
  0
LINE
  5
208
330
1F
100
AcDbEntity
  8
0
  6
Continuous
 62
     7
370
    25
100
AcDbLine
 10
1.1739265507
 20
1.0370205615
 30
0.0
 11
1.1634483232
 21
1.0551693838
 31
0.0
  0
LINE
  5
209
330
1F
100
AcDbEntity
  8
0
  6
Continuous
 62
     7
370
    25
100
AcDbLine
 10
1.1717749843
 20
1.1516866242
 30
0.0
 11
1.1614981645
 21
1.131583323
 31
0.0
  0
LINE
  5
20A
330
1F
100
AcDbEntity
  8
0
  6
Continuous
 62
     7
370
    25
100
AcDbLine
 10
1.4477495456
 20
0.723345273
 30
0.0
 11
1.4949032593
 21
0.7505694823
 31
0.0
  0
LINE
  5
20B
330
1F
100
AcDbEntity
  8
0
  6
Continuous
 62
     7
370
    25
100
AcDbLine
 10
1.4026701408
 20
0.7127887204
 30
0.0
 11
1.2488581624
 21
0.7127887204
 31
0.0
  0
LINE
  5
20C
330
1F
100
AcDbEntity
  8
0
  6
Continuous
 62
     7
370
    25
100
AcDbLine
 10
1.1795761301
 20
0.6727887204
 30
0.0
 11
1.1313538506
 21
0.5892652822
 31
0.0
  0
LINE
  5
20D
330
1F
100
AcDbEntity
  8
0
  6
Continuous
 62
     7
370
    25
100
AcDbLine
 10
1.0443629797
 20
0.5363743721
 30
0.0
 11
0.9684467606
 21
0.5329275072
 31
0.0
  0
LINE
  5
20E
330
1F
100
AcDbEntity
  8
0
  6
Continuous
 62
     7
370
    25
100
AcDbLine
 10
0.9684467606
 20
0.5329275072
 30
0.0
 11
0.8296458891
 21
0.5329275072
 31
0.0
  0
LINE
  5
20F
330
1F
100
AcDbEntity
  8
0
  6
Continuous
 62
     7
370
    25
100
AcDbLine
 10
0.7378471963
 20
0.4799275072
 30
0.0
 11
0.6990463248
 21
0.4127224264
 31
0.0
  0
LINE
  5
210
330
1F
100
AcDbEntity
  8
0
  6
Continuous
 62
     7
370
    25
100
AcDbLine
 10
0.6990463248
 20
0.3067224264
 30
0.0
 11
0.7378471963
 21
0.2395173457
 31
0.0
  0
LINE
  5
211
330
1F
100
AcDbEntity
  8
0
  6
Continuous
 62
     7
370
    25
100
AcDbLine
 10
0.8296458891
 20
0.1865173457
 30
0.0
 11
0.907247632
 21
0.1865173457
 31
0.0
  0
LINE
  5
212
330
1F
100
AcDbEntity
  8
0
  6
Continuous
 62
     7
370
    25
100
AcDbLine
 10
0.9990463248
 20
0.2395173457
 30
0.0
 11
1.0420529736
 21
0.3140070464
 31
0.0
  0
LINE
  5
213
330
1F
100
AcDbEntity
  8
0
  6
Continuous
 62
     7
370
    25
100
AcDbLine
 10
1.1208348047
 20
0.3662047713
 30
0.0
 11
1.1814536943
 21
0.3737055771
 31
0.0
  0
LINE
  5
214
330
1F
100
AcDbEntity
  8
0
  6
Continuous
 62
     7
370
    25
100
AcDbLine
 10
1.2488581624
 20
0.3663785589
 30
0.0
 11
1.3564821193
 21
0.3663785589
 31
0.0
  0
LINE
  5
215
330
1F
100
AcDbEntity
  8
0
  6
Continuous
 62
     7
370
    25
100
AcDbLine
 10
1.4257641516
 20
0.4063785589
 30
0.0
 11
1.5026701408
 21
0.5395836396
 31
0.0
  0
LINE
  5
216
330
1F
100
AcDbEntity
  8
0
  6
Continuous
 62
     7
370
    25
100
AcDbLine
 10
1.534352086
 20
0.573345273
 30
0.0
 11
1.5493453405
 21
0.5820016326
 31
0.0
  0
LINE
  5
217
330
1F
100
AcDbEntity
  8
0
  6
Continuous
 62
     7
370
    25
100
AcDbLine
 10
1.5666987298
 20
0.075
 30
0.0
 11
1.6627913279
 21
0.075
 31
0.0
  0
LINE
  5
218
330
1F
100
AcDbEntity
  8
0
  6
Continuous
 62
     7
370
    25
100
AcDbLine
 10
1.5666987298
 20
0.075
 30
0.0
 11
1.5330940108
 21
0.1332050808
 31
0.0
  0
LINE
  5
219
330
1F
100
AcDbEntity
  8
0
  6
Continuous
 62
     7
370
    25
100
AcDbLine
 10
1.4638119785
 20
0.1732050808
 30
0.0
 11
1.3561880215
 21
0.1732050808
 31
0.0
  0
LINE
  5
21A
330
1F
100
AcDbEntity
  8
0
  6
Continuous
 62
     7
370
    25
100
AcDbLine
 10
1.2869059892
 20
0.1332050808
 30
0.0
 11
1.2330940108
 21
0.04
 31
0.0
  0
LINE
  5
21B
330
1F
100
AcDbEntity
  8
0
  6
Continuous
 62
     7
370
    25
100
AcDbLine
 10
1.2330940108
 20
-0.04
 30
0.0
 11
1.2869059892
 21
-0.1332050808
 31
0.0
  0
LINE
  5
21C
330
1F
100
AcDbEntity
  8
0
  6
Continuous
 62
     7
370
    25
100
AcDbLine
 10
1.3561880215
 20
-0.1732050808
 30
0.0
 11
1.4638119785
 21
-0.1732050808
 31
0.0
  0
LINE
  5
21D
330
1F
100
AcDbEntity
  8
0
  6
Continuous
 62
     7
370
    25
100
AcDbLine
 10
1.5330940108
 20
-0.1332050808
 30
0.0
 11
1.543604719
 21
-0.115
 31
0.0
  0
LINE
  5
21E
330
1F
100
AcDbEntity
  8
0
  6
Continuous
 62
     7
370
    25
100
AcDbLine
 10
1.6128867513
 20
-0.075
 30
0.0
 11
1.6627913279
 21
-0.075
 31
0.0
  0
LINE
  5
21F
330
1F
100
AcDbEntity
  8
0
  6
Continuous
 62
     7
370
    25
100
AcDbLine
 10
1.534352086
 20
-0.573345273
 30
0.0
 11
1.5493453405
 21
-0.5820016326
 31
0.0
  0
LINE
  5
220
330
1F
100
AcDbEntity
  8
0
  6
Continuous
 62
     7
370
    25
100
AcDbLine
 10
1.5026701408
 20
-0.5395836396
 30
0.0
 11
1.4257641516
 21
-0.4063785589
 31
0.0
  0
LINE
  5
221
330
1F
100
AcDbEntity
  8
0
  6
Continuous
 62
     7
370
    25
100
AcDbLine
 10
1.3564821193
 20
-0.3663785589
 30
0.0
 11
1.2488581624
 21
-0.3663785589
 31
0.0
  0
LINE
  5
222
330
1F
100
AcDbEntity
  8
0
  6
Continuous
 62
     7
370
    25
100
AcDbLine
 10
1.1814536943
 20
-0.3737055771
 30
0.0
 11
1.1208348047
 21
-0.3662047713
 31
0.0
  0
LINE
  5
223
330
1F
100
AcDbEntity
  8
0
  6
Continuous
 62
     7
370
    25
100
AcDbLine
 10
1.0420529736
 20
-0.3140070464
 30
0.0
 11
0.9990463248
 21
-0.2395173457
 31
0.0
  0
LINE
  5
224
330
1F
100
AcDbEntity
  8
0
  6
Continuous
 62
     7
370
    25
100
AcDbLine
 10
0.907247632
 20
-0.1865173457
 30
0.0
 11
0.8296458891
 21
-0.1865173457
 31
0.0
  0
LINE
  5
225
330
1F
100
AcDbEntity
  8
0
  6
Continuous
 62
     7
370
    25
100
AcDbLine
 10
0.7378471963
 20
-0.2395173457
 30
0.0
 11
0.6990463248
 21
-0.3067224264
 31
0.0
  0
LINE
  5
226
330
1F
100
AcDbEntity
  8
0
  6
Continuous
 62
     7
370
    25
100
AcDbLine
 10
0.6990463248
 20
-0.4127224264
 30
0.0
 11
0.7378471963
 21
-0.4799275072
 31
0.0
  0
LINE
  5
227
330
1F
100
AcDbEntity
  8
0
  6
Continuous
 62
     7
370
    25
100
AcDbLine
 10
0.8296458891
 20
-0.5329275072
 30
0.0
 11
0.966041612
 21
-0.5329275072
 31
0.0
  0
LINE
  5
228
330
1F
100
AcDbEntity
  8
0
  6
Continuous
 62
     7
370
    25
100
AcDbLine
 10
1.0443629797
 20
-0.5363743721
 30
0.0
 11
0.9708494339
 21
-0.533036597
 31
0.0
  0
LINE
  5
229
330
1F
100
AcDbEntity
  8
0
  6
Continuous
 62
     7
370
    25
100
AcDbLine
 10
1.1313538506
 20
-0.5892652822
 30
0.0
 11
1.1795761301
 21
-0.6727887204
 31
0.0
  0
LINE
  5
22A
330
1F
100
AcDbEntity
  8
0
  6
Continuous
 62
     7
370
    25
100
AcDbLine
 10
1.2488581624
 20
-0.7127887204
 30
0.0
 11
1.4026701408
 21
-0.7127887204
 31
0.0
  0
LINE
  5
22B
330
1F
100
AcDbEntity
  8
0
  6
Continuous
 62
     7
370
    25
100
AcDbLine
 10
1.4477495456
 20
-0.723345273
 30
0.0
 11
1.4949032593
 21
-0.7505694823
 31
0.0
  0
LINE
  5
22C
330
1F
100
AcDbEntity
  8
0
  6
Continuous
 62
     7
370
    25
100
AcDbLine
 10
1.1717749843
 20
-1.1516866242
 30
0.0
 11
1.1614981645
 21
-1.131583323
 31
0.0
  0
LINE
  5
22D
330
1F
100
AcDbEntity
  8
0
  6
Continuous
 62
     7
370
    25
100
AcDbLine
 10
1.1634483232
 20
-1.0551693838
 30
0.0
 11
1.1739265507
 21
-1.0370205615
 31
0.0
  0
LINE
  5
22E
330
1F
100
AcDbEntity
  8
0
  6
Continuous
 62
     7
370
    25
100
AcDbLine
 10
1.1739265507
 20
-0.9570205615
 30
0.0
 11
1.1201145722
 21
-0.8638154807
 31
0.0
  0
LINE
  5
22F
330
1F
100
AcDbEntity
  8
0
  6
Continuous
 62
     7
370
    25
100
AcDbLine
 10
1.0508325399
 20
-0.8238154807
 30
0.0
 11
0.943208583
 21
-0.8238154807
 31
0.0
  0
LINE
  5
230
330
1F
100
AcDbEntity
  8
0
  6
Continuous
 62
     7
370
    25
100
AcDbLine
 10
0.8739265507
 20
-0.8638154807
 30
0.0
 11
0.8201145722
 21
-0.9570205615
 31
0.0
  0
LINE
  5
231
330
1F
100
AcDbEntity
  8
0
  6
Continuous
 62
     7
370
    25
100
AcDbLine
 10
0.8201145722
 20
-1.0370205615
 30
0.0
 11
0.8739265507
 21
-1.1302256422
 31
0.0
  0
LINE
  5
232
330
1F
100
AcDbEntity
  8
0
  6
Continuous
 62
     7
370
    25
100
AcDbLine
 10
0.943208583
 20
-1.1702256422
 30
0.0
 11
0.9638380111
 21
-1.1702256422
 31
0.0
  0
LINE
  5
233
330
1F
100
AcDbEntity
  8
0
  6
Continuous
 62
     7
370
    25
100
AcDbLine
 10
1.0350702021
 20
-1.2138117031
 30
0.0
 11
1.0773386391
 21
-1.2964963411
 31
0.0
  0
LINE
  5
234
330
1F
100
AcDbEntity
  8
0
  6
Continuous
 62
     7
370
    25
100
AcDbLine
 10
0.7064811753
 20
-1.4246764132
 30
0.0
 11
0.7359157293
 21
-1.492598302
 31
0.0
  0
LINE
  5
235
330
1F
100
AcDbEntity
  8
0
  6
Continuous
 62
     7
370
    25
100
AcDbLine
 10
0.7106029088
 20
-1.3528662391
 30
0.0
 11
0.7164896289
 21
-1.3426701408
 31
0.0
  0
LINE
  5
236
330
1F
100
AcDbEntity
  8
0
  6
Continuous
 62
     7
370
    25
100
AcDbLine
 10
0.7164896289
 20
-1.2626701408
 30
0.0
 11
0.6626776504
 21
-1.1694650601
 31
0.0
  0
LINE
  5
237
330
1F
100
AcDbEntity
  8
0
  6
Continuous
 62
     7
370
    25
100
AcDbLine
 10
0.5251068126
 20
-1.0449076528
 30
0.0
 11
0.5161827184
 21
-0.9927830905
 31
0.0
  0
LINE
  5
238
330
1F
100
AcDbEntity
  8
0
  6
Continuous
 62
     7
370
    25
100
AcDbLine
 10
0.528863836
 20
-0.921895407
 30
0.0
 11
0.5291228622
 21
-0.9214467606
 31
0.0
  0
LINE
  5
239
330
1F
100
AcDbEntity
  8
0
  6
Continuous
 62
     7
370
    25
100
AcDbLine
 10
0.5291228622
 20
-0.8154467606
 30
0.0
 11
0.4903219907
 21
-0.7482416798
 31
0.0
  0
LINE
  5
23A
330
1F
100
AcDbEntity
  8
0
  6
Continuous
 62
     7
370
    25
100
AcDbLine
 10
0.3985232979
 20
-0.6952416798
 30
0.0
 11
0.320921555
 21
-0.6952416798
 31
0.0
  0
LINE
  5
23B
330
1F
100
AcDbEntity
  8
0
  6
Continuous
 62
     7
370
    25
100
AcDbLine
 10
0.2291228622
 20
-0.7482416798
 30
0.0
 11
0.1903219907
 21
-0.8154467606
 31
0.0
  0
LINE
  5
23C
330
1F
100
AcDbEntity
  8
0
  6
Continuous
 62
     7
370
    25
100
AcDbLine
 10
0.1903219907
 20
-0.9214467606
 30
0.0
 11
0.2388725615
 21
-1.005538816
 31
0.0
  0
LINE
  5
23D
330
1F
100
AcDbEntity
  8
0
  6
Continuous
 62
     7
370
    25
100
AcDbLine
 10
0.3831233476
 20
-1.1783338109
 30
0.0
 11
0.374807879
 21
-1.1297641578
 31
0.0
  0
LINE
  5
23E
330
1F
100
AcDbEntity
  8
0
  6
Continuous
 62
     7
370
    25
100
AcDbLine
 10
0.37044223
 20
-1.2492214944
 30
0.0
 11
0.3626776504
 21
-1.2626701408
 31
0.0
  0
LINE
  5
23F
330
1F
100
AcDbEntity
  8
0
  6
Continuous
 62
     7
370
    25
100
AcDbLine
 10
0.3626776504
 20
-1.3426701408
 30
0.0
 11
0.4164896289
 21
-1.4358752216
 31
0.0
  0
LINE
  5
240
330
1F
100
AcDbEntity
  8
0
  6
Continuous
 62
     7
370
    25
100
AcDbLine
 10
0.4857716612
 20
-1.4758752216
 30
0.0
 11
0.4979783689
 21
-1.4758752216
 31
0.0
  0
LINE
  5
241
330
1F
100
AcDbEntity
  8
0
  6
Continuous
 62
     7
370
    25
100
AcDbLine
 10
0.5713821346
 20
-1.5240650476
 30
0.0
 11
0.5859157293
 21
-1.5576021347
 31
0.0
  0
LINE
  5
242
330
1F
100
AcDbEntity
  8
0
  6
Continuous
 62
     7
370
    25
100
AcDbLine
 10
0.075
 20
-1.641136733
 30
0.0
 11
0.075
 21
-1.6627913279
 31
0.0
  0
LINE
  5
243
330
1F
100
AcDbEntity
  8
0
  6
Continuous
 62
     7
370
    25
100
AcDbLine
 10
0.0998282349
 20
-1.5832050808
 30
0.0
 11
0.1
 21
-1.5832050808
 31
0.0
  0
LINE
  5
244
330
1F
100
AcDbEntity
  8
0
  6
Continuous
 62
     7
370
    25
100
AcDbLine
 10
0.1
 20
-1.5832050808
 30
0.0
 11
0.1769059892
 21
-1.45
 31
0.0
  0
LINE
  5
245
330
1F
100
AcDbEntity
  8
0
  6
Continuous
 62
     7
370
    25
100
AcDbLine
 10
0.1769059892
 20
-1.37
 30
0.0
 11
0.1230940108
 21
-1.2767949192
 31
0.0
  0
LINE
  5
246
330
1F
100
AcDbEntity
  8
0
  6
Continuous
 62
     7
370
    25
100
AcDbLine
 10
0.0538119785
 20
-1.2367949192
 30
0.0
 11
-0.0538119785
 21
-1.2367949192
 31
0.0
  0
LINE
  5
247
330
1F
100
AcDbEntity
  8
0
  6
Continuous
 62
     7
370
    25
100
AcDbLine
 10
-0.1230940108
 20
-1.2767949192
 30
0.0
 11
-0.1769059892
 21
-1.37
 31
0.0
  0
LINE
  5
248
330
1F
100
AcDbEntity
  8
0
  6
Continuous
 62
     7
370
    25
100
AcDbLine
 10
-0.1769059892
 20
-1.45
 30
0.0
 11
-0.1
 21
-1.5832050808
 31
0.0
  0
LINE
  5
249
330
1F
100
AcDbEntity
  8
0
  6
Continuous
 62
     7
370
    25
100
AcDbLine
 10
-0.1
 20
-1.5832050808
 30
0.0
 11
-0.0998282349
 21
-1.5832050808
 31
0.0
  0
LINE
  5
24A
330
1F
100
AcDbEntity
  8
0
  6
Continuous
 62
     7
370
    25
100
AcDbLine
 10
-0.075
 20
-1.641136733
 30
0.0
 11
-0.075
 21
-1.6627913279
 31
0.0
  0
LINE
  5
24B
330
1F
100
AcDbEntity
  8
0
  6
Continuous
 62
     7
370
    25
100
AcDbLine
 10
-0.5713821346
 20
-1.5240650476
 30
0.0
 11
-0.5859157293
 21
-1.5576021347
 31
0.0
  0
LINE
  5
24C
330
1F
100
AcDbEntity
  8
0
  6
Continuous
 62
     7
370
    25
100
AcDbLine
 10
-0.4979783689
 20
-1.4758752216
 30
0.0
 11
-0.4857716612
 21
-1.4758752216
 31
0.0
  0
LINE
  5
24D
330
1F
100
AcDbEntity
  8
0
  6
Continuous
 62
     7
370
    25
100
AcDbLine
 10
-0.4164896289
 20
-1.4358752216
 30
0.0
 11
-0.3626776504
 21
-1.3426701408
 31
0.0
  0
LINE
  5
24E
330
1F
100
AcDbEntity
  8
0
  6
Continuous
 62
     7
370
    25
100
AcDbLine
 10
-0.3626776504
 20
-1.2626701408
 30
0.0
 11
-0.37044223
 21
-1.2492214944
 31
0.0
  0
LINE
  5
24F
330
1F
100
AcDbEntity
  8
0
  6
Continuous
 62
     7
370
    25
100
AcDbLine
 10
-0.3831233476
 20
-1.1783338109
 30
0.0
 11
-0.374807879
 21
-1.1297641578
 31
0.0
  0
LINE
  5
250
330
1F
100
AcDbEntity
  8
0
  6
Continuous
 62
     7
370
    25
100
AcDbLine
 10
-0.2388725615
 20
-1.005538816
 30
0.0
 11
-0.1903219907
 21
-0.9214467606
 31
0.0
  0
LINE
  5
251
330
1F
100
AcDbEntity
  8
0
  6
Continuous
 62
     7
370
    25
100
AcDbLine
 10
-0.1903219907
 20
-0.8154467606
 30
0.0
 11
-0.2291228622
 21
-0.7482416798
 31
0.0
  0
LINE
  5
252
330
1F
100
AcDbEntity
  8
0
  6
Continuous
 62
     7
370
    25
100
AcDbLine
 10
-0.320921555
 20
-0.6952416798
 30
0.0
 11
-0.3985232979
 21
-0.6952416798
 31
0.0
  0
LINE
  5
253
330
1F
100
AcDbEntity
  8
0
  6
Continuous
 62
     7
370
    25
100
AcDbLine
 10
-0.4903219907
 20
-0.7482416798
 30
0.0
 11
-0.5291228622
 21
-0.8154467606
 31
0.0
  0
LINE
  5
254
330
1F
100
AcDbEntity
  8
0
  6
Continuous
 62
     7
370
    25
100
AcDbLine
 10
-0.5291228622
 20
-0.9214467606
 30
0.0
 11
-0.528863836
 21
-0.921895407
 31
0.0
  0
LINE
  5
255
330
1F
100
AcDbEntity
  8
0
  6
Continuous
 62
     7
370
    25
100
AcDbLine
 10
-0.5251068126
 20
-1.0449076528
 30
0.0
 11
-0.5161827184
 21
-0.9927830905
 31
0.0
  0
LINE
  5
256
330
1F
100
AcDbEntity
  8
0
  6
Continuous
 62
     7
370
    25
100
AcDbLine
 10
-0.6626776504
 20
-1.1694650601
 30
0.0
 11
-0.7164896289
 21
-1.2626701408
 31
0.0
  0
LINE
  5
257
330
1F
100
AcDbEntity
  8
0
  6
Continuous
 62
     7
370
    25
100
AcDbLine
 10
-0.7164896289
 20
-1.3426701408
 30
0.0
 11
-0.7106029088
 21
-1.3528662391
 31
0.0
  0
LINE
  5
258
330
1F
100
AcDbEntity
  8
0
  6
Continuous
 62
     7
370
    25
100
AcDbLine
 10
-0.7064811753
 20
-1.4246764132
 30
0.0
 11
-0.7359157293
 21
-1.492598302
 31
0.0
  0
LINE
  5
259
330
1F
100
AcDbEntity
  8
0
  6
Continuous
 62
     7
370
    25
100
AcDbLine
 10
-1.0350702021
 20
-1.2138117031
 30
0.0
 11
-1.0773386391
 21
-1.2964963411
 31
0.0
  0
LINE
  5
25A
330
1F
100
AcDbEntity
  8
0
  6
Continuous
 62
     7
370
    25
100
AcDbLine
 10
-0.9638380111
 20
-1.1702256422
 30
0.0
 11
-0.943208583
 21
-1.1702256422
 31
0.0
  0
LINE
  5
25B
330
1F
100
AcDbEntity
  8
0
  6
Continuous
 62
     7
370
    25
100
AcDbLine
 10
-0.8739265507
 20
-1.1302256422
 30
0.0
 11
-0.8201145722
 21
-1.0370205615
 31
0.0
  0
LINE
  5
25C
330
1F
100
AcDbEntity
  8
0
  6
Continuous
 62
     7
370
    25
100
AcDbLine
 10
-0.8201145722
 20
-0.9570205615
 30
0.0
 11
-0.8739265507
 21
-0.8638154807
 31
0.0
  0
LINE
  5
25D
330
1F
100
AcDbEntity
  8
0
  6
Continuous
 62
     7
370
    25
100
AcDbLine
 10
-0.943208583
 20
-0.8238154807
 30
0.0
 11
-1.0508325399
 21
-0.8238154807
 31
0.0
  0
LINE
  5
25E
330
1F
100
AcDbEntity
  8
0
  6
Continuous
 62
     7
370
    25
100
AcDbLine
 10
-1.1201145722
 20
-0.8638154807
 30
0.0
 11
-1.1739265507
 21
-0.9570205615
 31
0.0
  0
LINE
  5
25F
330
1F
100
AcDbEntity
  8
0
  6
Continuous
 62
     7
370
    25
100
AcDbLine
 10
-1.1739265507
 20
-1.0370205615
 30
0.0
 11
-1.1634483232
 21
-1.0551693838
 31
0.0
  0
LINE
  5
260
330
1F
100
AcDbEntity
  8
0
  6
Continuous
 62
     7
370
    25
100
AcDbLine
 10
-1.1717749843
 20
-1.1516866242
 30
0.0
 11
-1.1614981645
 21
-1.131583323
 31
0.0
  0
LINE
  5
261
330
1F
100
AcDbEntity
  8
0
  6
Continuous
 62
     7
370
    25
100
AcDbLine
 10
-1.4477495456
 20
-0.723345273
 30
0.0
 11
-1.4949032593
 21
-0.7505694823
 31
0.0
  0
LINE
  5
262
330
1F
100
AcDbEntity
  8
0
  6
Continuous
 62
     7
370
    25
100
AcDbLine
 10
-1.4026701408
 20
-0.7127887204
 30
0.0
 11
-1.2488581624
 21
-0.7127887204
 31
0.0
  0
LINE
  5
263
330
1F
100
AcDbEntity
  8
0
  6
Continuous
 62
     7
370
    25
100
AcDbLine
 10
-1.1795761301
 20
-0.6727887204
 30
0.0
 11
-1.1313538506
 21
-0.5892652822
 31
0.0
  0
LINE
  5
264
330
1F
100
AcDbEntity
  8
0
  6
Continuous
 62
     7
370
    25
100
AcDbLine
 10
-1.0443629797
 20
-0.5363743721
 30
0.0
 11
-0.9708494339
 21
-0.533036597
 31
0.0
  0
LINE
  5
265
330
1F
100
AcDbEntity
  8
0
  6
Continuous
 62
     7
370
    25
100
AcDbLine
 10
-0.966041612
 20
-0.5329275072
 30
0.0
 11
-0.8296458891
 21
-0.5329275072
 31
0.0
  0
LINE
  5
266
330
1F
100
AcDbEntity
  8
0
  6
Continuous
 62
     7
370
    25
100
AcDbLine
 10
-0.7378471963
 20
-0.4799275072
 30
0.0
 11
-0.6990463248
 21
-0.4127224264
 31
0.0
  0
LINE
  5
267
330
1F
100
AcDbEntity
  8
0
  6
Continuous
 62
     7
370
    25
100
AcDbLine
 10
-0.6990463248
 20
-0.3067224264
 30
0.0
 11
-0.7378471963
 21
-0.2395173457
 31
0.0
  0
LINE
  5
268
330
1F
100
AcDbEntity
  8
0
  6
Continuous
 62
     7
370
    25
100
AcDbLine
 10
-0.8296458891
 20
-0.1865173457
 30
0.0
 11
-0.907247632
 21
-0.1865173457
 31
0.0
  0
LINE
  5
269
330
1F
100
AcDbEntity
  8
0
  6
Continuous
 62
     7
370
    25
100
AcDbLine
 10
-0.9990463248
 20
-0.2395173457
 30
0.0
 11
-1.0420529736
 21
-0.3140070464
 31
0.0
  0
LINE
  5
26A
330
1F
100
AcDbEntity
  8
0
  6
Continuous
 62
     7
370
    25
100
AcDbLine
 10
-1.1814536943
 20
-0.3737055771
 30
0.0
 11
-1.1208348047
 21
-0.3662047713
 31
0.0
  0
LINE
  5
26B
330
1F
100
AcDbEntity
  8
0
  6
Continuous
 62
     7
370
    25
100
AcDbLine
 10
-1.2488581624
 20
-0.3663785589
 30
0.0
 11
-1.3564821193
 21
-0.3663785589
 31
0.0
  0
LINE
  5
26C
330
1F
100
AcDbEntity
  8
0
  6
Continuous
 62
     7
370
    25
100
AcDbLine
 10
-1.4257641516
 20
-0.4063785589
 30
0.0
 11
-1.5026701408
 21
-0.5395836396
 31
0.0
  0
LINE
  5
26D
330
1F
100
AcDbEntity
  8
0
  6
Continuous
 62
     7
370
    25
100
AcDbLine
 10
-1.534352086
 20
-0.573345273
 30
0.0
 11
-1.5493453405
 21
-0.5820016326
 31
0.0
  0
LINE
  5
26E
330
1F
100
AcDbEntity
  8
0
  6
Continuous
 62
     7
370
    25
100
AcDbLine
 10
-1.6128867513
 20
-0.075
 30
0.0
 11
-1.6627913279
 21
-0.075
 31
0.0
  0
LINE
  5
26F
330
1F
100
AcDbEntity
  8
0
  6
Continuous
 62
     7
370
    25
100
AcDbLine
 10
-1.543604719
 20
-0.115
 30
0.0
 11
-1.5330940108
 21
-0.1332050808
 31
0.0
  0
LINE
  5
270
330
1F
100
AcDbEntity
  8
0
  6
Continuous
 62
     7
370
    25
100
AcDbLine
 10
-1.4638119785
 20
-0.1732050808
 30
0.0
 11
-1.3561880215
 21
-0.1732050808
 31
0.0
  0
LINE
  5
271
330
1F
100
AcDbEntity
  8
0
  6
Continuous
 62
     7
370
    25
100
AcDbLine
 10
-1.2869059892
 20
-0.1332050808
 30
0.0
 11
-1.2330940108
 21
-0.04
 31
0.0
  0
LINE
  5
272
330
1F
100
AcDbEntity
  8
0
  6
Continuous
 62
     7
370
    25
100
AcDbLine
 10
-1.2330940108
 20
0.04
 30
0.0
 11
-1.2869059892
 21
0.1332050808
 31
0.0
  0
LINE
  5
273
330
1F
100
AcDbEntity
  8
0
  6
Continuous
 62
     7
370
    25
100
AcDbLine
 10
-1.3561880215
 20
0.1732050808
 30
0.0
 11
-1.4638119785
 21
0.1732050808
 31
0.0
  0
LINE
  5
274
330
1F
100
AcDbEntity
  8
0
  6
Continuous
 62
     7
370
    25
100
AcDbLine
 10
-1.5330940108
 20
0.1332050808
 30
0.0
 11
-1.543604719
 21
0.115
 31
0.0
  0
LINE
  5
275
330
1F
100
AcDbEntity
  8
0
  6
Continuous
 62
     7
370
    25
100
AcDbLine
 10
-1.6128867513
 20
0.075
 30
0.0
 11
-1.6627913279
 21
0.075
 31
0.0
  0
LINE
  5
276
330
1F
100
AcDbEntity
  8
0
  6
Continuous
 62
     7
370
    25
100
AcDbLine
 10
-1.534352086
 20
0.573345273
 30
0.0
 11
-1.5493453405
 21
0.5820016326
 31
0.0
  0
LINE
  5
277
330
1F
100
AcDbEntity
  8
0
  6
Continuous
 62
     7
370
    25
100
AcDbLine
 10
-1.5026701408
 20
0.5395836396
 30
0.0
 11
-1.4257641516
 21
0.4063785589
 31
0.0
  0
LINE
  5
278
330
1F
100
AcDbEntity
  8
0
  6
Continuous
 62
     7
370
    25
100
AcDbLine
 10
-1.3564821193
 20
0.3663785589
 30
0.0
 11
-1.2488581624
 21
0.3663785589
 31
0.0
  0
LINE
  5
279
330
1F
100
AcDbEntity
  8
0
  6
Continuous
 62
     7
370
    25
100
AcDbLine
 10
-1.1814536943
 20
0.3737055771
 30
0.0
 11
-1.1208348047
 21
0.3662047713
 31
0.0
  0
LINE
  5
27A
330
1F
100
AcDbEntity
  8
0
  6
Continuous
 62
     7
370
    25
100
AcDbLine
 10
-1.0420529736
 20
0.3140070464
 30
0.0
 11
-0.9990463248
 21
0.2395173457
 31
0.0
  0
LINE
  5
27B
330
1F
100
AcDbEntity
  8
0
  6
Continuous
 62
     7
370
    25
100
AcDbLine
 10
-0.907247632
 20
0.1865173457
 30
0.0
 11
-0.8296458891
 21
0.1865173457
 31
0.0
  0
LINE
  5
27C
330
1F
100
AcDbEntity
  8
0
  6
Continuous
 62
     7
370
    25
100
AcDbLine
 10
-0.7378471963
 20
0.2395173457
 30
0.0
 11
-0.6990463248
 21
0.3067224264
 31
0.0
  0
LINE
  5
27D
330
1F
100
AcDbEntity
  8
0
  6
Continuous
 62
     7
370
    25
100
AcDbLine
 10
-0.6990463248
 20
0.4127224264
 30
0.0
 11
-0.7378471963
 21
0.4799275072
 31
0.0
  0
LINE
  5
27E
330
1F
100
AcDbEntity
  8
0
  6
Continuous
 62
     7
370
    25
100
AcDbLine
 10
-0.8296458891
 20
0.5329275072
 30
0.0
 11
-0.966041612
 21
0.5329275072
 31
0.0
  0
LINE
  5
27F
330
1F
100
AcDbEntity
  8
0
  6
Continuous
 62
     7
370
    25
100
AcDbLine
 10
-0.9708494339
 20
0.533036597
 30
0.0
 11
-1.0443629797
 21
0.5363743721
 31
0.0
  0
LINE
  5
280
330
1F
100
AcDbEntity
  8
0
  6
Continuous
 62
     7
370
    25
100
AcDbLine
 10
-1.1313538506
 20
0.5892652822
 30
0.0
 11
-1.1795761301
 21
0.6727887204
 31
0.0
  0
LINE
  5
281
330
1F
100
AcDbEntity
  8
0
  6
Continuous
 62
     7
370
    25
100
AcDbLine
 10
-1.2488581624
 20
0.7127887204
 30
0.0
 11
-1.4026701408
 21
0.7127887204
 31
0.0
  0
LINE
  5
282
330
1F
100
AcDbEntity
  8
0
  6
Continuous
 62
     7
370
    25
100
AcDbLine
 10
-1.4477495456
 20
0.723345273
 30
0.0
 11
-1.4949032593
 21
0.7505694823
 31
0.0
  0
LINE
  5
283
330
1F
100
AcDbEntity
  8
0
  6
Continuous
 62
     7
370
    25
100
AcDbLine
 10
-1.1717749843
 20
1.1516866242
 30
0.0
 11
-1.1614981645
 21
1.131583323
 31
0.0
  0
LINE
  5
284
330
1F
100
AcDbEntity
  8
0
  6
Continuous
 62
     7
370
    25
100
AcDbLine
 10
-1.1634483232
 20
1.0551693838
 30
0.0
 11
-1.1739265507
 21
1.0370205615
 31
0.0
  0
LINE
  5
285
330
1F
100
AcDbEntity
  8
0
  6
Continuous
 62
     7
370
    25
100
AcDbLine
 10
-1.1739265507
 20
0.9570205615
 30
0.0
 11
-1.1201145722
 21
0.8638154807
 31
0.0
  0
LINE
  5
286
330
1F
100
AcDbEntity
  8
0
  6
Continuous
 62
     7
370
    25
100
AcDbLine
 10
-1.0508325399
 20
0.8238154807
 30
0.0
 11
-0.943208583
 21
0.8238154807
 31
0.0
  0
LINE
  5
287
330
1F
100
AcDbEntity
  8
0
  6
Continuous
 62
     7
370
    25
100
AcDbLine
 10
-0.8739265507
 20
0.8638154807
 30
0.0
 11
-0.8201145722
 21
0.9570205615
 31
0.0
  0
LINE
  5
288
330
1F
100
AcDbEntity
  8
0
  6
Continuous
 62
     7
370
    25
100
AcDbLine
 10
-0.8201145722
 20
1.0370205615
 30
0.0
 11
-0.8739265507
 21
1.1302256422
 31
0.0
  0
LINE
  5
289
330
1F
100
AcDbEntity
  8
0
  6
Continuous
 62
     7
370
    25
100
AcDbLine
 10
-0.943208583
 20
1.1702256422
 30
0.0
 11
-0.9638380111
 21
1.1702256422
 31
0.0
  0
LINE
  5
28A
330
1F
100
AcDbEntity
  8
0
  6
Continuous
 62
     7
370
    25
100
AcDbLine
 10
-1.0350702021
 20
1.2138117031
 30
0.0
 11
-1.0773386391
 21
1.2964963411
 31
0.0
  0
LINE
  5
28B
330
1F
100
AcDbEntity
  8
0
  6
Continuous
 62
     7
370
    25
100
AcDbLine
 10
-0.7064811753
 20
1.4246764132
 30
0.0
 11
-0.7359157293
 21
1.492598302
 31
0.0
  0
LINE
  5
28C
330
1F
100
AcDbEntity
  8
0
  6
Continuous
 62
     7
370
    25
100
AcDbLine
 10
-0.7106029088
 20
1.3528662391
 30
0.0
 11
-0.7164896289
 21
1.3426701408
 31
0.0
  0
LINE
  5
28D
330
1F
100
AcDbEntity
  8
0
  6
Continuous
 62
     7
370
    25
100
AcDbLine
 10
-0.7164896289
 20
1.2626701408
 30
0.0
 11
-0.6626776504
 21
1.1694650601
 31
0.0
  0
LINE
  5
28E
330
1F
100
AcDbEntity
  8
0
  6
Continuous
 62
     7
370
    25
100
AcDbLine
 10
-0.5251068126
 20
1.0449076528
 30
0.0
 11
-0.5161827184
 21
0.9927830905
 31
0.0
  0
LINE
  5
28F
330
1F
100
AcDbEntity
  8
0
  6
Continuous
 62
     7
370
    25
100
AcDbLine
 10
-0.528863836
 20
0.921895407
 30
0.0
 11
-0.5291228622
 21
0.9214467606
 31
0.0
  0
LINE
  5
290
330
1F
100
AcDbEntity
  8
0
  6
Continuous
 62
     7
370
    25
100
AcDbLine
 10
-0.5291228622
 20
0.8154467606
 30
0.0
 11
-0.4903219907
 21
0.7482416798
 31
0.0
  0
LINE
  5
291
330
1F
100
AcDbEntity
  8
0
  6
Continuous
 62
     7
370
    25
100
AcDbLine
 10
-0.3985232979
 20
0.6952416798
 30
0.0
 11
-0.320921555
 21
0.6952416798
 31
0.0
  0
LINE
  5
292
330
1F
100
AcDbEntity
  8
0
  6
Continuous
 62
     7
370
    25
100
AcDbLine
 10
-0.2291228622
 20
0.7482416798
 30
0.0
 11
-0.1903219907
 21
0.8154467606
 31
0.0
  0
LINE
  5
293
330
1F
100
AcDbEntity
  8
0
  6
Continuous
 62
     7
370
    25
100
AcDbLine
 10
-0.1903219907
 20
0.9214467606
 30
0.0
 11
-0.2388725615
 21
1.005538816
 31
0.0
  0
LINE
  5
294
330
1F
100
AcDbEntity
  8
0
  6
Continuous
 62
     7
370
    25
100
AcDbLine
 10
-0.3831233476
 20
1.1783338109
 30
0.0
 11
-0.374807879
 21
1.1297641578
 31
0.0
  0
LINE
  5
295
330
1F
100
AcDbEntity
  8
0
  6
Continuous
 62
     7
370
    25
100
AcDbLine
 10
-0.37044223
 20
1.2492214944
 30
0.0
 11
-0.3626776504
 21
1.2626701408
 31
0.0
  0
LINE
  5
296
330
1F
100
AcDbEntity
  8
0
  6
Continuous
 62
     7
370
    25
100
AcDbLine
 10
-0.3626776504
 20
1.3426701408
 30
0.0
 11
-0.4164896289
 21
1.4358752216
 31
0.0
  0
LINE
  5
297
330
1F
100
AcDbEntity
  8
0
  6
Continuous
 62
     7
370
    25
100
AcDbLine
 10
-0.4857716612
 20
1.4758752216
 30
0.0
 11
-0.4979783689
 21
1.4758752216
 31
0.0
  0
LINE
  5
298
330
1F
100
AcDbEntity
  8
0
  6
Continuous
 62
     7
370
    25
100
AcDbLine
 10
-0.5713821346
 20
1.5240650476
 30
0.0
 11
-0.5859157293
 21
1.5576021347
 31
0.0
  0
LINE
  5
299
330
1F
100
AcDbEntity
  8
0
  6
Continuous
 62
     7
370
    25
100
AcDbLine
 10
-0.075
 20
1.641136733
 30
0.0
 11
-0.075
 21
1.6627913279
 31
0.0
  0
LINE
  5
29A
330
1F
100
AcDbEntity
  8
0
  6
Continuous
 62
     7
370
    25
100
AcDbLine
 10
-0.0998282349
 20
1.5832050808
 30
0.0
 11
-0.1
 21
1.5832050808
 31
0.0
  0
LINE
  5
29B
330
1F
100
AcDbEntity
  8
0
  6
Continuous
 62
     7
370
    25
100
AcDbLine
 10
-0.1
 20
1.5832050808
 30
0.0
 11
-0.1769059892
 21
1.45
 31
0.0
  0
LINE
  5
29C
330
1F
100
AcDbEntity
  8
0
  6
Continuous
 62
     7
370
    25
100
AcDbLine
 10
-0.1769059892
 20
1.37
 30
0.0
 11
-0.1230940108
 21
1.2767949192
 31
0.0
  0
LINE
  5
29D
330
1F
100
AcDbEntity
  8
0
  6
Continuous
 62
     7
370
    25
100
AcDbLine
 10
-0.0538119785
 20
1.2367949192
 30
0.0
 11
0.0538119785
 21
1.2367949192
 31
0.0
  0
LINE
  5
29E
330
1F
100
AcDbEntity
  8
0
  6
Continuous
 62
     7
370
    25
100
AcDbLine
 10
0.1230940108
 20
1.2767949192
 30
0.0
 11
0.1769059892
 21
1.37
 31
0.0
  0
LINE
  5
29F
330
1F
100
AcDbEntity
  8
0
  6
Continuous
 62
     7
370
    25
100
AcDbLine
 10
0.1769059892
 20
1.45
 30
0.0
 11
0.1
 21
1.5832050808
 31
0.0
  0
LINE
  5
2A0
330
1F
100
AcDbEntity
  8
0
  6
Continuous
 62
     7
370
    25
100
AcDbLine
 10
0.1
 20
1.5832050808
 30
0.0
 11
0.0998282349
 21
1.5832050808
 31
0.0
  0
LINE
  5
2A1
330
1F
100
AcDbEntity
  8
0
  6
Continuous
 62
     7
370
    25
100
AcDbLine
 10
0.075
 20
1.641136733
 30
0.0
 11
0.075
 21
1.6627913279
 31
0.0
  0
LINE
  5
2A2
330
1F
100
AcDbEntity
  8
0
  6
Continuous
 62
     7
370
    25
100
AcDbLine
 10
0.5713821346
 20
1.5240650476
 30
0.0
 11
0.5859157293
 21
1.5576021347
 31
0.0
  0
LINE
  5
2A3
330
1F
100
AcDbEntity
  8
0
  6
Continuous
 62
     7
370
    25
100
AcDbLine
 10
0.4979783689
 20
1.4758752216
 30
0.0
 11
0.4857716612
 21
1.4758752216
 31
0.0
  0
LINE
  5
2A4
330
1F
100
AcDbEntity
  8
0
  6
Continuous
 62
     7
370
    25
100
AcDbLine
 10
0.4164896289
 20
1.4358752216
 30
0.0
 11
0.3626776504
 21
1.3426701408
 31
0.0
  0
LINE
  5
2A5
330
1F
100
AcDbEntity
  8
0
  6
Continuous
 62
     7
370
    25
100
AcDbLine
 10
0.3626776504
 20
1.2626701408
 30
0.0
 11
0.37044223
 21
1.2492214944
 31
0.0
  0
LINE
  5
2A6
330
1F
100
AcDbEntity
  8
0
  6
Continuous
 62
     7
370
    25
100
AcDbLine
 10
0.3831233476
 20
1.1783338109
 30
0.0
 11
0.374807879
 21
1.1297641578
 31
0.0
  0
LINE
  5
2A7
330
1F
100
AcDbEntity
  8
0
  6
Continuous
 62
     7
370
    25
100
AcDbLine
 10
-0.4391753082
 20
0.05
 30
0.0
 11
-0.725
 21
0.05
 31
0.0
  0
LINE
  5
2A8
330
1F
100
AcDbEntity
  8
0
  6
Continuous
 62
     7
370
    25
100
AcDbLine
 10
-0.725
 20
-0.05
 30
0.0
 11
-0.725
 21
0.05
 31
0.0
  0
LINE
  5
2A9
330
1F
100
AcDbEntity
  8
0
  6
Continuous
 62
     7
370
    25
100
AcDbLine
 10
-0.4391753082
 20
-0.05
 30
0.0
 11
-0.725
 21
-0.05
 31
0.0
  0
LINE
  5
2AA
330
1F
100
AcDbEntity
  8
0
  6
Continuous
 62
     7
370
    25
100
AcDbLine
 10
0.725
 20
-0.05
 30
0.0
 11
0.439478334
 21
-0.05
 31
0.0
  0
LINE
  5
2AB
330
1F
100
AcDbEntity
  8
0
  6
Continuous
 62
     7
370
    25
100
AcDbLine
 10
0.725
 20
-0.05
 30
0.0
 11
0.725
 21
0.05
 31
0.0
  0
LINE
  5
2AC
330
1F
100
AcDbEntity
  8
0
  6
Continuous
 62
     7
370
    25
100
AcDbLine
 10
0.725
 20
0.05
 30
0.0
 11
0.439478334
 21
0.05
 31
0.0
  0
ARC
  5
2AD
330
1F
100
AcDbEntity
  8
0
  6
Continuous
 62
     7
370
    25
100
AcDbCircle
 10
0.2703280686
 20
1.1476518413
 30
0.0
 40
0.1060000000000006
100
AcDbArc
 50
281.7340042634
 51
350.2847500063
  0
ARC
  5
2AE
330
1F
100
AcDbEntity
  8
0
  6
Continuous
 62
     7
370
    25
100
AcDbCircle
 10
0.3081545938
 20
0.965538816
 30
0.0
 40
0.0800000000000001
100
AcDbArc
 50
101.7340042634
 51
150.0
  0
ARC
  5
2AF
330
1F
100
AcDbEntity
  8
0
  6
Continuous
 62
     7
370
    25
100
AcDbCircle
 10
0.2821206835
 20
0.8684467606
 30
0.0
 40
0.1059999999999998
100
AcDbArc
 50
150.0
 51
210.0
  0
ARC
  5
2B0
330
1F
100
AcDbEntity
  8
0
  6
Continuous
 62
     7
370
    25
100
AcDbCircle
 10
0.320921555
 20
0.8012416798
 30
0.0
 40
0.106
100
AcDbArc
 50
210.0
 51
270.0
  0
ARC
  5
2B1
330
1F
100
AcDbEntity
  8
0
  6
Continuous
 62
     7
370
    25
100
AcDbCircle
 10
0.3985232979
 20
0.8012416798
 30
0.0
 40
0.1059999999999996
100
AcDbArc
 50
270.0
 51
330.0
  0
ARC
  5
2B2
330
1F
100
AcDbEntity
  8
0
  6
Continuous
 62
     7
370
    25
100
AcDbCircle
 10
0.4373241694
 20
0.8684467606
 30
0.0
 40
0.1060000000000004
100
AcDbArc
 50
330.0
 51
30.0
  0
ARC
  5
2B3
330
1F
100
AcDbEntity
  8
0
  6
Continuous
 62
     7
370
    25
100
AcDbCircle
 10
0.6206625288
 20
0.974895407
 30
0.0
 40
0.1059999999999993
100
AcDbArc
 50
170.2847500063
 51
210.0
  0
ARC
  5
2B4
330
1F
100
AcDbEntity
  8
0
  6
Continuous
 62
     7
370
    25
100
AcDbCircle
 10
0.629586623
 20
1.0270199693
 30
0.0
 40
0.1060000000000002
100
AcDbArc
 50
101.2199146047
 51
170.2847500063
  0
ARC
  5
2B5
330
1F
100
AcDbEntity
  8
0
  6
Continuous
 62
     7
370
    25
100
AcDbCircle
 10
0.5933956181
 20
1.2094650601
 30
0.0
 40
0.0800000000000013
100
AcDbArc
 50
281.2199146047
 51
330.0
  0
ARC
  5
2B6
330
1F
100
AcDbEntity
  8
0
  6
Continuous
 62
     7
370
    25
100
AcDbCircle
 10
0.6472075966
 20
1.3026701408
 30
0.0
 40
0.080000000000001
100
AcDbArc
 50
330.0
 51
30.0
  0
ARC
  5
2B7
330
1F
100
AcDbEntity
  8
0
  6
Continuous
 62
     7
370
    25
100
AcDbCircle
 10
0.7798849411
 20
1.3928662391
 30
0.0
 40
0.0800000000000007
100
AcDbArc
 50
156.5700746727
 51
210.0
  0
ARC
  5
2B8
330
1F
100
AcDbEntity
  8
0
  6
Continuous
 62
     7
370
    25
100
AcDbCircle
 10
0.8093194951
 20
1.460788128
 30
0.0
 40
0.0800000000000008
100
AcDbArc
 50
61.012260536
 51
156.5700746727
  0
ARC
  5
2B9
330
1F
100
AcDbEntity
  8
0
  6
Continuous
 62
     7
370
    25
100
AcDbCircle
 10
0.0
 20
0.0
 30
0.0
 40
1.749999999999876
100
AcDbArc
 50
52.9537892272
 51
61.012260536
  0
ARC
  5
2BA
330
1F
100
AcDbEntity
  8
0
  6
Continuous
 62
     7
370
    25
100
AcDbCircle
 10
1.0061064481
 20
1.3329102802
 30
0.0
 40
0.080000000000001
100
AcDbArc
 50
332.9238543314
 51
52.9537892272
  0
ARC
  5
2BB
330
1F
100
AcDbEntity
  8
0
  6
Continuous
 62
     7
370
    25
100
AcDbCircle
 10
0.9638380111
 20
1.2502256422
 30
0.0
 40
0.0800000000000007
100
AcDbArc
 50
270.0
 51
332.9238543314
  0
ARC
  5
2BC
330
1F
100
AcDbEntity
  8
0
  6
Continuous
 62
     7
370
    25
100
AcDbCircle
 10
0.943208583
 20
1.0902256422
 30
0.0
 40
0.0800000000000003
100
AcDbArc
 50
90.0
 51
150.0
  0
ARC
  5
2BD
330
1F
100
AcDbEntity
  8
0
  6
Continuous
 62
     7
370
    25
100
AcDbCircle
 10
0.8893966045
 20
0.9970205615
 30
0.0
 40
0.0800000000000008
100
AcDbArc
 50
150.0
 51
210.0
  0
ARC
  5
2BE
330
1F
100
AcDbEntity
  8
0
  6
Continuous
 62
     7
370
    25
100
AcDbCircle
 10
0.943208583
 20
0.9038154807
 30
0.0
 40
0.0800000000000005
100
AcDbArc
 50
210.0
 51
270.0
  0
ARC
  5
2BF
330
1F
100
AcDbEntity
  8
0
  6
Continuous
 62
     7
370
    25
100
AcDbCircle
 10
1.0508325399
 20
0.9038154807
 30
0.0
 40
0.0800000000000006
100
AcDbArc
 50
270.0
 51
330.0
  0
ARC
  5
2C0
330
1F
100
AcDbEntity
  8
0
  6
Continuous
 62
     7
370
    25
100
AcDbCircle
 10
1.1046445184
 20
0.9970205615
 30
0.0
 40
0.0800000000000007
100
AcDbArc
 50
330.0
 51
30.0
  0
ARC
  5
2C1
330
1F
100
AcDbEntity
  8
0
  6
Continuous
 62
     7
370
    25
100
AcDbCircle
 10
1.2327303555
 20
1.0951693838
 30
0.0
 40
0.0800000000000019
100
AcDbArc
 50
152.9238543314
 51
210.0
  0
ARC
  5
2C2
330
1F
100
AcDbEntity
  8
0
  6
Continuous
 62
     7
370
    25
100
AcDbCircle
 10
1.2430071753
 20
1.1152726851
 30
0.0
 40
0.0800000000000006
100
AcDbArc
 50
41.8996458755
 51
152.9238543314
  0
ARC
  5
2C3
330
1F
100
AcDbEntity
  8
0
  6
Continuous
 62
     7
370
    25
100
AcDbCircle
 10
0.0
 20
0.0
 30
0.0
 40
1.750000000000075
100
AcDbArc
 50
29.4016636867
 51
41.8996458755
  0
ARC
  5
2C4
330
1F
100
AcDbEntity
  8
0
  6
Continuous
 62
     7
370
    25
100
AcDbCircle
 10
1.4549032593
 20
0.8198515146
 30
0.0
 40
0.0800000000000006
100
AcDbArc
 50
300.0
 51
29.4016636867
  0
ARC
  5
2C5
330
1F
100
AcDbEntity
  8
0
  6
Continuous
 62
     7
370
    25
100
AcDbCircle
 10
1.4077495456
 20
0.7926273053
 30
0.0
 40
0.0800000000000017
100
AcDbArc
 50
266.359695631
 51
300.0
  0
ARC
  5
2C6
330
1F
100
AcDbEntity
  8
0
  6
Continuous
 62
     7
370
    25
100
AcDbCircle
 10
1.2488581624
 20
0.6327887204
 30
0.0
 40
0.080000000000001
100
AcDbArc
 50
90.0
 51
150.0
  0
ARC
  5
2C7
330
1F
100
AcDbEntity
  8
0
  6
Continuous
 62
     7
370
    25
100
AcDbCircle
 10
1.0395551578
 20
0.6422652822
 30
0.0
 40
0.1060000000000003
100
AcDbArc
 50
272.5996456964
 51
330.0
  0
ARC
  5
2C8
330
1F
100
AcDbEntity
  8
0
  6
Continuous
 62
     7
370
    25
100
AcDbCircle
 10
0.8296458891
 20
0.4269275072
 30
0.0
 40
0.1060000000000004
100
AcDbArc
 50
90.0
 51
150.0
  0
ARC
  5
2C9
330
1F
100
AcDbEntity
  8
0
  6
Continuous
 62
     7
370
    25
100
AcDbCircle
 10
0.7908450176
 20
0.3597224264
 30
0.0
 40
0.106
100
AcDbArc
 50
150.0
 51
210.0
  0
ARC
  5
2CA
330
1F
100
AcDbEntity
  8
0
  6
Continuous
 62
     7
370
    25
100
AcDbCircle
 10
0.8296458891
 20
0.2925173457
 30
0.0
 40
0.1060000000000004
100
AcDbArc
 50
210.0
 51
270.0
  0
ARC
  5
2CB
330
1F
100
AcDbEntity
  8
0
  6
Continuous
 62
     7
370
    25
100
AcDbCircle
 10
0.907247632
 20
0.2925173457
 30
0.0
 40
0.1060000000000002
100
AcDbArc
 50
270.0
 51
330.0
  0
ARC
  5
2CC
330
1F
100
AcDbEntity
  8
0
  6
Continuous
 62
     7
370
    25
100
AcDbCircle
 10
1.1338516664
 20
0.2610070464
 30
0.0
 40
0.106000000000001
100
AcDbArc
 50
97.0537598776
 51
150.0
  0
ARC
  5
2CD
330
1F
100
AcDbEntity
  8
0
  6
Continuous
 62
     7
370
    25
100
AcDbCircle
 10
1.1944705561
 20
0.2685078522
 30
0.0
 40
0.105999999999997
100
AcDbArc
 50
72.9979161386
 51
97.0537598776
  0
ARC
  5
2CE
330
1F
100
AcDbEntity
  8
0
  6
Continuous
 62
     7
370
    25
100
AcDbCircle
 10
1.2488581624
 20
0.4463785589
 30
0.0
 40
0.0799999999999941
100
AcDbArc
 50
252.9979161386
 51
270.0
  0
ARC
  5
2CF
330
1F
100
AcDbEntity
  8
0
  6
Continuous
 62
     7
370
    25
100
AcDbCircle
 10
1.3564821193
 20
0.4463785589
 30
0.0
 40
0.0800000000000006
100
AcDbArc
 50
270.0
 51
330.0
  0
ARC
  5
2D0
330
1F
100
AcDbEntity
  8
0
  6
Continuous
 62
     7
370
    25
100
AcDbCircle
 10
1.574352086
 20
0.5040632407
 30
0.0
 40
0.0800000000000018
100
AcDbArc
 50
120.0
 51
153.640304369
  0
ARC
  5
2D1
330
1F
100
AcDbEntity
  8
0
  6
Continuous
 62
     7
370
    25
100
AcDbCircle
 10
1.5893453405
 20
0.5127196003
 30
0.0
 40
0.0799999999999994
100
AcDbArc
 50
17.8795963207
 51
120.0
  0
ARC
  5
2D2
330
1F
100
AcDbEntity
  8
0
  6
Continuous
 62
     7
370
    25
100
AcDbCircle
 10
0.0
 20
0.0
 30
0.0
 40
1.750000000000004
100
AcDbArc
 50
5.3255366427
 51
17.8795963207
  0
ARC
  5
2D3
330
1F
100
AcDbEntity
  8
0
  6
Continuous
 62
     7
370
    25
100
AcDbCircle
 10
1.6627913279
 20
0.155
 30
0.0
 40
0.0800000000000001
100
AcDbArc
 50
270.0
 51
5.3255366427
  0
ARC
  5
2D4
330
1F
100
AcDbEntity
  8
0
  6
Continuous
 62
     7
370
    25
100
AcDbCircle
 10
1.4638119785
 20
0.0932050808
 30
0.0
 40
0.0800000000000003
100
AcDbArc
 50
30.0
 51
90.0
  0
ARC
  5
2D5
330
1F
100
AcDbEntity
  8
0
  6
Continuous
 62
     7
370
    25
100
AcDbCircle
 10
1.3561880215
 20
0.0932050808
 30
0.0
 40
0.0800000000000008
100
AcDbArc
 50
90.0
 51
150.0
  0
ARC
  5
2D6
330
1F
100
AcDbEntity
  8
0
  6
Continuous
 62
     7
370
    25
100
AcDbCircle
 10
1.3023760431
 20
0.0
 30
0.0
 40
0.0799999999999991
100
AcDbArc
 50
150.0
 51
210.0
  0
ARC
  5
2D7
330
1F
100
AcDbEntity
  8
0
  6
Continuous
 62
     7
370
    25
100
AcDbCircle
 10
1.3561880215
 20
-0.0932050808
 30
0.0
 40
0.0800000000000006
100
AcDbArc
 50
210.0
 51
270.0
  0
ARC
  5
2D8
330
1F
100
AcDbEntity
  8
0
  6
Continuous
 62
     7
370
    25
100
AcDbCircle
 10
1.4638119785
 20
-0.0932050808
 30
0.0
 40
0.080000000000001
100
AcDbArc
 50
270.0
 51
330.0
  0
ARC
  5
2D9
330
1F
100
AcDbEntity
  8
0
  6
Continuous
 62
     7
370
    25
100
AcDbCircle
 10
1.6128867513
 20
-0.155
 30
0.0
 40
0.0800000000000004
100
AcDbArc
 50
90.0
 51
150.0
  0
ARC
  5
2DA
330
1F
100
AcDbEntity
  8
0
  6
Continuous
 62
     7
370
    25
100
AcDbCircle
 10
1.6627913279
 20
-0.155
 30
0.0
 40
0.0800000000000002
100
AcDbArc
 50
354.6744633573
 51
90.0
  0
ARC
  5
2DB
330
1F
100
AcDbEntity
  8
0
  6
Continuous
 62
     7
370
    25
100
AcDbCircle
 10
0.0
 20
0.0
 30
0.0
 40
1.749999999999972
100
AcDbArc
 50
342.1204036793
 51
354.6744633573
  0
ARC
  5
2DC
330
1F
100
AcDbEntity
  8
0
  6
Continuous
 62
     7
370
    25
100
AcDbCircle
 10
1.5893453405
 20
-0.5127196003
 30
0.0
 40
0.08
100
AcDbArc
 50
240.0
 51
342.1204036793
  0
ARC
  5
2DD
330
1F
100
AcDbEntity
  8
0
  6
Continuous
 62
     7
370
    25
100
AcDbCircle
 10
1.574352086
 20
-0.5040632407
 30
0.0
 40
0.0800000000000008
100
AcDbArc
 50
206.359695631
 51
240.0
  0
ARC
  5
2DE
330
1F
100
AcDbEntity
  8
0
  6
Continuous
 62
     7
370
    25
100
AcDbCircle
 10
1.3564821193
 20
-0.4463785589
 30
0.0
 40
0.08
100
AcDbArc
 50
30.0
 51
90.0
  0
ARC
  5
2DF
330
1F
100
AcDbEntity
  8
0
  6
Continuous
 62
     7
370
    25
100
AcDbCircle
 10
1.2488581624
 20
-0.4463785589
 30
0.0
 40
0.0799999999999998
100
AcDbArc
 50
90.0
 51
107.0020838614
  0
ARC
  5
2E0
330
1F
100
AcDbEntity
  8
0
  6
Continuous
 62
     7
370
    25
100
AcDbCircle
 10
1.1944705561
 20
-0.2685078522
 30
0.0
 40
0.1060000000000003
100
AcDbArc
 50
262.9462401224
 51
287.0020838614
  0
ARC
  5
2E1
330
1F
100
AcDbEntity
  8
0
  6
Continuous
 62
     7
370
    25
100
AcDbCircle
 10
1.1338516664
 20
-0.2610070464
 30
0.0
 40
0.1060000000000006
100
AcDbArc
 50
210.0
 51
262.9462401224
  0
ARC
  5
2E2
330
1F
100
AcDbEntity
  8
0
  6
Continuous
 62
     7
370
    25
100
AcDbCircle
 10
0.907247632
 20
-0.2925173457
 30
0.0
 40
0.1059999999999999
100
AcDbArc
 50
30.0
 51
90.0
  0
ARC
  5
2E3
330
1F
100
AcDbEntity
  8
0
  6
Continuous
 62
     7
370
    25
100
AcDbCircle
 10
0.8296458891
 20
-0.2925173457
 30
0.0
 40
0.106
100
AcDbArc
 50
90.0
 51
150.0
  0
ARC
  5
2E4
330
1F
100
AcDbEntity
  8
0
  6
Continuous
 62
     7
370
    25
100
AcDbCircle
 10
0.7908450176
 20
-0.3597224264
 30
0.0
 40
0.1060000000000006
100
AcDbArc
 50
150.0
 51
210.0
  0
ARC
  5
2E5
330
1F
100
AcDbEntity
  8
0
  6
Continuous
 62
     7
370
    25
100
AcDbCircle
 10
0.8296458891
 20
-0.4269275072
 30
0.0
 40
0.1059999999999999
100
AcDbArc
 50
210.0
 51
270.0
  0
ARC
  5
2E6
330
1F
100
AcDbEntity
  8
0
  6
Continuous
 62
     7
370
    25
100
AcDbCircle
 10
0.966041612
 20
-0.6389275072
 30
0.0
 40
0.1059999999999675
100
AcDbArc
 50
87.4003543036
 51
90.0
  0
ARC
  5
2E7
330
1F
100
AcDbEntity
  8
0
  6
Continuous
 62
     7
370
    25
100
AcDbCircle
 10
1.0395551578
 20
-0.6422652822
 30
0.0
 40
0.1059999999999982
100
AcDbArc
 50
30.0
 51
87.4003543036
  0
ARC
  5
2E8
330
1F
100
AcDbEntity
  8
0
  6
Continuous
 62
     7
370
    25
100
AcDbCircle
 10
1.2488581624
 20
-0.6327887204
 30
0.0
 40
0.0800000000000004
100
AcDbArc
 50
210.0
 51
270.0
  0
ARC
  5
2E9
330
1F
100
AcDbEntity
  8
0
  6
Continuous
 62
     7
370
    25
100
AcDbCircle
 10
1.4077495456
 20
-0.7926273053
 30
0.0
 40
0.0800000000000021
100
AcDbArc
 50
60.0
 51
93.640304369
  0
ARC
  5
2EA
330
1F
100
AcDbEntity
  8
0
  6
Continuous
 62
     7
370
    25
100
AcDbCircle
 10
1.4549032593
 20
-0.8198515146
 30
0.0
 40
0.0800000000000006
100
AcDbArc
 50
330.5983363133
 51
60.0
  0
ARC
  5
2EB
330
1F
100
AcDbEntity
  8
0
  6
Continuous
 62
     7
370
    25
100
AcDbCircle
 10
0.0
 20
0.0
 30
0.0
 40
1.750000000000125
100
AcDbArc
 50
318.1003541245
 51
330.5983363133
  0
ARC
  5
2EC
330
1F
100
AcDbEntity
  8
0
  6
Continuous
 62
     7
370
    25
100
AcDbCircle
 10
1.2430071753
 20
-1.1152726851
 30
0.0
 40
0.0799999999999998
100
AcDbArc
 50
207.0761456686
 51
318.1003541245
  0
ARC
  5
2ED
330
1F
100
AcDbEntity
  8
0
  6
Continuous
 62
     7
370
    25
100
AcDbCircle
 10
1.2327303555
 20
-1.0951693838
 30
0.0
 40
0.0799999999999998
100
AcDbArc
 50
150.0
 51
207.0761456686
  0
ARC
  5
2EE
330
1F
100
AcDbEntity
  8
0
  6
Continuous
 62
     7
370
    25
100
AcDbCircle
 10
1.1046445184
 20
-0.9970205615
 30
0.0
 40
0.0800000000000009
100
AcDbArc
 50
330.0
 51
30.0
  0
ARC
  5
2EF
330
1F
100
AcDbEntity
  8
0
  6
Continuous
 62
     7
370
    25
100
AcDbCircle
 10
1.0508325399
 20
-0.9038154807
 30
0.0
 40
0.0799999999999991
100
AcDbArc
 50
30.0
 51
90.0
  0
ARC
  5
2F0
330
1F
100
AcDbEntity
  8
0
  6
Continuous
 62
     7
370
    25
100
AcDbCircle
 10
0.943208583
 20
-0.9038154807
 30
0.0
 40
0.0800000000000006
100
AcDbArc
 50
90.0
 51
150.0
  0
ARC
  5
2F1
330
1F
100
AcDbEntity
  8
0
  6
Continuous
 62
     7
370
    25
100
AcDbCircle
 10
0.8893966045
 20
-0.9970205615
 30
0.0
 40
0.0800000000000008
100
AcDbArc
 50
150.0
 51
210.0
  0
ARC
  5
2F2
330
1F
100
AcDbEntity
  8
0
  6
Continuous
 62
     7
370
    25
100
AcDbCircle
 10
0.943208583
 20
-1.0902256422
 30
0.0
 40
0.0800000000000005
100
AcDbArc
 50
210.0
 51
270.0
  0
ARC
  5
2F3
330
1F
100
AcDbEntity
  8
0
  6
Continuous
 62
     7
370
    25
100
AcDbCircle
 10
0.9638380111
 20
-1.2502256422
 30
0.0
 40
0.0800000000000012
100
AcDbArc
 50
27.0761456686
 51
90.0
  0
ARC
  5
2F4
330
1F
100
AcDbEntity
  8
0
  6
Continuous
 62
     7
370
    25
100
AcDbCircle
 10
1.0061064481
 20
-1.3329102802
 30
0.0
 40
0.0800000000000005
100
AcDbArc
 50
307.0462107728
 51
27.0761456686
  0
ARC
  5
2F5
330
1F
100
AcDbEntity
  8
0
  6
Continuous
 62
     7
370
    25
100
AcDbCircle
 10
0.0
 20
0.0
 30
0.0
 40
1.749999999999825
100
AcDbArc
 50
298.987739464
 51
307.0462107728
  0
ARC
  5
2F6
330
1F
100
AcDbEntity
  8
0
  6
Continuous
 62
     7
370
    25
100
AcDbCircle
 10
0.8093194951
 20
-1.460788128
 30
0.0
 40
0.0800000000000006
100
AcDbArc
 50
203.4299253273
 51
298.987739464
  0
ARC
  5
2F7
330
1F
100
AcDbEntity
  8
0
  6
Continuous
 62
     7
370
    25
100
AcDbCircle
 10
0.7798849411
 20
-1.3928662391
 30
0.0
 40
0.0800000000000019
100
AcDbArc
 50
150.0
 51
203.4299253273
  0
ARC
  5
2F8
330
1F
100
AcDbEntity
  8
0
  6
Continuous
 62
     7
370
    25
100
AcDbCircle
 10
0.6472075966
 20
-1.3026701408
 30
0.0
 40
0.0800000000000009
100
AcDbArc
 50
330.0
 51
30.0
  0
ARC
  5
2F9
330
1F
100
AcDbEntity
  8
0
  6
Continuous
 62
     7
370
    25
100
AcDbCircle
 10
0.5933956181
 20
-1.2094650601
 30
0.0
 40
0.0800000000000008
100
AcDbArc
 50
30.0
 51
78.7800853953
  0
ARC
  5
2FA
330
1F
100
AcDbEntity
  8
0
  6
Continuous
 62
     7
370
    25
100
AcDbCircle
 10
0.629586623
 20
-1.0270199693
 30
0.0
 40
0.1059999999999993
100
AcDbArc
 50
189.7152499937
 51
258.7800853953
  0
ARC
  5
2FB
330
1F
100
AcDbEntity
  8
0
  6
Continuous
 62
     7
370
    25
100
AcDbCircle
 10
0.6206625288
 20
-0.974895407
 30
0.0
 40
0.1059999999999994
100
AcDbArc
 50
150.0
 51
189.7152499937
  0
ARC
  5
2FC
330
1F
100
AcDbEntity
  8
0
  6
Continuous
 62
     7
370
    25
100
AcDbCircle
 10
0.4373241694
 20
-0.8684467606
 30
0.0
 40
0.1059999999999992
100
AcDbArc
 50
330.0
 51
30.0
  0
ARC
  5
2FD
330
1F
100
AcDbEntity
  8
0
  6
Continuous
 62
     7
370
    25
100
AcDbCircle
 10
0.3985232979
 20
-0.8012416798
 30
0.0
 40
0.1059999999999999
100
AcDbArc
 50
30.0
 51
90.0
  0
ARC
  5
2FE
330
1F
100
AcDbEntity
  8
0
  6
Continuous
 62
     7
370
    25
100
AcDbCircle
 10
0.320921555
 20
-0.8012416798
 30
0.0
 40
0.1060000000000002
100
AcDbArc
 50
90.0
 51
150.0
  0
ARC
  5
2FF
330
1F
100
AcDbEntity
  8
0
  6
Continuous
 62
     7
370
    25
100
AcDbCircle
 10
0.2821206835
 20
-0.8684467606
 30
0.0
 40
0.1060000000000001
100
AcDbArc
 50
150.0
 51
210.0
  0
ARC
  5
300
330
1F
100
AcDbEntity
  8
0
  6
Continuous
 62
     7
370
    25
100
AcDbCircle
 10
0.3081545938
 20
-0.965538816
 30
0.0
 40
0.0800000000000008
100
AcDbArc
 50
210.0
 51
258.2659957366
  0
ARC
  5
301
330
1F
100
AcDbEntity
  8
0
  6
Continuous
 62
     7
370
    25
100
AcDbCircle
 10
0.2703280686
 20
-1.1476518413
 30
0.0
 40
0.1059999999999998
100
AcDbArc
 50
9.7152499937
 51
78.2659957366
  0
ARC
  5
302
330
1F
100
AcDbEntity
  8
0
  6
Continuous
 62
     7
370
    25
100
AcDbCircle
 10
0.2786435372
 20
-1.1962214944
 30
0.0
 40
0.1059999999999991
100
AcDbArc
 50
330.0
 51
9.7152499937
  0
ARC
  5
303
330
1F
100
AcDbEntity
  8
0
  6
Continuous
 62
     7
370
    25
100
AcDbCircle
 10
0.4319596827
 20
-1.3026701408
 30
0.0
 40
0.0800000000000001
100
AcDbArc
 50
150.0
 51
210.0
  0
ARC
  5
304
330
1F
100
AcDbEntity
  8
0
  6
Continuous
 62
     7
370
    25
100
AcDbCircle
 10
0.4857716612
 20
-1.3958752216
 30
0.0
 40
0.0800000000000003
100
AcDbArc
 50
210.0
 51
270.0
  0
ARC
  5
305
330
1F
100
AcDbEntity
  8
0
  6
Continuous
 62
     7
370
    25
100
AcDbCircle
 10
0.4979783689
 20
-1.5558752216
 30
0.0
 40
0.080000000000001
100
AcDbArc
 50
23.4299253273
 51
90.0
  0
ARC
  5
306
330
1F
100
AcDbEntity
  8
0
  6
Continuous
 62
     7
370
    25
100
AcDbCircle
 10
0.5125119636
 20
-1.5894123087
 30
0.0
 40
0.0800000000000003
100
AcDbArc
 50
287.8721111906
 51
23.4299253273
  0
ARC
  5
307
330
1F
100
AcDbEntity
  8
0
  6
Continuous
 62
     7
370
    25
100
AcDbCircle
 10
0.0
 20
0.0
 30
0.0
 40
1.749999999999972
100
AcDbArc
 50
275.3255366427
 51
287.8721111906
  0
ARC
  5
308
330
1F
100
AcDbEntity
  8
0
  6
Continuous
 62
     7
370
    25
100
AcDbCircle
 10
0.155
 20
-1.6627913279
 30
0.0
 40
0.0799999999999998
100
AcDbArc
 50
180.0
 51
275.3255366427
  0
ARC
  5
309
330
1F
100
AcDbEntity
  8
0
  6
Continuous
 62
     7
370
    25
100
AcDbCircle
 10
0.155
 20
-1.641136733
 30
0.0
 40
0.0799999999999995
100
AcDbArc
 50
133.6021774176
 51
180.0
  0
ARC
  5
30A
330
1F
100
AcDbEntity
  8
0
  6
Continuous
 62
     7
370
    25
100
AcDbCircle
 10
0.1076239569
 20
-1.41
 30
0.0
 40
0.0800000000000006
100
AcDbArc
 50
330.0
 51
30.0
  0
ARC
  5
30B
330
1F
100
AcDbEntity
  8
0
  6
Continuous
 62
     7
370
    25
100
AcDbCircle
 10
0.0538119785
 20
-1.3167949192
 30
0.0
 40
0.0800000000000007
100
AcDbArc
 50
30.0
 51
90.0
  0
ARC
  5
30C
330
1F
100
AcDbEntity
  8
0
  6
Continuous
 62
     7
370
    25
100
AcDbCircle
 10
-0.0538119785
 20
-1.3167949192
 30
0.0
 40
0.0800000000000007
100
AcDbArc
 50
90.0
 51
150.0
  0
ARC
  5
30D
330
1F
100
AcDbEntity
  8
0
  6
Continuous
 62
     7
370
    25
100
AcDbCircle
 10
-0.1076239569
 20
-1.41
 30
0.0
 40
0.0800000000000005
100
AcDbArc
 50
150.0
 51
210.0
  0
ARC
  5
30E
330
1F
100
AcDbEntity
  8
0
  6
Continuous
 62
     7
370
    25
100
AcDbCircle
 10
-0.155
 20
-1.641136733
 30
0.0
 40
0.0800000000000003
100
AcDbArc
 50
0.0
 51
46.3978225824
  0
ARC
  5
30F
330
1F
100
AcDbEntity
  8
0
  6
Continuous
 62
     7
370
    25
100
AcDbCircle
 10
-0.155
 20
-1.6627913279
 30
0.0
 40
0.0800000000000002
100
AcDbArc
 50
264.6744633573
 51
0.0
  0
ARC
  5
310
330
1F
100
AcDbEntity
  8
0
  6
Continuous
 62
     7
370
    25
100
AcDbCircle
 10
0.0
 20
0.0
 30
0.0
 40
1.750000000000026
100
AcDbArc
 50
252.1278888094
 51
264.6744633573
  0
ARC
  5
311
330
1F
100
AcDbEntity
  8
0
  6
Continuous
 62
     7
370
    25
100
AcDbCircle
 10
-0.5125119636
 20
-1.5894123087
 30
0.0
 40
0.0800000000000004
100
AcDbArc
 50
156.5700746727
 51
252.1278888094
  0
ARC
  5
312
330
1F
100
AcDbEntity
  8
0
  6
Continuous
 62
     7
370
    25
100
AcDbCircle
 10
-0.4979783689
 20
-1.5558752216
 30
0.0
 40
0.0800000000000003
100
AcDbArc
 50
90.0
 51
156.5700746727
  0
ARC
  5
313
330
1F
100
AcDbEntity
  8
0
  6
Continuous
 62
     7
370
    25
100
AcDbCircle
 10
-0.4857716612
 20
-1.3958752216
 30
0.0
 40
0.0800000000000002
100
AcDbArc
 50
270.0
 51
330.0
  0
ARC
  5
314
330
1F
100
AcDbEntity
  8
0
  6
Continuous
 62
     7
370
    25
100
AcDbCircle
 10
-0.4319596827
 20
-1.3026701408
 30
0.0
 40
0.0800000000000005
100
AcDbArc
 50
330.0
 51
30.0
  0
ARC
  5
315
330
1F
100
AcDbEntity
  8
0
  6
Continuous
 62
     7
370
    25
100
AcDbCircle
 10
-0.2786435372
 20
-1.1962214944
 30
0.0
 40
0.1060000000000003
100
AcDbArc
 50
170.2847500063
 51
210.0
  0
ARC
  5
316
330
1F
100
AcDbEntity
  8
0
  6
Continuous
 62
     7
370
    25
100
AcDbCircle
 10
-0.2703280686
 20
-1.1476518413
 30
0.0
 40
0.1060000000000006
100
AcDbArc
 50
101.7340042634
 51
170.2847500063
  0
ARC
  5
317
330
1F
100
AcDbEntity
  8
0
  6
Continuous
 62
     7
370
    25
100
AcDbCircle
 10
-0.3081545938
 20
-0.965538816
 30
0.0
 40
0.0799999999999994
100
AcDbArc
 50
281.7340042634
 51
330.0
  0
ARC
  5
318
330
1F
100
AcDbEntity
  8
0
  6
Continuous
 62
     7
370
    25
100
AcDbCircle
 10
-0.2821206835
 20
-0.8684467606
 30
0.0
 40
0.1059999999999998
100
AcDbArc
 50
330.0
 51
30.0
  0
ARC
  5
319
330
1F
100
AcDbEntity
  8
0
  6
Continuous
 62
     7
370
    25
100
AcDbCircle
 10
-0.320921555
 20
-0.8012416798
 30
0.0
 40
0.1060000000000001
100
AcDbArc
 50
30.0
 51
90.0
  0
ARC
  5
31A
330
1F
100
AcDbEntity
  8
0
  6
Continuous
 62
     7
370
    25
100
AcDbCircle
 10
-0.3985232979
 20
-0.8012416798
 30
0.0
 40
0.1060000000000001
100
AcDbArc
 50
90.0
 51
150.0
  0
ARC
  5
31B
330
1F
100
AcDbEntity
  8
0
  6
Continuous
 62
     7
370
    25
100
AcDbCircle
 10
-0.4373241694
 20
-0.8684467606
 30
0.0
 40
0.1060000000000005
100
AcDbArc
 50
150.0
 51
210.0
  0
ARC
  5
31C
330
1F
100
AcDbEntity
  8
0
  6
Continuous
 62
     7
370
    25
100
AcDbCircle
 10
-0.6206625288
 20
-0.974895407
 30
0.0
 40
0.1059999999999977
100
AcDbArc
 50
350.2847500063
 51
30.0
  0
ARC
  5
31D
330
1F
100
AcDbEntity
  8
0
  6
Continuous
 62
     7
370
    25
100
AcDbCircle
 10
-0.629586623
 20
-1.0270199693
 30
0.0
 40
0.1059999999999998
100
AcDbArc
 50
281.2199146047
 51
350.2847500063
  0
ARC
  5
31E
330
1F
100
AcDbEntity
  8
0
  6
Continuous
 62
     7
370
    25
100
AcDbCircle
 10
-0.5933956181
 20
-1.2094650601
 30
0.0
 40
0.0800000000000027
100
AcDbArc
 50
101.2199146047
 51
150.0
  0
ARC
  5
31F
330
1F
100
AcDbEntity
  8
0
  6
Continuous
 62
     7
370
    25
100
AcDbCircle
 10
-0.6472075966
 20
-1.3026701408
 30
0.0
 40
0.0800000000000009
100
AcDbArc
 50
150.0
 51
210.0
  0
ARC
  5
320
330
1F
100
AcDbEntity
  8
0
  6
Continuous
 62
     7
370
    25
100
AcDbCircle
 10
-0.7798849411
 20
-1.3928662391
 30
0.0
 40
0.0800000000000007
100
AcDbArc
 50
336.5700746727
 51
30.0
  0
ARC
  5
321
330
1F
100
AcDbEntity
  8
0
  6
Continuous
 62
     7
370
    25
100
AcDbCircle
 10
-0.8093194951
 20
-1.460788128
 30
0.0
 40
0.0800000000000002
100
AcDbArc
 50
241.012260536
 51
336.5700746727
  0
ARC
  5
322
330
1F
100
AcDbEntity
  8
0
  6
Continuous
 62
     7
370
    25
100
AcDbCircle
 10
0.0
 20
0.0
 30
0.0
 40
1.749999999999931
100
AcDbArc
 50
232.9537892272
 51
241.012260536
  0
ARC
  5
323
330
1F
100
AcDbEntity
  8
0
  6
Continuous
 62
     7
370
    25
100
AcDbCircle
 10
-1.0061064481
 20
-1.3329102802
 30
0.0
 40
0.08
100
AcDbArc
 50
152.9238543314
 51
232.9537892272
  0
ARC
  5
324
330
1F
100
AcDbEntity
  8
0
  6
Continuous
 62
     7
370
    25
100
AcDbCircle
 10
-0.9638380111
 20
-1.2502256422
 30
0.0
 40
0.0800000000000019
100
AcDbArc
 50
90.0
 51
152.9238543314
  0
ARC
  5
325
330
1F
100
AcDbEntity
  8
0
  6
Continuous
 62
     7
370
    25
100
AcDbCircle
 10
-0.943208583
 20
-1.0902256422
 30
0.0
 40
0.0800000000000006
100
AcDbArc
 50
270.0
 51
330.0
  0
ARC
  5
326
330
1F
100
AcDbEntity
  8
0
  6
Continuous
 62
     7
370
    25
100
AcDbCircle
 10
-0.8893966045
 20
-0.9970205615
 30
0.0
 40
0.0800000000000001
100
AcDbArc
 50
330.0
 51
30.0
  0
ARC
  5
327
330
1F
100
AcDbEntity
  8
0
  6
Continuous
 62
     7
370
    25
100
AcDbCircle
 10
-0.943208583
 20
-0.9038154807
 30
0.0
 40
0.0800000000000001
100
AcDbArc
 50
30.0
 51
90.0
  0
ARC
  5
328
330
1F
100
AcDbEntity
  8
0
  6
Continuous
 62
     7
370
    25
100
AcDbCircle
 10
-1.0508325399
 20
-0.9038154807
 30
0.0
 40
0.0800000000000007
100
AcDbArc
 50
90.0
 51
150.0
  0
ARC
  5
329
330
1F
100
AcDbEntity
  8
0
  6
Continuous
 62
     7
370
    25
100
AcDbCircle
 10
-1.1046445184
 20
-0.9970205615
 30
0.0
 40
0.0800000000000009
100
AcDbArc
 50
150.0
 51
210.0
  0
ARC
  5
32A
330
1F
100
AcDbEntity
  8
0
  6
Continuous
 62
     7
370
    25
100
AcDbCircle
 10
-1.2327303555
 20
-1.0951693838
 30
0.0
 40
0.0799999999999993
100
AcDbArc
 50
332.9238543314
 51
30.0
  0
ARC
  5
32B
330
1F
100
AcDbEntity
  8
0
  6
Continuous
 62
     7
370
    25
100
AcDbCircle
 10
-1.2430071753
 20
-1.1152726851
 30
0.0
 40
0.0800000000000007
100
AcDbArc
 50
221.8996458755
 51
332.9238543314
  0
ARC
  5
32C
330
1F
100
AcDbEntity
  8
0
  6
Continuous
 62
     7
370
    25
100
AcDbCircle
 10
0.0
 20
0.0
 30
0.0
 40
1.750000000000064
100
AcDbArc
 50
209.4016636867
 51
221.8996458755
  0
ARC
  5
32D
330
1F
100
AcDbEntity
  8
0
  6
Continuous
 62
     7
370
    25
100
AcDbCircle
 10
-1.4549032593
 20
-0.8198515146
 30
0.0
 40
0.08
100
AcDbArc
 50
120.0
 51
209.4016636867
  0
ARC
  5
32E
330
1F
100
AcDbEntity
  8
0
  6
Continuous
 62
     7
370
    25
100
AcDbCircle
 10
-1.4077495456
 20
-0.7926273053
 30
0.0
 40
0.0800000000000008
100
AcDbArc
 50
86.359695631
 51
120.0
  0
ARC
  5
32F
330
1F
100
AcDbEntity
  8
0
  6
Continuous
 62
     7
370
    25
100
AcDbCircle
 10
-1.2488581624
 20
-0.6327887204
 30
0.0
 40
0.0800000000000008
100
AcDbArc
 50
270.0
 51
330.0
  0
ARC
  5
330
330
1F
100
AcDbEntity
  8
0
  6
Continuous
 62
     7
370
    25
100
AcDbCircle
 10
-1.0395551578
 20
-0.6422652822
 30
0.0
 40
0.1059999999999984
100
AcDbArc
 50
92.5996456964
 51
150.0
  0
ARC
  5
331
330
1F
100
AcDbEntity
  8
0
  6
Continuous
 62
     7
370
    25
100
AcDbCircle
 10
-0.966041612
 20
-0.6389275072
 30
0.0
 40
0.1059999999999465
100
AcDbArc
 50
90.0
 51
92.5996456964
  0
ARC
  5
332
330
1F
100
AcDbEntity
  8
0
  6
Continuous
 62
     7
370
    25
100
AcDbCircle
 10
-0.8296458891
 20
-0.4269275072
 30
0.0
 40
0.1059999999999993
100
AcDbArc
 50
270.0
 51
330.0
  0
ARC
  5
333
330
1F
100
AcDbEntity
  8
0
  6
Continuous
 62
     7
370
    25
100
AcDbCircle
 10
-0.7908450176
 20
-0.3597224264
 30
0.0
 40
0.1060000000000013
100
AcDbArc
 50
330.0
 51
30.0
  0
ARC
  5
334
330
1F
100
AcDbEntity
  8
0
  6
Continuous
 62
     7
370
    25
100
AcDbCircle
 10
-0.8296458891
 20
-0.2925173457
 30
0.0
 40
0.106
100
AcDbArc
 50
30.0
 51
90.0
  0
ARC
  5
335
330
1F
100
AcDbEntity
  8
0
  6
Continuous
 62
     7
370
    25
100
AcDbCircle
 10
-0.907247632
 20
-0.2925173457
 30
0.0
 40
0.1060000000000003
100
AcDbArc
 50
90.0
 51
150.0
  0
ARC
  5
336
330
1F
100
AcDbEntity
  8
0
  6
Continuous
 62
     7
370
    25
100
AcDbCircle
 10
-1.1338516664
 20
-0.2610070464
 30
0.0
 40
0.1060000000000006
100
AcDbArc
 50
277.0537598776
 51
330.0
  0
ARC
  5
337
330
1F
100
AcDbEntity
  8
0
  6
Continuous
 62
     7
370
    25
100
AcDbCircle
 10
-1.1944705561
 20
-0.2685078522
 30
0.0
 40
0.1059999999999972
100
AcDbArc
 50
252.9979161386
 51
277.0537598776
  0
ARC
  5
338
330
1F
100
AcDbEntity
  8
0
  6
Continuous
 62
     7
370
    25
100
AcDbCircle
 10
-1.2488581624
 20
-0.4463785589
 30
0.0
 40
0.0800000000000007
100
AcDbArc
 50
72.9979161386
 51
90.0
  0
ARC
  5
339
330
1F
100
AcDbEntity
  8
0
  6
Continuous
 62
     7
370
    25
100
AcDbCircle
 10
-1.3564821193
 20
-0.4463785589
 30
0.0
 40
0.0800000000000009
100
AcDbArc
 50
90.0
 51
150.0
  0
ARC
  5
33A
330
1F
100
AcDbEntity
  8
0
  6
Continuous
 62
     7
370
    25
100
AcDbCircle
 10
-1.574352086
 20
-0.5040632407
 30
0.0
 40
0.0800000000000037
100
AcDbArc
 50
300.0
 51
333.640304369
  0
ARC
  5
33B
330
1F
100
AcDbEntity
  8
0
  6
Continuous
 62
     7
370
    25
100
AcDbCircle
 10
-1.5893453405
 20
-0.5127196003
 30
0.0
 40
0.08
100
AcDbArc
 50
197.8795963207
 51
300.0
  0
ARC
  5
33C
330
1F
100
AcDbEntity
  8
0
  6
Continuous
 62
     7
370
    25
100
AcDbCircle
 10
0.0
 20
0.0
 30
0.0
 40
1.750000000000004
100
AcDbArc
 50
185.3255366427
 51
197.8795963207
  0
ARC
  5
33D
330
1F
100
AcDbEntity
  8
0
  6
Continuous
 62
     7
370
    25
100
AcDbCircle
 10
-1.6627913279
 20
-0.155
 30
0.0
 40
0.08
100
AcDbArc
 50
90.0
 51
185.3255366427
  0
ARC
  5
33E
330
1F
100
AcDbEntity
  8
0
  6
Continuous
 62
     7
370
    25
100
AcDbCircle
 10
-1.6128867513
 20
-0.155
 30
0.0
 40
0.0800000000000012
100
AcDbArc
 50
30.0
 51
90.0
  0
ARC
  5
33F
330
1F
100
AcDbEntity
  8
0
  6
Continuous
 62
     7
370
    25
100
AcDbCircle
 10
-1.4638119785
 20
-0.0932050808
 30
0.0
 40
0.0800000000000004
100
AcDbArc
 50
210.0
 51
270.0
  0
ARC
  5
340
330
1F
100
AcDbEntity
  8
0
  6
Continuous
 62
     7
370
    25
100
AcDbCircle
 10
-1.3561880215
 20
-0.0932050808
 30
0.0
 40
0.0800000000000007
100
AcDbArc
 50
270.0
 51
330.0
  0
ARC
  5
341
330
1F
100
AcDbEntity
  8
0
  6
Continuous
 62
     7
370
    25
100
AcDbCircle
 10
-1.3023760431
 20
0.0
 30
0.0
 40
0.0799999999999994
100
AcDbArc
 50
330.0
 51
30.0
  0
ARC
  5
342
330
1F
100
AcDbEntity
  8
0
  6
Continuous
 62
     7
370
    25
100
AcDbCircle
 10
-1.3561880215
 20
0.0932050808
 30
0.0
 40
0.0800000000000003
100
AcDbArc
 50
30.0
 51
90.0
  0
ARC
  5
343
330
1F
100
AcDbEntity
  8
0
  6
Continuous
 62
     7
370
    25
100
AcDbCircle
 10
-1.4638119785
 20
0.0932050808
 30
0.0
 40
0.0800000000000008
100
AcDbArc
 50
90.0
 51
150.0
  0
ARC
  5
344
330
1F
100
AcDbEntity
  8
0
  6
Continuous
 62
     7
370
    25
100
AcDbCircle
 10
-1.6128867513
 20
0.155
 30
0.0
 40
0.0800000000000003
100
AcDbArc
 50
270.0
 51
330.0
  0
ARC
  5
345
330
1F
100
AcDbEntity
  8
0
  6
Continuous
 62
     7
370
    25
100
AcDbCircle
 10
-1.6627913279
 20
0.155
 30
0.0
 40
0.08
100
AcDbArc
 50
174.6744633573
 51
270.0
  0
ARC
  5
346
330
1F
100
AcDbEntity
  8
0
  6
Continuous
 62
     7
370
    25
100
AcDbCircle
 10
0.0
 20
0.0
 30
0.0
 40
1.749999999999975
100
AcDbArc
 50
162.1204036793
 51
174.6744633573
  0
ARC
  5
347
330
1F
100
AcDbEntity
  8
0
  6
Continuous
 62
     7
370
    25
100
AcDbCircle
 10
-1.5893453405
 20
0.5127196003
 30
0.0
 40
0.080000000000001
100
AcDbArc
 50
60.0
 51
162.1204036793
  0
ARC
  5
348
330
1F
100
AcDbEntity
  8
0
  6
Continuous
 62
     7
370
    25
100
AcDbCircle
 10
-1.574352086
 20
0.5040632407
 30
0.0
 40
0.0799999999999969
100
AcDbArc
 50
26.359695631
 51
60.0
  0
ARC
  5
349
330
1F
100
AcDbEntity
  8
0
  6
Continuous
 62
     7
370
    25
100
AcDbCircle
 10
-1.3564821193
 20
0.4463785589
 30
0.0
 40
0.0800000000000003
100
AcDbArc
 50
210.0
 51
270.0
  0
ARC
  5
34A
330
1F
100
AcDbEntity
  8
0
  6
Continuous
 62
     7
370
    25
100
AcDbCircle
 10
-1.2488581624
 20
0.4463785589
 30
0.0
 40
0.0799999999999961
100
AcDbArc
 50
270.0
 51
287.0020838614
  0
ARC
  5
34B
330
1F
100
AcDbEntity
  8
0
  6
Continuous
 62
     7
370
    25
100
AcDbCircle
 10
-1.1944705561
 20
0.2685078522
 30
0.0
 40
0.1059999999999996
100
AcDbArc
 50
82.9462401224
 51
107.0020838614
  0
ARC
  5
34C
330
1F
100
AcDbEntity
  8
0
  6
Continuous
 62
     7
370
    25
100
AcDbCircle
 10
-1.1338516664
 20
0.2610070464
 30
0.0
 40
0.106
100
AcDbArc
 50
30.0
 51
82.9462401224
  0
ARC
  5
34D
330
1F
100
AcDbEntity
  8
0
  6
Continuous
 62
     7
370
    25
100
AcDbCircle
 10
-0.907247632
 20
0.2925173457
 30
0.0
 40
0.1060000000000001
100
AcDbArc
 50
210.0
 51
270.0
  0
ARC
  5
34E
330
1F
100
AcDbEntity
  8
0
  6
Continuous
 62
     7
370
    25
100
AcDbCircle
 10
-0.8296458891
 20
0.2925173457
 30
0.0
 40
0.106
100
AcDbArc
 50
270.0
 51
330.0
  0
ARC
  5
34F
330
1F
100
AcDbEntity
  8
0
  6
Continuous
 62
     7
370
    25
100
AcDbCircle
 10
-0.7908450176
 20
0.3597224264
 30
0.0
 40
0.1060000000000006
100
AcDbArc
 50
330.0
 51
30.0
  0
ARC
  5
350
330
1F
100
AcDbEntity
  8
0
  6
Continuous
 62
     7
370
    25
100
AcDbCircle
 10
-0.8296458891
 20
0.4269275072
 30
0.0
 40
0.1059999999999998
100
AcDbArc
 50
30.0
 51
90.0
  0
ARC
  5
351
330
1F
100
AcDbEntity
  8
0
  6
Continuous
 62
     7
370
    25
100
AcDbCircle
 10
-0.966041612
 20
0.6389275072
 30
0.0
 40
0.105999999999974
100
AcDbArc
 50
267.4003543036
 51
270.0
  0
ARC
  5
352
330
1F
100
AcDbEntity
  8
0
  6
Continuous
 62
     7
370
    25
100
AcDbCircle
 10
-1.0395551578
 20
0.6422652822
 30
0.0
 40
0.1059999999999987
100
AcDbArc
 50
210.0
 51
267.4003543036
  0
ARC
  5
353
330
1F
100
AcDbEntity
  8
0
  6
Continuous
 62
     7
370
    25
100
AcDbCircle
 10
-1.2488581624
 20
0.6327887204
 30
0.0
 40
0.0799999999999997
100
AcDbArc
 50
30.0
 51
90.0
  0
ARC
  5
354
330
1F
100
AcDbEntity
  8
0
  6
Continuous
 62
     7
370
    25
100
AcDbCircle
 10
-1.4077495456
 20
0.7926273053
 30
0.0
 40
0.0799999999999981
100
AcDbArc
 50
240.0
 51
273.640304369
  0
ARC
  5
355
330
1F
100
AcDbEntity
  8
0
  6
Continuous
 62
     7
370
    25
100
AcDbCircle
 10
-1.4549032593
 20
0.8198515146
 30
0.0
 40
0.0800000000000006
100
AcDbArc
 50
150.5983363133
 51
240.0
  0
ARC
  5
356
330
1F
100
AcDbEntity
  8
0
  6
Continuous
 62
     7
370
    25
100
AcDbCircle
 10
0.0
 20
0.0
 30
0.0
 40
1.750000000000139
100
AcDbArc
 50
138.1003541245
 51
150.5983363133
  0
ARC
  5
357
330
1F
100
AcDbEntity
  8
0
  6
Continuous
 62
     7
370
    25
100
AcDbCircle
 10
-1.2430071753
 20
1.1152726851
 30
0.0
 40
0.0799999999999996
100
AcDbArc
 50
27.0761456686
 51
138.1003541245
  0
ARC
  5
358
330
1F
100
AcDbEntity
  8
0
  6
Continuous
 62
     7
370
    25
100
AcDbCircle
 10
-1.2327303555
 20
1.0951693838
 30
0.0
 40
0.0800000000000011
100
AcDbArc
 50
330.0
 51
27.0761456686
  0
ARC
  5
359
330
1F
100
AcDbEntity
  8
0
  6
Continuous
 62
     7
370
    25
100
AcDbCircle
 10
-1.1046445184
 20
0.9970205615
 30
0.0
 40
0.0800000000000011
100
AcDbArc
 50
150.0
 51
210.0
  0
ARC
  5
35A
330
1F
100
AcDbEntity
  8
0
  6
Continuous
 62
     7
370
    25
100
AcDbCircle
 10
-1.0508325399
 20
0.9038154807
 30
0.0
 40
0.0800000000000004
100
AcDbArc
 50
210.0
 51
270.0
  0
ARC
  5
35B
330
1F
100
AcDbEntity
  8
0
  6
Continuous
 62
     7
370
    25
100
AcDbCircle
 10
-0.943208583
 20
0.9038154807
 30
0.0
 40
0.0800000000000008
100
AcDbArc
 50
270.0
 51
330.0
  0
ARC
  5
35C
330
1F
100
AcDbEntity
  8
0
  6
Continuous
 62
     7
370
    25
100
AcDbCircle
 10
-0.8893966045
 20
0.9970205615
 30
0.0
 40
0.0799999999999998
100
AcDbArc
 50
330.0
 51
30.0
  0
ARC
  5
35D
330
1F
100
AcDbEntity
  8
0
  6
Continuous
 62
     7
370
    25
100
AcDbCircle
 10
-0.943208583
 20
1.0902256422
 30
0.0
 40
0.0800000000000003
100
AcDbArc
 50
30.0
 51
90.0
  0
ARC
  5
35E
330
1F
100
AcDbEntity
  8
0
  6
Continuous
 62
     7
370
    25
100
AcDbCircle
 10
-0.9638380111
 20
1.2502256422
 30
0.0
 40
0.0800000000000022
100
AcDbArc
 50
207.0761456686
 51
270.0
  0
ARC
  5
35F
330
1F
100
AcDbEntity
  8
0
  6
Continuous
 62
     7
370
    25
100
AcDbCircle
 10
-1.0061064481
 20
1.3329102802
 30
0.0
 40
0.0800000000000002
100
AcDbArc
 50
127.0462107728
 51
207.0761456686
  0
ARC
  5
360
330
1F
100
AcDbEntity
  8
0
  6
Continuous
 62
     7
370
    25
100
AcDbCircle
 10
0.0
 20
0.0
 30
0.0
 40
1.749999999999912
100
AcDbArc
 50
118.987739464
 51
127.0462107728
  0
ARC
  5
361
330
1F
100
AcDbEntity
  8
0
  6
Continuous
 62
     7
370
    25
100
AcDbCircle
 10
-0.8093194951
 20
1.460788128
 30
0.0
 40
0.0799999999999998
100
AcDbArc
 50
23.4299253273
 51
118.987739464
  0
ARC
  5
362
330
1F
100
AcDbEntity
  8
0
  6
Continuous
 62
     7
370
    25
100
AcDbCircle
 10
-0.7798849411
 20
1.3928662391
 30
0.0
 40
0.0799999999999996
100
AcDbArc
 50
330.0
 51
23.4299253273
  0
ARC
  5
363
330
1F
100
AcDbEntity
  8
0
  6
Continuous
 62
     7
370
    25
100
AcDbCircle
 10
-0.6472075966
 20
1.3026701408
 30
0.0
 40
0.0800000000000011
100
AcDbArc
 50
150.0
 51
210.0
  0
ARC
  5
364
330
1F
100
AcDbEntity
  8
0
  6
Continuous
 62
     7
370
    25
100
AcDbCircle
 10
-0.5933956181
 20
1.2094650601
 30
0.0
 40
0.0800000000000002
100
AcDbArc
 50
210.0
 51
258.7800853953
  0
ARC
  5
365
330
1F
100
AcDbEntity
  8
0
  6
Continuous
 62
     7
370
    25
100
AcDbCircle
 10
-0.629586623
 20
1.0270199693
 30
0.0
 40
0.1059999999999998
100
AcDbArc
 50
9.7152499937
 51
78.7800853953
  0
ARC
  5
366
330
1F
100
AcDbEntity
  8
0
  6
Continuous
 62
     7
370
    25
100
AcDbCircle
 10
-0.6206625288
 20
0.974895407
 30
0.0
 40
0.1060000000000004
100
AcDbArc
 50
330.0
 51
9.7152499937
  0
ARC
  5
367
330
1F
100
AcDbEntity
  8
0
  6
Continuous
 62
     7
370
    25
100
AcDbCircle
 10
-0.4373241694
 20
0.8684467606
 30
0.0
 40
0.1059999999999999
100
AcDbArc
 50
150.0
 51
210.0
  0
ARC
  5
368
330
1F
100
AcDbEntity
  8
0
  6
Continuous
 62
     7
370
    25
100
AcDbCircle
 10
-0.3985232979
 20
0.8012416798
 30
0.0
 40
0.1060000000000002
100
AcDbArc
 50
210.0
 51
270.0
  0
ARC
  5
369
330
1F
100
AcDbEntity
  8
0
  6
Continuous
 62
     7
370
    25
100
AcDbCircle
 10
-0.320921555
 20
0.8012416798
 30
0.0
 40
0.1060000000000002
100
AcDbArc
 50
270.0
 51
330.0
  0
ARC
  5
36A
330
1F
100
AcDbEntity
  8
0
  6
Continuous
 62
     7
370
    25
100
AcDbCircle
 10
-0.2821206835
 20
0.8684467606
 30
0.0
 40
0.1060000000000001
100
AcDbArc
 50
330.0
 51
30.0
  0
ARC
  5
36B
330
1F
100
AcDbEntity
  8
0
  6
Continuous
 62
     7
370
    25
100
AcDbCircle
 10
-0.3081545938
 20
0.965538816
 30
0.0
 40
0.080000000000001
100
AcDbArc
 50
30.0
 51
78.2659957366
  0
ARC
  5
36C
330
1F
100
AcDbEntity
  8
0
  6
Continuous
 62
     7
370
    25
100
AcDbCircle
 10
-0.2703280686
 20
1.1476518413
 30
0.0
 40
0.1060000000000002
100
AcDbArc
 50
189.7152499937
 51
258.2659957366
  0
ARC
  5
36D
330
1F
100
AcDbEntity
  8
0
  6
Continuous
 62
     7
370
    25
100
AcDbCircle
 10
-0.2786435372
 20
1.1962214944
 30
0.0
 40
0.1059999999999997
100
AcDbArc
 50
150.0
 51
189.7152499937
  0
ARC
  5
36E
330
1F
100
AcDbEntity
  8
0
  6
Continuous
 62
     7
370
    25
100
AcDbCircle
 10
-0.4319596827
 20
1.3026701408
 30
0.0
 40
0.0800000000000008
100
AcDbArc
 50
330.0
 51
30.0
  0
ARC
  5
36F
330
1F
100
AcDbEntity
  8
0
  6
Continuous
 62
     7
370
    25
100
AcDbCircle
 10
-0.4857716612
 20
1.3958752216
 30
0.0
 40
0.0800000000000003
100
AcDbArc
 50
30.0
 51
90.0
  0
ARC
  5
370
330
1F
100
AcDbEntity
  8
0
  6
Continuous
 62
     7
370
    25
100
AcDbCircle
 10
-0.4979783689
 20
1.5558752216
 30
0.0
 40
0.0800000000000007
100
AcDbArc
 50
203.4299253273
 51
270.0
  0
ARC
  5
371
330
1F
100
AcDbEntity
  8
0
  6
Continuous
 62
     7
370
    25
100
AcDbCircle
 10
-0.5125119636
 20
1.5894123087
 30
0.0
 40
0.08
100
AcDbArc
 50
107.8721111906
 51
203.4299253273
  0
ARC
  5
372
330
1F
100
AcDbEntity
  8
0
  6
Continuous
 62
     7
370
    25
100
AcDbCircle
 10
0.0
 20
0.0
 30
0.0
 40
1.749999999999992
100
AcDbArc
 50
95.3255366427
 51
107.8721111906
  0
ARC
  5
373
330
1F
100
AcDbEntity
  8
0
  6
Continuous
 62
     7
370
    25
100
AcDbCircle
 10
-0.155
 20
1.6627913279
 30
0.0
 40
0.0800000000000001
100
AcDbArc
 50
0.0
 51
95.3255366427
  0
ARC
  5
374
330
1F
100
AcDbEntity
  8
0
  6
Continuous
 62
     7
370
    25
100
AcDbCircle
 10
-0.155
 20
1.641136733
 30
0.0
 40
0.079999999999999
100
AcDbArc
 50
313.6021774176
 51
0.0
  0
ARC
  5
375
330
1F
100
AcDbEntity
  8
0
  6
Continuous
 62
     7
370
    25
100
AcDbCircle
 10
-0.1076239569
 20
1.41
 30
0.0
 40
0.0800000000000007
100
AcDbArc
 50
150.0
 51
210.0
  0
ARC
  5
376
330
1F
100
AcDbEntity
  8
0
  6
Continuous
 62
     7
370
    25
100
AcDbCircle
 10
-0.0538119785
 20
1.3167949192
 30
0.0
 40
0.0800000000000006
100
AcDbArc
 50
210.0
 51
270.0
  0
ARC
  5
377
330
1F
100
AcDbEntity
  8
0
  6
Continuous
 62
     7
370
    25
100
AcDbCircle
 10
0.0538119785
 20
1.3167949192
 30
0.0
 40
0.0800000000000003
100
AcDbArc
 50
270.0
 51
330.0
  0
ARC
  5
378
330
1F
100
AcDbEntity
  8
0
  6
Continuous
 62
     7
370
    25
100
AcDbCircle
 10
0.1076239569
 20
1.41
 30
0.0
 40
0.0800000000000007
100
AcDbArc
 50
330.0
 51
30.0
  0
ARC
  5
379
330
1F
100
AcDbEntity
  8
0
  6
Continuous
 62
     7
370
    25
100
AcDbCircle
 10
0.155
 20
1.641136733
 30
0.0
 40
0.0799999999999993
100
AcDbArc
 50
180.0
 51
226.3978225824
  0
ARC
  5
37A
330
1F
100
AcDbEntity
  8
0
  6
Continuous
 62
     7
370
    25
100
AcDbCircle
 10
0.155
 20
1.6627913279
 30
0.0
 40
0.0800000000000001
100
AcDbArc
 50
84.6744633573
 51
180.0
  0
ARC
  5
37B
330
1F
100
AcDbEntity
  8
0
  6
Continuous
 62
     7
370
    25
100
AcDbCircle
 10
0.0
 20
0.0
 30
0.0
 40
1.749999999999983
100
AcDbArc
 50
72.1278888094
 51
84.6744633573
  0
ARC
  5
37C
330
1F
100
AcDbEntity
  8
0
  6
Continuous
 62
     7
370
    25
100
AcDbCircle
 10
0.5125119636
 20
1.5894123087
 30
0.0
 40
0.0800000000000006
100
AcDbArc
 50
336.5700746727
 51
72.1278888094
  0
ARC
  5
37D
330
1F
100
AcDbEntity
  8
0
  6
Continuous
 62
     7
370
    25
100
AcDbCircle
 10
0.4979783689
 20
1.5558752216
 30
0.0
 40
0.0800000000000003
100
AcDbArc
 50
270.0
 51
336.5700746727
  0
ARC
  5
37E
330
1F
100
AcDbEntity
  8
0
  6
Continuous
 62
     7
370
    25
100
AcDbCircle
 10
0.4857716612
 20
1.3958752216
 30
0.0
 40
0.0800000000000006
100
AcDbArc
 50
90.0
 51
150.0
  0
ARC
  5
37F
330
1F
100
AcDbEntity
  8
0
  6
Continuous
 62
     7
370
    25
100
AcDbCircle
 10
0.4319596827
 20
1.3026701408
 30
0.0
 40
0.0800000000000001
100
AcDbArc
 50
150.0
 51
210.0
  0
ARC
  5
380
330
1F
100
AcDbEntity
  8
0
  6
Continuous
 62
     7
370
    25
100
AcDbCircle
 10
0.2786435372
 20
1.1962214944
 30
0.0
 40
0.1059999999999981
100
AcDbArc
 50
350.2847500063
 51
30.0
  0
ARC
  5
381
330
1F
100
AcDbEntity
  8
0
  6
Continuous
 62
     7
370
    25
100
AcDbCircle
 10
0.2862376253
 20
0.0
 30
0.0
 40
0.1611915469668554
100
AcDbArc
 50
18.0706789162
 51
58.4207401069
  0
ARC
  5
382
330
1F
100
AcDbEntity
  8
0
  6
Continuous
 62
     7
370
    25
100
AcDbCircle
 10
0.4439648799
 20
0.2565900643
 30
0.0
 40
0.1399999999999997
100
AcDbArc
 50
181.682664082
 51
238.4207401069
  0
ARC
  5
383
330
1F
100
AcDbEntity
  8
0
  6
Continuous
 62
     7
370
    25
100
AcDbCircle
 10
0.1430384758
 20
0.2477499075
 30
0.0
 40
0.1610562224944519
100
AcDbArc
 50
1.682664082
 51
118.3673026495
  0
ARC
  5
384
330
1F
100
AcDbEntity
  8
0
  6
Continuous
 62
     7
370
    25
100
AcDbCircle
 10
0.0
 20
0.5126552558
 30
0.0
 40
0.1399999999999999
100
AcDbArc
 50
241.6326973505
 51
298.3673026495
  0
ARC
  5
385
330
1F
100
AcDbEntity
  8
0
  6
Continuous
 62
     7
370
    25
100
AcDbCircle
 10
-0.1430384758
 20
0.2477499075
 30
0.0
 40
0.1610562224944522
100
AcDbArc
 50
61.6326973505
 51
178.3673026495
  0
ARC
  5
386
330
1F
100
AcDbEntity
  8
0
  6
Continuous
 62
     7
370
    25
100
AcDbCircle
 10
-0.4439724749
 20
0.2563276279
 30
0.0
 40
0.1399999999999992
100
AcDbArc
 50
301.6326973505
 51
358.3673026495
  0
ARC
  5
387
330
1F
100
AcDbEntity
  8
0
  6
Continuous
 62
     7
370
    25
100
AcDbCircle
 10
-0.2860769515
 20
0.0
 30
0.0
 40
0.1610562224944519
100
AcDbArc
 50
121.6326973505
 51
161.9136125103
  0
ARC
  5
388
330
1F
100
AcDbEntity
  8
0
  6
Continuous
 62
     7
370
    25
100
AcDbCircle
 10
-0.4449471661
 20
-0.2557246645
 30
0.0
 40
0.1400000000000003
100
AcDbArc
 50
1.3994285497
 51
58.1491779492
  0
ARC
  5
389
330
1F
100
AcDbEntity
  8
0
  6
Continuous
 62
     7
370
    25
100
AcDbCircle
 10
-0.1433894204
 20
-0.2483577614
 30
0.0
 40
0.1616477171602702
100
AcDbArc
 50
181.3994285497
 51
298.5505931491
  0
ARC
  5
38A
330
1F
100
AcDbEntity
  8
0
  6
Continuous
 62
     7
370
    25
100
AcDbCircle
 10
0.000778456
 20
-0.5133237378
 30
0.0
 40
0.1399999999999998
100
AcDbArc
 50
61.7973966452
 51
118.5505931491
  0
ARC
  5
38B
330
1F
100
AcDbEntity
  8
0
  6
Continuous
 62
     7
370
    25
100
AcDbCircle
 10
0.1431188126
 20
-0.247889055
 30
0.0
 40
0.1611915469668557
100
AcDbArc
 50
241.7973966452
 51
358.3707706659
  0
ARC
  5
38C
330
1F
100
AcDbEntity
  8
0
  6
Continuous
 62
     7
370
    25
100
AcDbCircle
 10
0.4441886002
 20
-0.2564524079
 30
0.0
 40
0.1400000000000003
100
AcDbArc
 50
121.6292293341
 51
178.3707706659
  0
ARC
  5
38D
330
1F
100
AcDbEntity
  8
0
  6
Continuous
 62
     7
370
    25
100
AcDbCircle
 10
0.2862376253
 20
0.0
 30
0.0
 40
0.1611915469668543
100
AcDbArc
 50
301.6292293341
 51
341.9293210838
  0
ARC
  5
38E
330
1F
100
AcDbEntity
  8
0
  6
Continuous
 62
     7
370
    25
100
AcDbCircle
 10
-0.2860769515
 20
0.0
 30
0.0
 40
0.1610562224944531
100
AcDbArc
 50
198.0863874897
 51
238.1491779492
  0
MTEXT
  5
390
330
1F
100
AcDbEntity
  8
0
  6
Continuous
 62
     7
100
AcDbMText
 10
-1.7427913279
 20
-2.7623577195
 30
0.0
 40
4.83362
 41
0.0
 71
     1
 72
     1
  1
SOLIDWORKS Educational Product.
  7
SLDTEXTSTYLE0
 73
     1
 44
1.0
  0
MTEXT
  5
391
330
1F
100
AcDbEntity
  8
0
  6
Continuous
 62
     7
100
AcDbMText
 10
-1.7427913279
 20
-10.0127877195
 30
0.0
 40
4.83362
 41
0.0
 71
     1
 72
     1
  1
For Instructional Use Only.
  7
SLDTEXTSTYLE0
 73
     1
 44
1.0
  0
ENDSEC
  0
SECTION
  2
OBJECTS
  0
DICTIONARY
  5
C
330
0
100
AcDbDictionary
281
     1
  3
ACAD_GROUP
350
D
  3
ACAD_LAYOUT
350
1A
  3
ACAD_MLINESTYLE
350
17
  3
ACAD_PLOTSETTINGS
350
19
  3
ACAD_PLOTSTYLENAME
350
E
  3
ACAD_SCALELIST
350
47
  3
DWGPROPS
350
392
  0
DICTIONARY
  5
D
102
{ACAD_REACTORS
330
C
102
}
330
C
100
AcDbDictionary
281
     1
  0
DICTIONARY
  5
1A
102
{ACAD_REACTORS
330
C
102
}
330
C
100
AcDbDictionary
281
     1
  3
Layout1
350
1E
  3
Layout2
350
26
  3
Model
350
22
  0
DICTIONARY
  5
17
102
{ACAD_REACTORS
330
C
102
}
330
C
100
AcDbDictionary
281
     1
  3
Standard
350
18
  0
DICTIONARY
  5
19
102
{ACAD_REACTORS
330
C
102
}
330
C
100
AcDbDictionary
281
     1
  0
ACDBDICTIONARYWDFLT
  5
E
102
{ACAD_REACTORS
330
C
102
}
330
C
100
AcDbDictionary
281
     1
  3
Normal
350
F
100
AcDbDictionaryWithDefault
340
F
  0
DICTIONARY
  5
47
102
{ACAD_REACTORS
330
C
102
}
330
C
100
AcDbDictionary
281
     1
  3
A0
350
48
  3
A1
350
49
  3
A2
350
4A
  3
A3
350
4B
  3
A4
350
4C
  3
A5
350
4D
  3
A6
350
4E
  3
A7
350
4F
  3
A8
350
50
  3
A9
350
51
  3
B0
350
52
  3
B1
350
53
  3
B2
350
54
  3
B3
350
55
  3
B4
350
56
  3
B5
350
57
  3
B6
350
58
  0
XRECORD
  5
392
102
{ACAD_REACTORS
330
C
102
}
330
C
100
AcDbXrecord
280
     1
  1
DWGPROPS COOKIE
  2

  3

  4

  6

  7

  8
kilia
  9

300
=
301
=
302
=
303
=
304
=
305
=
306
=
307
=
308
=
309
=
 40
0.0
 41
2461231.748398368
 42
2461231.748424306
  1

 90
        0
  0
LAYOUT
  5
1E
102
{ACAD_REACTORS
330
1A
102
}
330
1A
100
AcDbPlotSettings
  1

  2
none_device
  4

  6

 40
0.0
 41
0.0
 42
0.0
 43
0.0
 44
0.0
 45
0.0
 46
0.0
 47
0.0
 48
0.0
 49
0.0
140
0.0
141
0.0
142
1.0
143
1.0
 70
   688
 72
     1
 73
     0
 74
     5
  7

 75
    16
147
1.0
148
0.0
149
0.0
100
AcDbLayout
  1
Layout1
 70
     1
 71
     1
 10
0.0
 20
0.0
 11
420.0
 21
297.0
 12
0.0
 22
0.0
 32
0.0
 14
1.0000000000E+20
 24
1.0000000000E+20
 34
1.0000000000E+20
 15
-1.0000000000E+20
 25
-1.0000000000E+20
 35
-1.0000000000E+20
146
0.0
 13
0.0
 23
0.0
 33
0.0
 16
1.0
 26
0.0
 36
0.0
 17
0.0
 27
1.0
 37
0.0
 76
     0
330
1B
  0
LAYOUT
  5
26
102
{ACAD_REACTORS
330
1A
102
}
330
1A
100
AcDbPlotSettings
  1

  2
none_device
  4

  6

 40
0.0
 41
0.0
 42
0.0
 43
0.0
 44
0.0
 45
0.0
 46
0.0
 47
0.0
 48
0.0
 49
0.0
140
0.0
141
0.0
142
1.0
143
1.0
 70
   688
 72
     1
 73
     0
 74
     5
  7

 75
    16
147
1.0
148
0.0
149
0.0
100
AcDbLayout
  1
Layout2
 70
     1
 71
     2
 10
0.0
 20
0.0
 11
0.0
 21
0.0
 12
0.0
 22
0.0
 32
0.0
 14
0.0
 24
0.0
 34
0.0
 15
0.0
 25
0.0
 35
0.0
146
0.0
 13
0.0
 23
0.0
 33
0.0
 16
1.0
 26
0.0
 36
0.0
 17
0.0
 27
1.0
 37
0.0
 76
     0
330
23
  0
LAYOUT
  5
22
102
{ACAD_REACTORS
330
1A
102
}
330
1A
100
AcDbPlotSettings
  1

  2
none_device
  4
ANSI_A_(11.00_x_8.50_Inches)
  6

 40
6.35
 41
19.05
 42
6.35000508
 43
19.05000254
 44
279.4
 45
215.9
 46
133.34999746
 47
88.89999873
 48
0.0
 49
0.0
140
0.0
141
0.0
142
2.4142305121
143
1.0
 70
  1696
 72
     0
 73
     0
 74
     0
  7

 75
     0
147
0.0179189148
148
-1300.4909072572
149
0.0
100
AcDbLayout
  1
Model
 70
     1
 71
     0
 10
0.0
 20
0.0
 11
420.0
 21
297.0
 12
0.0
 22
0.0
 32
0.0
 14
-1.7427913279
 24
-1.7427913279
 34
0.0
 15
1.7427913279
 25
1.7427913279
 35
0.0
146
0.0
 13
0.0
 23
0.0
 33
0.0
 16
1.0
 26
0.0
 36
0.0
 17
0.0
 27
1.0
 37
0.0
 76
     0
330
1F
331
29
  0
MLINESTYLE
  5
18
102
{ACAD_REACTORS
330
17
102
}
330
17
100
AcDbMlineStyle
  2
Standard
 70
     0
  3

 62
   256
 51
90.0
 52
90.0
 71
     2
 49
0.5
 62
   256
  6
BYLAYER
 49
-0.5
 62
   256
  6
BYLAYER
  0
ACDBPLACEHOLDER
  5
F
102
{ACAD_REACTORS
330
E
102
}
330
E
  0
SCALE
  5
48
102
{ACAD_REACTORS
330
47
102
}
330
47
100
AcDbScale
 70
     0
300
1:1
140
1.0
141
1.0
290
     1
  0
SCALE
  5
49
102
{ACAD_REACTORS
330
47
102
}
330
47
100
AcDbScale
 70
     0
300
1:2
140
1.0
141
2.0
290
     0
  0
SCALE
  5
4A
102
{ACAD_REACTORS
330
47
102
}
330
47
100
AcDbScale
 70
     0
300
1:4
140
1.0
141
4.0
290
     0
  0
SCALE
  5
4B
102
{ACAD_REACTORS
330
47
102
}
330
47
100
AcDbScale
 70
     0
300
1:5
140
1.0
141
5.0
290
     0
  0
SCALE
  5
4C
102
{ACAD_REACTORS
330
47
102
}
330
47
100
AcDbScale
 70
     0
300
1:8
140
1.0
141
8.0
290
     0
  0
SCALE
  5
4D
102
{ACAD_REACTORS
330
47
102
}
330
47
100
AcDbScale
 70
     0
300
1:10
140
1.0
141
10.0
290
     0
  0
SCALE
  5
4E
102
{ACAD_REACTORS
330
47
102
}
330
47
100
AcDbScale
 70
     0
300
1:16
140
1.0
141
16.0
290
     0
  0
SCALE
  5
4F
102
{ACAD_REACTORS
330
47
102
}
330
47
100
AcDbScale
 70
     0
300
1:20
140
1.0
141
20.0
290
     0
  0
SCALE
  5
50
102
{ACAD_REACTORS
330
47
102
}
330
47
100
AcDbScale
 70
     0
300
1:30
140
1.0
141
30.0
290
     0
  0
SCALE
  5
51
102
{ACAD_REACTORS
330
47
102
}
330
47
100
AcDbScale
 70
     0
300
1:40
140
1.0
141
40.0
290
     0
  0
SCALE
  5
52
102
{ACAD_REACTORS
330
47
102
}
330
47
100
AcDbScale
 70
     0
300
1:50
140
1.0
141
50.0
290
     0
  0
SCALE
  5
53
102
{ACAD_REACTORS
330
47
102
}
330
47
100
AcDbScale
 70
     0
300
1:100
140
1.0
141
100.0
290
     0
  0
SCALE
  5
54
102
{ACAD_REACTORS
330
47
102
}
330
47
100
AcDbScale
 70
     0
300
2:1
140
2.0
141
1.0
290
     0
  0
SCALE
  5
55
102
{ACAD_REACTORS
330
47
102
}
330
47
100
AcDbScale
 70
     0
300
4:1
140
4.0
141
1.0
290
     0
  0
SCALE
  5
56
102
{ACAD_REACTORS
330
47
102
}
330
47
100
AcDbScale
 70
     0
300
8:1
140
8.0
141
1.0
290
     0
  0
SCALE
  5
57
102
{ACAD_REACTORS
330
47
102
}
330
47
100
AcDbScale
 70
     0
300
10:1
140
10.0
141
1.0
290
     0
  0
SCALE
  5
58
102
{ACAD_REACTORS
330
47
102
}
330
47
100
AcDbScale
 70
     0
300
100:1
140
100.0
141
1.0
290
     0
  0
ENDSEC
  0
EOF
