  0
SECTION
  2
HEADER
  9
$ACADVER
  1
AC1024
  9
$ACADMAINTVER
 70
6
  9
$DWGCODEPAGE
  3
ANSI_1252
  9
$LASTSAVEDBY
  1
ezdxf
  9
$INSBASE
 10
0.0
 20
0.0
 30
0.0
  9
$EXTMIN
 10
1e+20
 20
1e+20
 30
1e+20
  9
$EXTMAX
 10
-1e+20
 20
-1e+20
 30
-1e+20
  9
$LIMMIN
 10
0.0
 20
0.0
  9
$LIMMAX
 10
420.0
 20
297.0
  9
$ORTHOMODE
 70
0
  9
$REGENMODE
 70
1
  9
$FILLMODE
 70
1
  9
$QTEXTMODE
 70
0
  9
$MIRRTEXT
 70
1
  9
$LTSCALE
 40
1.0
  9
$ATTMODE
 70
1
  9
$TEXTSIZE
 40
2.5
  9
$TRACEWID
 40
1.0
  9
$TEXTSTYLE
  7
Standard
  9
$CLAYER
  8
0
  9
$CELTYPE
  6
ByLayer
  9
$CECOLOR
 62
256
  9
$CELTSCALE
 40
1.0
  9
$DISPSILH
 70
0
  9
$DIMSCALE
 40
1.0
  9
$DIMASZ
 40
2.5
  9
$DIMEXO
 40
0.625
  9
$DIMDLI
 40
3.75
  9
$DIMRND
 40
0.0
  9
$DIMDLE
 40
0.0
  9
$DIMEXE
 40
1.25
  9
$DIMTP
 40
0.0
  9
$DIMTM
 40
0.0
  9
$DIMTXT
 40
2.5
  9
$DIMCEN
 40
2.5
  9
$DIMTSZ
 40
0.0
  9
$DIMTOL
 70
0
  9
$DIMLIM
 70
0
  9
$DIMTIH
 70
0
  9
$DIMTOH
 70
0
  9
$DIMSE1
 70
0
  9
$DIMSE2
 70
0
  9
$DIMTAD
 70
1
  9
$DIMZIN
 70
8
  9
$DIMBLK
  1

  9
$DIMASO
 70
1
  9
$DIMSHO
 70
1
  9
$DIMPOST
  1

  9
$DIMAPOST
  1

  9
$DIMALT
 70
0
  9
$DIMALTD
 70
3
  9
$DIMALTF
 40
0.03937007874
  9
$DIMLFAC
 40
1.0
  9
$DIMTOFL
 70
1
  9
$DIMTVP
 40
0.0
  9
$DIMTIX
 70
0
  9
$DIMSOXD
 70
0
  9
$DIMSAH
 70
0
  9
$DIMBLK1
  1

  9
$DIMBLK2
  1

  9
$DIMSTYLE
  2
ISO-25
  9
$DIMCLRD
 70
0
  9
$DIMCLRE
 70
0
  9
$DIMCLRT
 70
0
  9
$DIMTFAC
 40
1.0
  9
$DIMGAP
 40
0.625
  9
$DIMJUST
 70
0
  9
$DIMSD1
 70
0
  9
$DIMSD2
 70
0
  9
$DIMTOLJ
 70
0
  9
$DIMTZIN
 70
8
  9
$DIMALTZ
 70
0
  9
$DIMALTTZ
 70
0
  9
$DIMUPT
 70
0
  9
$DIMDEC
 70
2
  9
$DIMTDEC
 70
2
  9
$DIMALTU
 70
2
  9
$DIMALTTD
 70
3
  9
$DIMTXSTY
  7
Standard
  9
$DIMAUNIT
 70
0
  9
$DIMADEC
 70
0
  9
$DIMALTRND
 40
0.0
  9
$DIMAZIN
 70
0
  9
$DIMDSEP
 70
44
  9
$DIMATFIT
 70
3
  9
$DIMFRAC
 70
0
  9
$DIMLDRBLK
  1

  9
$DIMLUNIT
 70
2
  9
$DIMLWD
 70
-2
  9
$DIMLWE
 70
-2
  9
$DIMTMOVE
 70
0
  9
$DIMFXL
 40
1.0
  9
$DIMFXLON
 70
0
  9
$DIMJOGANG
 40
0.785398163397
  9
$DIMTFILL
 70
0
  9
$DIMTFILLCLR
 70
0
  9
$DIMARCSYM
 70
0
  9
$DIMLTYPE
  6

  9
$DIMLTEX1
  6

  9
$DIMLTEX2
  6

  9
$DIMTXTDIRECTION
 70
0
  9
$LUNITS
 70
2
  9
$LUPREC
 70
4
  9
$SKETCHINC
 40
1.0
  9
$FILLETRAD
 40
10.0
  9
$AUNITS
 70
0
  9
$AUPREC
 70
2
  9
$MENU
  1
.
  9
$ELEVATION
 40
0.0
  9
$PELEVATION
 40
0.0
  9
$THICKNESS
 40
0.0
  9
$LIMCHECK
 70
0
  9
$CHAMFERA
 40
0.0
  9
$CHAMFERB
 40
0.0
  9
$CHAMFERC
 40
0.0
  9
$CHAMFERD
 40
0.0
  9
$SKPOLY
 70
0
  9
$TDCREATE
 40
2461188.5574768516
  9
$TDUCREATE
 40
2458532.153996898
  9
$TDUPDATE
 40
2461188.5574768516
  9
$TDUUPDATE
 40
2458532.1544311
  9
$TDINDWG
 40
0.0
  9
$TDUSRTIMER
 40
0.0
  9
$USRTIMER
 70
1
  9
$ANGBASE
 50
0.0
  9
$ANGDIR
 70
0
  9
$PDMODE
 70
0
  9
$PDSIZE
 40
0.0
  9
$PLINEWID
 40
0.0
  9
$SPLFRAME
 70
0
  9
$SPLINETYPE
 70
6
  9
$SPLINESEGS
 70
8
  9
$HANDSEED
  5
100
  9
$SURFTAB1
 70
6
  9
$SURFTAB2
 70
6
  9
$SURFTYPE
 70
6
  9
$SURFU
 70
6
  9
$SURFV
 70
6
  9
$UCSBASE
  2

  9
$UCSNAME
  2

  9
$UCSORG
 10
0.0
 20
0.0
 30
0.0
  9
$UCSXDIR
 10
1.0
 20
0.0
 30
0.0
  9
$UCSYDIR
 10
0.0
 20
1.0
 30
0.0
  9
$UCSORTHOREF
  2

  9
$UCSORTHOVIEW
 70
0
  9
$UCSORGTOP
 10
0.0
 20
0.0
 30
0.0
  9
$UCSORGBOTTOM
 10
0.0
 20
0.0
 30
0.0
  9
$UCSORGLEFT
 10
0.0
 20
0.0
 30
0.0
  9
$UCSORGRIGHT
 10
0.0
 20
0.0
 30
0.0
  9
$UCSORGFRONT
 10
0.0
 20
0.0
 30
0.0
  9
$UCSORGBACK
 10
0.0
 20
0.0
 30
0.0
  9
$PUCSBASE
  2

  9
$PUCSNAME
  2

  9
$PUCSORG
 10
0.0
 20
0.0
 30
0.0
  9
$PUCSXDIR
 10
1.0
 20
0.0
 30
0.0
  9
$PUCSYDIR
 10
0.0
 20
1.0
 30
0.0
  9
$PUCSORTHOREF
  2

  9
$PUCSORTHOVIEW
 70
0
  9
$PUCSORGTOP
 10
0.0
 20
0.0
 30
0.0
  9
$PUCSORGBOTTOM
 10
0.0
 20
0.0
 30
0.0
  9
$PUCSORGLEFT
 10
0.0
 20
0.0
 30
0.0
  9
$PUCSORGRIGHT
 10
0.0
 20
0.0
 30
0.0
  9
$PUCSORGFRONT
 10
0.0
 20
0.0
 30
0.0
  9
$PUCSORGBACK
 10
0.0
 20
0.0
 30
0.0
  9
$USERI1
 70
0
  9
$USERI2
 70
0
  9
$USERI3
 70
0
  9
$USERI4
 70
0
  9
$USERI5
 70
0
  9
$USERR1
 40
0.0
  9
$USERR2
 40
0.0
  9
$USERR3
 40
0.0
  9
$USERR4
 40
0.0
  9
$USERR5
 40
0.0
  9
$WORLDVIEW
 70
1
  9
$SHADEDGE
 70
3
  9
$SHADEDIF
 70
70
  9
$TILEMODE
 70
1
  9
$MAXACTVP
 70
64
  9
$PINSBASE
 10
0.0
 20
0.0
 30
0.0
  9
$PLIMCHECK
 70
0
  9
$PEXTMIN
 10
1e+20
 20
1e+20
 30
1e+20
  9
$PEXTMAX
 10
-1e+20
 20
-1e+20
 30
-1e+20
  9
$PLIMMIN
 10
0.0
 20
0.0
  9
$PLIMMAX
 10
420.0
 20
297.0
  9
$UNITMODE
 70
0
  9
$VISRETAIN
 70
1
  9
$PLINEGEN
 70
0
  9
$PSLTSCALE
 70
1
  9
$TREEDEPTH
 70
3020
  9
$CMLSTYLE
  2
Standard
  9
$CMLJUST
 70
0
  9
$CMLSCALE
 40
20.0
  9
$PROXYGRAPHICS
 70
1
  9
$MEASUREMENT
 70
1
  9
$CELWEIGHT
370
-1
  9
$ENDCAPS
280
0
  9
$JOINSTYLE
280
0
  9
$LWDISPLAY
290
0
  9
$INSUNITS
 70
6
  9
$HYPERLINKBASE
  1

  9
$STYLESHEET
  1

  9
$XEDIT
290
1
  9
$CEPSNTYPE
380
0
  9
$PSTYLEMODE
290
1
  9
$FINGERPRINTGUID
  2
{E41A8558-CFAF-455D-B560-0150C2A300A0}
  9
$VERSIONGUID
  2
{FF2F6F1E-073A-4999-A201-2F806930ADF5}
  9
$EXTNAMES
290
1
  9
$PSVPSCALE
 40
0.0
  9
$OLESTARTUP
290
0
  9
$SORTENTS
280
127
  9
$INDEXCTL
280
0
  9
$HIDETEXT
280
1
  9
$XCLIPFRAME
280
1
  9
$HALOGAP
280
0
  9
$OBSCOLOR
 70
257
  9
$OBSLTYPE
280
0
  9
$INTERSECTIONDISPLAY
280
0
  9
$INTERSECTIONCOLOR
 70
257
  9
$DIMASSOC
280
2
  9
$PROJECTNAME
  1

  9
$CAMERADISPLAY
290
0
  9
$LENSLENGTH
 40
50.0
  9
$CAMERAHEIGHT
 40
0.0
  9
$STEPSPERSEC
 40
24.0
  9
$STEPSIZE
 40
100.0
  9
$3DDWFPREC
 40
2.0
  9
$PSOLWIDTH
 40
0.005
  9
$PSOLHEIGHT
 40
0.08
  9
$LOFTANG1
 40
1.570796326795
  9
$LOFTANG2
 40
1.570796326795
  9
$LOFTMAG1
 40
0.0
  9
$LOFTMAG2
 40
0.0
  9
$LOFTPARAM
 70
7
  9
$LOFTNORMALS
280
1
  9
$LATITUDE
 40
37.795
  9
$LONGITUDE
 40
-122.394
  9
$NORTHDIRECTION
 40
0.0
  9
$TIMEZONE
 70
-8000
  9
$LIGHTGLYPHDISPLAY
280
1
  9
$TILEMODELIGHTSYNCH
280
1
  9
$CMATERIAL
347
20
  9
$SOLIDHIST
280
0
  9
$SHOWHIST
280
1
  9
$DWFFRAME
280
2
  9
$DGNFRAME
280
2
  9
$REALWORLDSCALE
290
1
  9
$INTERFERECOLOR
 62
256
  9
$CSHADOW
280
0
  9
$SHADOWPLANELOCATION
 40
0.0
  0
ENDSEC
  0
SECTION
  2
CLASSES
  0
CLASS
  1
ACDBDICTIONARYWDFLT
  2
AcDbDictionaryWithDefault
  3
ObjectDBX Classes
 90
0
 91
0
280
0
281
0
  0
CLASS
  1
SUN
  2
AcDbSun
  3
SCENEOE
 90
1153
 91
0
280
0
281
0
  0
CLASS
  1
VISUALSTYLE
  2
AcDbVisualStyle
  3
ObjectDBX Classes
 90
4095
 91
0
280
0
281
0
  0
CLASS
  1
MATERIAL
  2
AcDbMaterial
  3
ObjectDBX Classes
 90
1153
 91
0
280
0
281
0
  0
CLASS
  1
SCALE
  2
AcDbScale
  3
ObjectDBX Classes
 90
1153
 91
0
280
0
281
0
  0
CLASS
  1
TABLESTYLE
  2
AcDbTableStyle
  3
ObjectDBX Classes
 90
4095
 91
0
280
0
281
0
  0
CLASS
  1
MLEADERSTYLE
  2
AcDbMLeaderStyle
  3
ACDB_MLEADERSTYLE_CLASS
 90
4095
 91
0
280
0
281
0
  0
CLASS
  1
DICTIONARYVAR
  2
AcDbDictionaryVar
  3
ObjectDBX Classes
 90
0
 91
0
280
0
281
0
  0
CLASS
  1
CELLSTYLEMAP
  2
AcDbCellStyleMap
  3
ObjectDBX Classes
 90
1152
 91
0
280
0
281
0
  0
CLASS
  1
MENTALRAYRENDERSETTINGS
  2
AcDbMentalRayRenderSettings
  3
SCENEOE
 90
1024
 91
0
280
0
281
0
  0
CLASS
  1
ACDBDETAILVIEWSTYLE
  2
AcDbDetailViewStyle
  3
ObjectDBX Classes
 90
1025
 91
0
280
0
281
0
  0
CLASS
  1
ACDBSECTIONVIEWSTYLE
  2
AcDbSectionViewStyle
  3
ObjectDBX Classes
 90
1025
 91
0
280
0
281
0
  0
CLASS
  1
RASTERVARIABLES
  2
AcDbRasterVariables
  3
ISM
 90
0
 91
0
280
0
281
0
  0
CLASS
  1
ACDBPLACEHOLDER
  2
AcDbPlaceHolder
  3
ObjectDBX Classes
 90
0
 91
0
280
0
281
0
  0
CLASS
  1
LAYOUT
  2
AcDbLayout
  3
ObjectDBX Classes
 90
0
 91
0
280
0
281
0
  0
ENDSEC
  0
SECTION
  2
TABLES
  0
TABLE
  2
VPORT
  5
8
330
0
100
AcDbSymbolTable
 70
1
  0
VPORT
  5
23
330
8
100
AcDbSymbolTableRecord
100
AcDbViewportTableRecord
  2
*Active
 70
0
 10
0.0
 20
0.0
 11
1.0
 21
1.0
 12
0.0
 22
0.0
 13
0.0
 23
0.0
 14
0.5
 24
0.5
 15
0.5
 25
0.5
 16
0.0
 26
0.0
 36
1.0
 17
0.0
 27
0.0
 37
0.0
 40
1000.0
 41
1.34
 42
50.0
 43
0.0
 44
0.0
 50
0.0
 51
0.0
 71
0
 72
1000
 73
1
 74
3
 75
0
 76
0
 77
0
 78
0
281
0
 65
0
146
0.0
  0
ENDTAB
  0
TABLE
  2
LTYPE
  5
2
330
0
100
AcDbSymbolTable
 70
3
  0
LTYPE
  5
24
330
2
100
AcDbSymbolTableRecord
100
AcDbLinetypeTableRecord
  2
ByBlock
 70
0
  3

 72
65
 73
0
 40
0.0
  0
LTYPE
  5
25
330
2
100
AcDbSymbolTableRecord
100
AcDbLinetypeTableRecord
  2
ByLayer
 70
0
  3

 72
65
 73
0
 40
0.0
  0
LTYPE
  5
26
330
2
100
AcDbSymbolTableRecord
100
AcDbLinetypeTableRecord
  2
Continuous
 70
0
  3

 72
65
 73
0
 40
0.0
  0
ENDTAB
  0
TABLE
  2
LAYER
  5
1
330
0
100
AcDbSymbolTable
 70
4
  0
LAYER
  5
27
330
1
100
AcDbSymbolTableRecord
100
AcDbLayerTableRecord
  2
0
 70
0
 62
7
  6
Continuous
370
-3
390
13
347
21
  0
LAYER
  5
28
330
1
100
AcDbSymbolTableRecord
100
AcDbLayerTableRecord
  2
Defpoints
 70
0
 62
7
  6
Continuous
290
0
370
-3
390
13
347
21
  0
LAYER
  5
2F
330
1
100
AcDbSymbolTableRecord
100
AcDbLayerTableRecord
  2
INSIDE
 70
0
 62
5
  6
Continuous
370
-3
390
13
347
21
  0
LAYER
  5
30
330
1
100
AcDbSymbolTableRecord
100
AcDbLayerTableRecord
  2
OUTSIDE
 70
0
 62
7
  6
Continuous
370
-3
390
13
347
21
  0
ENDTAB
  0
TABLE
  2
STYLE
  5
5
330
0
100
AcDbSymbolTable
 70
1
  0
STYLE
  5
29
330
5
100
AcDbSymbolTableRecord
100
AcDbTextStyleTableRecord
  2
Standard
 70
0
 40
0.0
 41
1.0
 50
0.0
 71
0
 42
2.5
  3
txt
  4

  0
ENDTAB
  0
TABLE
  2
VIEW
  5
7
330
0
100
AcDbSymbolTable
 70
0
  0
ENDTAB
  0
TABLE
  2
UCS
  5
6
330
0
100
AcDbSymbolTable
 70
0
  0
ENDTAB
  0
TABLE
  2
APPID
  5
3
330
0
100
AcDbSymbolTable
 70
3
  0
APPID
  5
2A
330
3
100
AcDbSymbolTableRecord
100
AcDbRegAppTableRecord
  2
ACAD
 70
0
  0
APPID
  5
FD
330
3
100
AcDbSymbolTableRecord
100
AcDbRegAppTableRecord
  2
HATCHBACKGROUNDCOLOR
 70
0
  0
APPID
  5
FE
330
3
100
AcDbSymbolTableRecord
100
AcDbRegAppTableRecord
  2
EZDXF
 70
0
  0
ENDTAB
  0
TABLE
  2
DIMSTYLE
  5
4
330
0
100
AcDbSymbolTable
 70
1
100
AcDbDimStyleTable
  0
DIMSTYLE
105
2B
330
4
100
AcDbSymbolTableRecord
100
AcDbDimStyleTableRecord
  2
Standard
 70
0
 40
1.0
 41
2.5
 42
0.625
 43
3.75
 44
1.25
 45
0.0
 46
0.0
 47
0.0
 48
0.0
 49
2.5
140
2.5
141
2.5
142
0.0
143
0.03937007874
144
1.0
145
0.0
146
1.0
147
0.625
148
0.0
 69
0
 70
0
 71
0
 72
0
 73
0
 74
0
 75
0
 76
0
 77
1
 78
8
 79
3
170
0
171
3
172
1
173
0
174
0
175
0
176
0
177
0
178
0
179
2
271
2
272
2
273
2
274
3
275
0
276
0
277
2
278
44
279
0
280
0
281
0
282
0
283
0
284
8
285
0
286
0
288
0
289
3
290
0
371
-2
372
-2
  0
ENDTAB
  0
TABLE
  2
BLOCK_RECORD
  5
9
330
0
100
AcDbSymbolTable
 70
2
  0
BLOCK_RECORD
  5
17
330
9
100
AcDbSymbolTableRecord
100
AcDbBlockTableRecord
  2
*Model_Space
340
1A
 70
0
280
1
281
0
  0
BLOCK_RECORD
  5
1B
330
9
100
AcDbSymbolTableRecord
100
AcDbBlockTableRecord
  2
*Paper_Space
340
1E
 70
0
280
1
281
0
  0
ENDTAB
  0
ENDSEC
  0
SECTION
  2
BLOCKS
  0
BLOCK
  5
18
330
17
100
AcDbEntity
  8
0
100
AcDbBlockBegin
  2
*Model_Space
 70
0
 10
0.0
 20
0.0
 30
0.0
  3
*Model_Space
  1

  0
ENDBLK
  5
19
330
17
100
AcDbEntity
  8
0
100
AcDbBlockEnd
  0
BLOCK
  5
1C
330
1B
100
AcDbEntity
  8
0
100
AcDbBlockBegin
  2
*Paper_Space
 70
0
 10
0.0
 20
0.0
 30
0.0
  3
*Paper_Space
  1

  0
ENDBLK
  5
1D
330
1B
100
AcDbEntity
  8
0
100
AcDbBlockEnd
  0
ENDSEC
  0
SECTION
  2
ENTITIES
  0
LINE
  5
31
330
17
100
AcDbEntity
  8
INSIDE
 62
5
100
AcDbLine
 10
0.8773239544735163
 20
-0.0625
 30
0.0
 11
1.76
 21
-0.0625
 31
0.0
  0
LINE
  5
32
330
17
100
AcDbEntity
  8
INSIDE
 62
5
100
AcDbLine
 10
0.8773239544735163
 20
-0.012499999999999997
 30
0.0
 11
1.76
 21
-0.012499999999999997
 31
0.0
  0
LINE
  5
33
330
17
100
AcDbEntity
  8
INSIDE
 62
5
100
AcDbLine
 10
0.8773239544735163
 20
0.037500000000000006
 30
0.0
 11
1.76
 21
0.037500000000000006
 31
0.0
  0
LINE
  5
34
330
17
100
AcDbEntity
  8
INSIDE
 62
5
100
AcDbLine
 10
0.8773239544735163
 20
-0.0375
 30
0.0
 11
1.76
 21
-0.0375
 31
0.0
  0
LINE
  5
35
330
17
100
AcDbEntity
  8
INSIDE
 62
5
100
AcDbLine
 10
0.8773239544735163
 20
0.012500000000000011
 30
0.0
 11
1.76
 21
0.012500000000000011
 31
0.0
  0
LINE
  5
36
330
17
100
AcDbEntity
  8
INSIDE
 62
5
100
AcDbLine
 10
0.8773239544735163
 20
0.0625
 30
0.0
 11
1.76
 21
0.0625
 31
0.0
  0
LINE
  5
37
330
17
100
AcDbEntity
  8
INSIDE
 62
5
100
AcDbLine
 10
0.8773239544735163
 20
-0.0625
 30
0.0
 11
0.8773239544735163
 21
0.0625
 31
0.0
  0
LINE
  5
38
330
17
100
AcDbEntity
  8
INSIDE
 62
5
100
AcDbLine
 10
0.9273239544735163
 20
-0.0625
 30
0.0
 11
0.9273239544735163
 21
0.0625
 31
0.0
  0
LINE
  5
39
330
17
100
AcDbEntity
  8
INSIDE
 62
5
100
AcDbLine
 10
0.9773239544735163
 20
-0.0625
 30
0.0
 11
0.9773239544735163
 21
0.0625
 31
0.0
  0
LINE
  5
3A
330
17
100
AcDbEntity
  8
INSIDE
 62
5
100
AcDbLine
 10
0.9023239544735163
 20
-0.0625
 30
0.0
 11
0.9023239544735163
 21
0.0625
 31
0.0
  0
LINE
  5
3B
330
17
100
AcDbEntity
  8
INSIDE
 62
5
100
AcDbLine
 10
0.9523239544735163
 20
-0.0625
 30
0.0
 11
0.9523239544735163
 21
0.0625
 31
0.0
  0
LINE
  5
3C
330
17
100
AcDbEntity
  8
INSIDE
 62
5
100
AcDbLine
 10
1.0023239544735163
 20
-0.0625
 30
0.0
 11
1.0023239544735163
 21
0.0625
 31
0.0
  0
LINE
  5
3D
330
17
100
AcDbEntity
  8
INSIDE
 62
5
100
AcDbLine
 10
0.8344593594427637
 20
0.27799487141208357
 30
0.0
 11
1.649945691742683
 21
0.6157803701806026
 31
0.0
  0
LINE
  5
3E
330
17
100
AcDbEntity
  8
INSIDE
 62
5
100
AcDbLine
 10
0.8153251878245092
 20
0.3241888480376479
 30
0.0
 11
1.6308115201244284
 21
0.661974346806167
 31
0.0
  0
LINE
  5
3F
330
17
100
AcDbEntity
  8
INSIDE
 62
5
100
AcDbLine
 10
0.7961910162062548
 20
0.37038282466321226
 30
0.0
 11
1.6116773485061737
 21
0.7081683234317313
 31
0.0
  0
LINE
  5
40
330
17
100
AcDbEntity
  8
INSIDE
 62
5
100
AcDbLine
 10
0.8248922736336365
 20
0.30109185972486574
 30
0.0
 11
1.6403786059335557
 21
0.6388773584933848
 31
0.0
  0
LINE
  5
41
330
17
100
AcDbEntity
  8
INSIDE
 62
5
100
AcDbLine
 10
0.805758102015382
 20
0.3472858363504301
 30
0.0
 11
1.621244434315301
 21
0.6850713351189491
 31
0.0
  0
LINE
  5
42
330
17
100
AcDbEntity
  8
INSIDE
 62
5
100
AcDbLine
 10
0.7866239303971275
 20
0.39347981297599444
 30
0.0
 11
1.6021102626970465
 21
0.7312653117445134
 31
0.0
  0
LINE
  5
43
330
17
100
AcDbEntity
  8
INSIDE
 62
5
100
AcDbLine
 10
0.8344593594427637
 20
0.27799487141208357
 30
0.0
 11
0.7866239303971275
 21
0.39347981297599444
 31
0.0
  0
LINE
  5
44
330
17
100
AcDbEntity
  8
INSIDE
 62
5
100
AcDbLine
 10
0.8806533360683281
 20
0.29712904303033805
 30
0.0
 11
0.8328179070226919
 21
0.4126139845942489
 31
0.0
  0
LINE
  5
45
330
17
100
AcDbEntity
  8
INSIDE
 62
5
100
AcDbLine
 10
0.9268473126938924
 20
0.3162632146485925
 30
0.0
 11
0.8790118836482562
 21
0.4317481562125034
 31
0.0
  0
LINE
  5
46
330
17
100
AcDbEntity
  8
INSIDE
 62
5
100
AcDbLine
 10
0.8575563477555459
 20
0.2875619572212108
 30
0.0
 11
0.8097209187099097
 21
0.4030468987851217
 31
0.0
  0
LINE
  5
47
330
17
100
AcDbEntity
  8
INSIDE
 62
5
100
AcDbLine
 10
0.9037503243811102
 20
0.3066961288394653
 30
0.0
 11
0.855914895335474
 21
0.42218107040337616
 31
0.0
  0
LINE
  5
48
330
17
100
AcDbEntity
  8
INSIDE
 62
5
100
AcDbLine
 10
0.9499443010066746
 20
0.32583030045771977
 30
0.0
 11
0.9021088719610384
 21
0.44131524202163064
 31
0.0
  0
LINE
  5
49
330
17
100
AcDbEntity
  8
INSIDE
 62
5
100
AcDbLine
 10
0.6645558913297805
 20
0.576167543681462
 30
0.0
 11
1.2887021087124828
 21
1.2003137610641643
 31
0.0
  0
LINE
  5
4A
330
17
100
AcDbEntity
  8
INSIDE
 62
5
100
AcDbLine
 10
0.6292005522704531
 20
0.6115228827407894
 30
0.0
 11
1.2533467696531555
 21
1.2356691001234916
 31
0.0
  0
LINE
  5
4B
330
17
100
AcDbEntity
  8
INSIDE
 62
5
100
AcDbLine
 10
0.5938452132111258
 20
0.6468782218001168
 30
0.0
 11
1.2179914305938282
 21
1.271024439182819
 31
0.0
  0
LINE
  5
4C
330
17
100
AcDbEntity
  8
INSIDE
 62
5
100
AcDbLine
 10
0.6468782218001168
 20
0.5938452132111257
 30
0.0
 11
1.2710244391828192
 21
1.217991430593828
 31
0.0
  0
LINE
  5
4D
330
17
100
AcDbEntity
  8
INSIDE
 62
5
100
AcDbLine
 10
0.6115228827407895
 20
0.629200552270453
 30
0.0
 11
1.2356691001234918
 21
1.2533467696531553
 31
0.0
  0
LINE
  5
4E
330
17
100
AcDbEntity
  8
INSIDE
 62
5
100
AcDbLine
 10
0.5761675436814621
 20
0.6645558913297804
 30
0.0
 11
1.2003137610641645
 21
1.2887021087124826
 31
0.0
  0
LINE
  5
4F
330
17
100
AcDbEntity
  8
INSIDE
 62
5
100
AcDbLine
 10
0.6645558913297805
 20
0.576167543681462
 30
0.0
 11
0.5761675436814621
 21
0.6645558913297804
 31
0.0
  0
LINE
  5
50
330
17
100
AcDbEntity
  8
INSIDE
 62
5
100
AcDbLine
 10
0.699911230389108
 20
0.6115228827407894
 30
0.0
 11
0.6115228827407895
 21
0.6999112303891079
 31
0.0
  0
LINE
  5
51
330
17
100
AcDbEntity
  8
INSIDE
 62
5
100
AcDbLine
 10
0.7352665694484353
 20
0.6468782218001167
 30
0.0
 11
0.6468782218001168
 21
0.7352665694484352
 31
0.0
  0
LINE
  5
52
330
17
100
AcDbEntity
  8
INSIDE
 62
5
100
AcDbLine
 10
0.6822335608594443
 20
0.5938452132111257
 30
0.0
 11
0.5938452132111258
 21
0.6822335608594442
 31
0.0
  0
LINE
  5
53
330
17
100
AcDbEntity
  8
INSIDE
 62
5
100
AcDbLine
 10
0.7175888999187716
 20
0.629200552270453
 30
0.0
 11
0.6292005522704531
 21
0.7175888999187715
 31
0.0
  0
LINE
  5
54
330
17
100
AcDbEntity
  8
INSIDE
 62
5
100
AcDbLine
 10
0.752944238978099
 20
0.6645558913297804
 30
0.0
 11
0.6645558913297805
 21
0.7529442389780989
 31
0.0
  0
LINE
  5
55
330
17
100
AcDbEntity
  8
INSIDE
 62
5
100
AcDbLine
 10
0.3934798129759945
 20
0.7866239303971275
 30
0.0
 11
0.7312653117445135
 21
1.6021102626970465
 31
0.0
  0
LINE
  5
56
330
17
100
AcDbEntity
  8
INSIDE
 62
5
100
AcDbLine
 10
0.34728583635043014
 20
0.805758102015382
 30
0.0
 11
0.6850713351189491
 21
1.621244434315301
 31
0.0
  0
LINE
  5
57
330
17
100
AcDbEntity
  8
INSIDE
 62
5
100
AcDbLine
 10
0.3010918597248658
 20
0.8248922736336365
 30
0.0
 11
0.6388773584933849
 21
1.6403786059335557
 31
0.0
  0
LINE
  5
58
330
17
100
AcDbEntity
  8
INSIDE
 62
5
100
AcDbLine
 10
0.3703828246632123
 20
0.7961910162062548
 30
0.0
 11
0.7081683234317313
 21
1.6116773485061737
 31
0.0
  0
LINE
  5
59
330
17
100
AcDbEntity
  8
INSIDE
 62
5
100
AcDbLine
 10
0.32418884803764797
 20
0.8153251878245092
 30
0.0
 11
0.661974346806167
 21
1.6308115201244284
 31
0.0
  0
LINE
  5
5A
330
17
100
AcDbEntity
  8
INSIDE
 62
5
100
AcDbLine
 10
0.2779948714120836
 20
0.8344593594427637
 30
0.0
 11
0.6157803701806027
 21
1.649945691742683
 31
0.0
  0
LINE
  5
5B
330
17
100
AcDbEntity
  8
INSIDE
 62
5
100
AcDbLine
 10
0.3934798129759945
 20
0.7866239303971275
 30
0.0
 11
0.2779948714120836
 21
0.8344593594427637
 31
0.0
  0
LINE
  5
5C
330
17
100
AcDbEntity
  8
INSIDE
 62
5
100
AcDbLine
 10
0.412613984594249
 20
0.8328179070226919
 30
0.0
 11
0.2971290430303381
 21
0.8806533360683281
 31
0.0
  0
LINE
  5
5D
330
17
100
AcDbEntity
  8
INSIDE
 62
5
100
AcDbLine
 10
0.43174815621250345
 20
0.8790118836482562
 30
0.0
 11
0.3162632146485926
 21
0.9268473126938924
 31
0.0
  0
LINE
  5
5E
330
17
100
AcDbEntity
  8
INSIDE
 62
5
100
AcDbLine
 10
0.40304689878512173
 20
0.8097209187099097
 30
0.0
 11
0.28756195722121086
 21
0.8575563477555459
 31
0.0
  0
LINE
  5
5F
330
17
100
AcDbEntity
  8
INSIDE
 62
5
100
AcDbLine
 10
0.4221810704033762
 20
0.855914895335474
 30
0.0
 11
0.30669612883946534
 21
0.9037503243811102
 31
0.0
  0
LINE
  5
60
330
17
100
AcDbEntity
  8
INSIDE
 62
5
100
AcDbLine
 10
0.4413152420216307
 20
0.9021088719610384
 30
0.0
 11
0.3258303004577198
 21
0.9499443010066746
 31
0.0
  0
LINE
  5
61
330
17
100
AcDbEntity
  8
INSIDE
 62
5
100
AcDbLine
 10
0.06250000000000006
 20
0.8773239544735163
 30
0.0
 11
0.06250000000000011
 21
1.76
 31
0.0
  0
LINE
  5
62
330
17
100
AcDbEntity
  8
INSIDE
 62
5
100
AcDbLine
 10
0.012500000000000051
 20
0.8773239544735163
 30
0.0
 11
0.012500000000000105
 21
1.76
 31
0.0
  0
LINE
  5
63
330
17
100
AcDbEntity
  8
INSIDE
 62
5
100
AcDbLine
 10
-0.03749999999999995
 20
0.8773239544735163
 30
0.0
 11
-0.037499999999999895
 21
1.76
 31
0.0
  0
LINE
  5
64
330
17
100
AcDbEntity
  8
INSIDE
 62
5
100
AcDbLine
 10
0.037500000000000054
 20
0.8773239544735163
 30
0.0
 11
0.03750000000000011
 21
1.76
 31
0.0
  0
LINE
  5
65
330
17
100
AcDbEntity
  8
INSIDE
 62
5
100
AcDbLine
 10
-0.012499999999999957
 20
0.8773239544735163
 30
0.0
 11
-0.012499999999999904
 21
1.76
 31
0.0
  0
LINE
  5
66
330
17
100
AcDbEntity
  8
INSIDE
 62
5
100
AcDbLine
 10
-0.062499999999999944
 20
0.8773239544735163
 30
0.0
 11
-0.06249999999999989
 21
1.76
 31
0.0
  0
LINE
  5
67
330
17
100
AcDbEntity
  8
INSIDE
 62
5
100
AcDbLine
 10
0.06250000000000006
 20
0.8773239544735163
 30
0.0
 11
-0.062499999999999944
 21
0.8773239544735163
 31
0.0
  0
LINE
  5
68
330
17
100
AcDbEntity
  8
INSIDE
 62
5
100
AcDbLine
 10
0.06250000000000006
 20
0.9273239544735163
 30
0.0
 11
-0.062499999999999944
 21
0.9273239544735163
 31
0.0
  0
LINE
  5
69
330
17
100
AcDbEntity
  8
INSIDE
 62
5
100
AcDbLine
 10
0.06250000000000006
 20
0.9773239544735163
 30
0.0
 11
-0.06249999999999994
 21
0.9773239544735163
 31
0.0
  0
LINE
  5
6A
330
17
100
AcDbEntity
  8
INSIDE
 62
5
100
AcDbLine
 10
0.06250000000000006
 20
0.9023239544735163
 30
0.0
 11
-0.062499999999999944
 21
0.9023239544735163
 31
0.0
  0
LINE
  5
6B
330
17
100
AcDbEntity
  8
INSIDE
 62
5
100
AcDbLine
 10
0.06250000000000006
 20
0.9523239544735163
 30
0.0
 11
-0.062499999999999944
 21
0.9523239544735163
 31
0.0
  0
LINE
  5
6C
330
17
100
AcDbEntity
  8
INSIDE
 62
5
100
AcDbLine
 10
0.06250000000000006
 20
1.0023239544735163
 30
0.0
 11
-0.06249999999999994
 21
1.0023239544735163
 31
0.0
  0
LINE
  5
6D
330
17
100
AcDbEntity
  8
INSIDE
 62
5
100
AcDbLine
 10
-0.2779948714120835
 20
0.8344593594427637
 30
0.0
 11
-0.6157803701806025
 21
1.649945691742683
 31
0.0
  0
LINE
  5
6E
330
17
100
AcDbEntity
  8
INSIDE
 62
5
100
AcDbLine
 10
-0.32418884803764786
 20
0.8153251878245092
 30
0.0
 11
-0.6619743468061668
 21
1.6308115201244284
 31
0.0
  0
LINE
  5
6F
330
17
100
AcDbEntity
  8
INSIDE
 62
5
100
AcDbLine
 10
-0.3703828246632122
 20
0.7961910162062548
 30
0.0
 11
-0.7081683234317311
 21
1.6116773485061737
 31
0.0
  0
LINE
  5
70
330
17
100
AcDbEntity
  8
INSIDE
 62
5
100
AcDbLine
 10
-0.3010918597248657
 20
0.8248922736336365
 30
0.0
 11
-0.6388773584933847
 21
1.6403786059335557
 31
0.0
  0
LINE
  5
71
330
17
100
AcDbEntity
  8
INSIDE
 62
5
100
AcDbLine
 10
-0.34728583635043003
 20
0.805758102015382
 30
0.0
 11
-0.685071335118949
 21
1.621244434315301
 31
0.0
  0
LINE
  5
72
330
17
100
AcDbEntity
  8
INSIDE
 62
5
100
AcDbLine
 10
-0.3934798129759944
 20
0.7866239303971275
 30
0.0
 11
-0.7312653117445133
 21
1.6021102626970465
 31
0.0
  0
LINE
  5
73
330
17
100
AcDbEntity
  8
INSIDE
 62
5
100
AcDbLine
 10
-0.2779948714120835
 20
0.8344593594427637
 30
0.0
 11
-0.3934798129759944
 21
0.7866239303971275
 31
0.0
  0
LINE
  5
74
330
17
100
AcDbEntity
  8
INSIDE
 62
5
100
AcDbLine
 10
-0.297129043030338
 20
0.8806533360683281
 30
0.0
 11
-0.41261398459424886
 21
0.8328179070226919
 31
0.0
  0
LINE
  5
75
330
17
100
AcDbEntity
  8
INSIDE
 62
5
100
AcDbLine
 10
-0.31626321464859247
 20
0.9268473126938924
 30
0.0
 11
-0.43174815621250334
 21
0.8790118836482562
 31
0.0
  0
LINE
  5
76
330
17
100
AcDbEntity
  8
INSIDE
 62
5
100
AcDbLine
 10
-0.28756195722121075
 20
0.8575563477555459
 30
0.0
 11
-0.4030468987851216
 21
0.8097209187099097
 31
0.0
  0
LINE
  5
77
330
17
100
AcDbEntity
  8
INSIDE
 62
5
100
AcDbLine
 10
-0.30669612883946523
 20
0.9037503243811102
 30
0.0
 11
-0.4221810704033761
 21
0.855914895335474
 31
0.0
  0
LINE
  5
78
330
17
100
AcDbEntity
  8
INSIDE
 62
5
100
AcDbLine
 10
-0.3258303004577197
 20
0.9499443010066746
 30
0.0
 11
-0.4413152420216306
 21
0.9021088719610384
 31
0.0
  0
LINE
  5
79
330
17
100
AcDbEntity
  8
INSIDE
 62
5
100
AcDbLine
 10
-0.576167543681462
 20
0.6645558913297805
 30
0.0
 11
-1.2003137610641643
 21
1.2887021087124828
 31
0.0
  0
LINE
  5
7A
330
17
100
AcDbEntity
  8
INSIDE
 62
5
100
AcDbLine
 10
-0.6115228827407894
 20
0.6292005522704531
 30
0.0
 11
-1.2356691001234916
 21
1.2533467696531555
 31
0.0
  0
LINE
  5
7B
330
17
100
AcDbEntity
  8
INSIDE
 62
5
100
AcDbLine
 10
-0.6468782218001168
 20
0.5938452132111258
 30
0.0
 11
-1.271024439182819
 21
1.2179914305938282
 31
0.0
  0
LINE
  5
7C
330
17
100
AcDbEntity
  8
INSIDE
 62
5
100
AcDbLine
 10
-0.5938452132111257
 20
0.6468782218001168
 30
0.0
 11
-1.217991430593828
 21
1.2710244391828192
 31
0.0
  0
LINE
  5
7D
330
17
100
AcDbEntity
  8
INSIDE
 62
5
100
AcDbLine
 10
-0.629200552270453
 20
0.6115228827407895
 30
0.0
 11
-1.2533467696531553
 21
1.2356691001234918
 31
0.0
  0
LINE
  5
7E
330
17
100
AcDbEntity
  8
INSIDE
 62
5
100
AcDbLine
 10
-0.6645558913297804
 20
0.5761675436814621
 30
0.0
 11
-1.2887021087124826
 21
1.2003137610641645
 31
0.0
  0
LINE
  5
7F
330
17
100
AcDbEntity
  8
INSIDE
 62
5
100
AcDbLine
 10
-0.576167543681462
 20
0.6645558913297805
 30
0.0
 11
-0.6645558913297804
 21
0.5761675436814621
 31
0.0
  0
LINE
  5
80
330
17
100
AcDbEntity
  8
INSIDE
 62
5
100
AcDbLine
 10
-0.6115228827407894
 20
0.699911230389108
 30
0.0
 11
-0.6999112303891079
 21
0.6115228827407895
 31
0.0
  0
LINE
  5
81
330
17
100
AcDbEntity
  8
INSIDE
 62
5
100
AcDbLine
 10
-0.6468782218001167
 20
0.7352665694484353
 30
0.0
 11
-0.7352665694484352
 21
0.6468782218001168
 31
0.0
  0
LINE
  5
82
330
17
100
AcDbEntity
  8
INSIDE
 62
5
100
AcDbLine
 10
-0.5938452132111257
 20
0.6822335608594443
 30
0.0
 11
-0.6822335608594442
 21
0.5938452132111258
 31
0.0
  0
LINE
  5
83
330
17
100
AcDbEntity
  8
INSIDE
 62
5
100
AcDbLine
 10
-0.629200552270453
 20
0.7175888999187716
 30
0.0
 11
-0.7175888999187715
 21
0.6292005522704531
 31
0.0
  0
LINE
  5
84
330
17
100
AcDbEntity
  8
INSIDE
 62
5
100
AcDbLine
 10
-0.6645558913297804
 20
0.752944238978099
 30
0.0
 11
-0.7529442389780989
 21
0.6645558913297805
 31
0.0
  0
LINE
  5
85
330
17
100
AcDbEntity
  8
INSIDE
 62
5
100
AcDbLine
 10
-0.7866239303971275
 20
0.3934798129759945
 30
0.0
 11
-1.6021102626970465
 21
0.7312653117445136
 31
0.0
  0
LINE
  5
86
330
17
100
AcDbEntity
  8
INSIDE
 62
5
100
AcDbLine
 10
-0.805758102015382
 20
0.34728583635043014
 30
0.0
 11
-1.621244434315301
 21
0.6850713351189492
 31
0.0
  0
LINE
  5
87
330
17
100
AcDbEntity
  8
INSIDE
 62
5
100
AcDbLine
 10
-0.8248922736336365
 20
0.3010918597248658
 30
0.0
 11
-1.6403786059335557
 21
0.6388773584933849
 31
0.0
  0
LINE
  5
88
330
17
100
AcDbEntity
  8
INSIDE
 62
5
100
AcDbLine
 10
-0.7961910162062548
 20
0.3703828246632123
 30
0.0
 11
-1.6116773485061737
 21
0.7081683234317314
 31
0.0
  0
LINE
  5
89
330
17
100
AcDbEntity
  8
INSIDE
 62
5
100
AcDbLine
 10
-0.8153251878245092
 20
0.32418884803764797
 30
0.0
 11
-1.6308115201244284
 21
0.6619743468061671
 31
0.0
  0
LINE
  5
8A
330
17
100
AcDbEntity
  8
INSIDE
 62
5
100
AcDbLine
 10
-0.8344593594427637
 20
0.2779948714120836
 30
0.0
 11
-1.649945691742683
 21
0.6157803701806028
 31
0.0
  0
LINE
  5
8B
330
17
100
AcDbEntity
  8
INSIDE
 62
5
100
AcDbLine
 10
-0.7866239303971275
 20
0.3934798129759945
 30
0.0
 11
-0.8344593594427637
 21
0.2779948714120836
 31
0.0
  0
LINE
  5
8C
330
17
100
AcDbEntity
  8
INSIDE
 62
5
100
AcDbLine
 10
-0.8328179070226919
 20
0.41261398459424903
 30
0.0
 11
-0.8806533360683281
 21
0.29712904303033816
 31
0.0
  0
LINE
  5
8D
330
17
100
AcDbEntity
  8
INSIDE
 62
5
100
AcDbLine
 10
-0.8790118836482562
 20
0.4317481562125035
 30
0.0
 11
-0.9268473126938924
 21
0.31626321464859264
 31
0.0
  0
LINE
  5
8E
330
17
100
AcDbEntity
  8
INSIDE
 62
5
100
AcDbLine
 10
-0.8097209187099097
 20
0.4030468987851218
 30
0.0
 11
-0.8575563477555459
 21
0.2875619572212109
 31
0.0
  0
LINE
  5
8F
330
17
100
AcDbEntity
  8
INSIDE
 62
5
100
AcDbLine
 10
-0.855914895335474
 20
0.4221810704033762
 30
0.0
 11
-0.9037503243811102
 21
0.30669612883946534
 31
0.0
  0
LINE
  5
90
330
17
100
AcDbEntity
  8
INSIDE
 62
5
100
AcDbLine
 10
-0.9021088719610384
 20
0.44131524202163075
 30
0.0
 11
-0.9499443010066746
 21
0.3258303004577199
 31
0.0
  0
LINE
  5
91
330
17
100
AcDbEntity
  8
INSIDE
 62
5
100
AcDbLine
 10
-0.8773239544735163
 20
0.06250000000000011
 30
0.0
 11
-1.76
 21
0.06250000000000022
 31
0.0
  0
LINE
  5
92
330
17
100
AcDbEntity
  8
INSIDE
 62
5
100
AcDbLine
 10
-0.8773239544735163
 20
0.012500000000000105
 30
0.0
 11
-1.76
 21
0.012500000000000212
 31
0.0
  0
LINE
  5
93
330
17
100
AcDbEntity
  8
INSIDE
 62
5
100
AcDbLine
 10
-0.8773239544735163
 20
-0.0374999999999999
 30
0.0
 11
-1.76
 21
-0.03749999999999979
 31
0.0
  0
LINE
  5
94
330
17
100
AcDbEntity
  8
INSIDE
 62
5
100
AcDbLine
 10
-0.8773239544735163
 20
0.0375000000000001
 30
0.0
 11
-1.76
 21
0.037500000000000214
 31
0.0
  0
LINE
  5
95
330
17
100
AcDbEntity
  8
INSIDE
 62
5
100
AcDbLine
 10
-0.8773239544735163
 20
-0.012499999999999904
 30
0.0
 11
-1.76
 21
-0.012499999999999796
 31
0.0
  0
LINE
  5
96
330
17
100
AcDbEntity
  8
INSIDE
 62
5
100
AcDbLine
 10
-0.8773239544735163
 20
-0.062499999999999896
 30
0.0
 11
-1.76
 21
-0.062499999999999785
 31
0.0
  0
LINE
  5
97
330
17
100
AcDbEntity
  8
INSIDE
 62
5
100
AcDbLine
 10
-0.8773239544735163
 20
0.06250000000000011
 30
0.0
 11
-0.8773239544735163
 21
-0.062499999999999896
 31
0.0
  0
LINE
  5
98
330
17
100
AcDbEntity
  8
INSIDE
 62
5
100
AcDbLine
 10
-0.9273239544735163
 20
0.06250000000000011
 30
0.0
 11
-0.9273239544735163
 21
-0.06249999999999989
 31
0.0
  0
LINE
  5
99
330
17
100
AcDbEntity
  8
INSIDE
 62
5
100
AcDbLine
 10
-0.9773239544735163
 20
0.06250000000000012
 30
0.0
 11
-0.9773239544735163
 21
-0.06249999999999988
 31
0.0
  0
LINE
  5
9A
330
17
100
AcDbEntity
  8
INSIDE
 62
5
100
AcDbLine
 10
-0.9023239544735163
 20
0.06250000000000011
 30
0.0
 11
-0.9023239544735163
 21
-0.06249999999999989
 31
0.0
  0
LINE
  5
9B
330
17
100
AcDbEntity
  8
INSIDE
 62
5
100
AcDbLine
 10
-0.9523239544735163
 20
0.06250000000000011
 30
0.0
 11
-0.9523239544735163
 21
-0.06249999999999988
 31
0.0
  0
LINE
  5
9C
330
17
100
AcDbEntity
  8
INSIDE
 62
5
100
AcDbLine
 10
-1.0023239544735163
 20
0.06250000000000012
 30
0.0
 11
-1.0023239544735163
 21
-0.062499999999999875
 31
0.0
  0
LINE
  5
9D
330
17
100
AcDbEntity
  8
INSIDE
 62
5
100
AcDbLine
 10
-0.8344593594427638
 20
-0.27799487141208346
 30
0.0
 11
-1.6499456917426831
 21
-0.6157803701806025
 31
0.0
  0
LINE
  5
9E
330
17
100
AcDbEntity
  8
INSIDE
 62
5
100
AcDbLine
 10
-0.8153251878245094
 20
-0.3241888480376478
 30
0.0
 11
-1.6308115201244284
 21
-0.6619743468061668
 31
0.0
  0
LINE
  5
9F
330
17
100
AcDbEntity
  8
INSIDE
 62
5
100
AcDbLine
 10
-0.7961910162062549
 20
-0.37038282466321215
 30
0.0
 11
-1.611677348506174
 21
-0.7081683234317311
 31
0.0
  0
LINE
  5
A0
330
17
100
AcDbEntity
  8
INSIDE
 62
5
100
AcDbLine
 10
-0.8248922736336366
 20
-0.30109185972486563
 30
0.0
 11
-1.6403786059335559
 21
-0.6388773584933847
 31
0.0
  0
LINE
  5
A1
330
17
100
AcDbEntity
  8
INSIDE
 62
5
100
AcDbLine
 10
-0.8057581020153821
 20
-0.34728583635043
 30
0.0
 11
-1.6212444343153012
 21
-0.685071335118949
 31
0.0
  0
LINE
  5
A2
330
17
100
AcDbEntity
  8
INSIDE
 62
5
100
AcDbLine
 10
-0.7866239303971276
 20
-0.3934798129759943
 30
0.0
 11
-1.6021102626970467
 21
-0.7312653117445133
 31
0.0
  0
LINE
  5
A3
330
17
100
AcDbEntity
  8
INSIDE
 62
5
100
AcDbLine
 10
-0.8344593594427638
 20
-0.27799487141208346
 30
0.0
 11
-0.7866239303971276
 21
-0.3934798129759943
 31
0.0
  0
LINE
  5
A4
330
17
100
AcDbEntity
  8
INSIDE
 62
5
100
AcDbLine
 10
-0.8806533360683282
 20
-0.29712904303033794
 30
0.0
 11
-0.832817907022692
 21
-0.4126139845942488
 31
0.0
  0
LINE
  5
A5
330
17
100
AcDbEntity
  8
INSIDE
 62
5
100
AcDbLine
 10
-0.9268473126938925
 20
-0.3162632146485924
 30
0.0
 11
-0.8790118836482563
 21
-0.4317481562125033
 31
0.0
  0
LINE
  5
A6
330
17
100
AcDbEntity
  8
INSIDE
 62
5
100
AcDbLine
 10
-0.857556347755546
 20
-0.2875619572212107
 30
0.0
 11
-0.8097209187099098
 21
-0.40304689878512157
 31
0.0
  0
LINE
  5
A7
330
17
100
AcDbEntity
  8
INSIDE
 62
5
100
AcDbLine
 10
-0.9037503243811104
 20
-0.3066961288394652
 30
0.0
 11
-0.8559148953354742
 21
-0.42218107040337605
 31
0.0
  0
LINE
  5
A8
330
17
100
AcDbEntity
  8
INSIDE
 62
5
100
AcDbLine
 10
-0.9499443010066747
 20
-0.32583030045771966
 30
0.0
 11
-0.9021088719610385
 21
-0.4413152420216305
 31
0.0
  0
LINE
  5
A9
330
17
100
AcDbEntity
  8
INSIDE
 62
5
100
AcDbLine
 10
-0.6645558913297807
 20
-0.576167543681462
 30
0.0
 11
-1.288702108712483
 21
-1.2003137610641643
 31
0.0
  0
LINE
  5
AA
330
17
100
AcDbEntity
  8
INSIDE
 62
5
100
AcDbLine
 10
-0.6292005522704532
 20
-0.6115228827407894
 30
0.0
 11
-1.2533467696531557
 21
-1.2356691001234916
 31
0.0
  0
LINE
  5
AB
330
17
100
AcDbEntity
  8
INSIDE
 62
5
100
AcDbLine
 10
-0.5938452132111258
 20
-0.6468782218001168
 30
0.0
 11
-1.2179914305938284
 21
-1.271024439182819
 31
0.0
  0
LINE
  5
AC
330
17
100
AcDbEntity
  8
INSIDE
 62
5
100
AcDbLine
 10
-0.6468782218001169
 20
-0.5938452132111256
 30
0.0
 11
-1.2710244391828194
 21
-1.217991430593828
 31
0.0
  0
LINE
  5
AD
330
17
100
AcDbEntity
  8
INSIDE
 62
5
100
AcDbLine
 10
-0.6115228827407896
 20
-0.629200552270453
 30
0.0
 11
-1.235669100123492
 21
-1.2533467696531553
 31
0.0
  0
LINE
  5
AE
330
17
100
AcDbEntity
  8
INSIDE
 62
5
100
AcDbLine
 10
-0.5761675436814622
 20
-0.6645558913297804
 30
0.0
 11
-1.2003137610641648
 21
-1.2887021087124826
 31
0.0
  0
LINE
  5
AF
330
17
100
AcDbEntity
  8
INSIDE
 62
5
100
AcDbLine
 10
-0.6645558913297807
 20
-0.576167543681462
 30
0.0
 11
-0.5761675436814622
 21
-0.6645558913297804
 31
0.0
  0
LINE
  5
B0
330
17
100
AcDbEntity
  8
INSIDE
 62
5
100
AcDbLine
 10
-0.6999112303891081
 20
-0.6115228827407894
 30
0.0
 11
-0.6115228827407896
 21
-0.6999112303891079
 31
0.0
  0
LINE
  5
B1
330
17
100
AcDbEntity
  8
INSIDE
 62
5
100
AcDbLine
 10
-0.7352665694484354
 20
-0.6468782218001167
 30
0.0
 11
-0.6468782218001169
 21
-0.7352665694484352
 31
0.0
  0
LINE
  5
B2
330
17
100
AcDbEntity
  8
INSIDE
 62
5
100
AcDbLine
 10
-0.6822335608594443
 20
-0.5938452132111257
 30
0.0
 11
-0.5938452132111258
 21
-0.6822335608594442
 31
0.0
  0
LINE
  5
B3
330
17
100
AcDbEntity
  8
INSIDE
 62
5
100
AcDbLine
 10
-0.7175888999187717
 20
-0.629200552270453
 30
0.0
 11
-0.6292005522704532
 21
-0.7175888999187715
 31
0.0
  0
LINE
  5
B4
330
17
100
AcDbEntity
  8
INSIDE
 62
5
100
AcDbLine
 10
-0.7529442389780991
 20
-0.6645558913297804
 30
0.0
 11
-0.6645558913297807
 21
-0.7529442389780989
 31
0.0
  0
LINE
  5
B5
330
17
100
AcDbEntity
  8
INSIDE
 62
5
100
AcDbLine
 10
-0.3934798129759949
 20
-0.7866239303971273
 30
0.0
 11
-0.7312653117445144
 21
-1.602110262697046
 31
0.0
  0
LINE
  5
B6
330
17
100
AcDbEntity
  8
INSIDE
 62
5
100
AcDbLine
 10
-0.34728583635043053
 20
-0.8057581020153818
 30
0.0
 11
-0.68507133511895
 21
-1.6212444343153005
 31
0.0
  0
LINE
  5
B7
330
17
100
AcDbEntity
  8
INSIDE
 62
5
100
AcDbLine
 10
-0.3010918597248662
 20
-0.8248922736336363
 30
0.0
 11
-0.6388773584933858
 21
-1.6403786059335552
 31
0.0
  0
LINE
  5
B8
330
17
100
AcDbEntity
  8
INSIDE
 62
5
100
AcDbLine
 10
-0.3703828246632127
 20
-0.7961910162062545
 30
0.0
 11
-0.7081683234317322
 21
-1.6116773485061733
 31
0.0
  0
LINE
  5
B9
330
17
100
AcDbEntity
  8
INSIDE
 62
5
100
AcDbLine
 10
-0.32418884803764836
 20
-0.815325187824509
 30
0.0
 11
-0.6619743468061678
 21
-1.630811520124428
 31
0.0
  0
LINE
  5
BA
330
17
100
AcDbEntity
  8
INSIDE
 62
5
100
AcDbLine
 10
-0.277994871412084
 20
-0.8344593594427635
 30
0.0
 11
-0.6157803701806036
 21
-1.6499456917426825
 31
0.0
  0
LINE
  5
BB
330
17
100
AcDbEntity
  8
INSIDE
 62
5
100
AcDbLine
 10
-0.3934798129759949
 20
-0.7866239303971273
 30
0.0
 11
-0.277994871412084
 21
-0.8344593594427635
 31
0.0
  0
LINE
  5
BC
330
17
100
AcDbEntity
  8
INSIDE
 62
5
100
AcDbLine
 10
-0.41261398459424936
 20
-0.8328179070226918
 30
0.0
 11
-0.2971290430303386
 21
-0.880653336068328
 31
0.0
  0
LINE
  5
BD
330
17
100
AcDbEntity
  8
INSIDE
 62
5
100
AcDbLine
 10
-0.43174815621250395
 20
-0.879011883648256
 30
0.0
 11
-0.3162632146485931
 21
-0.9268473126938922
 31
0.0
  0
LINE
  5
BE
330
17
100
AcDbEntity
  8
INSIDE
 62
5
100
AcDbLine
 10
-0.4030468987851221
 20
-0.8097209187099096
 30
0.0
 11
-0.28756195722121136
 21
-0.8575563477555458
 31
0.0
  0
LINE
  5
BF
330
17
100
AcDbEntity
  8
INSIDE
 62
5
100
AcDbLine
 10
-0.4221810704033766
 20
-0.8559148953354738
 30
0.0
 11
-0.30669612883946584
 21
-0.90375032438111
 31
0.0
  0
LINE
  5
C0
330
17
100
AcDbEntity
  8
INSIDE
 62
5
100
AcDbLine
 10
-0.4413152420216312
 20
-0.9021088719610382
 30
0.0
 11
-0.3258303004577203
 21
-0.9499443010066744
 31
0.0
  0
LINE
  5
C1
330
17
100
AcDbEntity
  8
INSIDE
 62
5
100
AcDbLine
 10
-0.06250000000000017
 20
-0.8773239544735163
 30
0.0
 11
-0.06250000000000032
 21
-1.76
 31
0.0
  0
LINE
  5
C2
330
17
100
AcDbEntity
  8
INSIDE
 62
5
100
AcDbLine
 10
-0.012500000000000159
 20
-0.8773239544735163
 30
0.0
 11
-0.01250000000000032
 21
-1.76
 31
0.0
  0
LINE
  5
C3
330
17
100
AcDbEntity
  8
INSIDE
 62
5
100
AcDbLine
 10
0.037499999999999846
 20
-0.8773239544735163
 30
0.0
 11
0.03749999999999968
 21
-1.76
 31
0.0
  0
LINE
  5
C4
330
17
100
AcDbEntity
  8
INSIDE
 62
5
100
AcDbLine
 10
-0.03750000000000016
 20
-0.8773239544735163
 30
0.0
 11
-0.037500000000000325
 21
-1.76
 31
0.0
  0
LINE
  5
C5
330
17
100
AcDbEntity
  8
INSIDE
 62
5
100
AcDbLine
 10
0.01249999999999985
 20
-0.8773239544735163
 30
0.0
 11
0.012499999999999688
 21
-1.76
 31
0.0
  0
LINE
  5
C6
330
17
100
AcDbEntity
  8
INSIDE
 62
5
100
AcDbLine
 10
0.06249999999999984
 20
-0.8773239544735163
 30
0.0
 11
0.062499999999999674
 21
-1.76
 31
0.0
  0
LINE
  5
C7
330
17
100
AcDbEntity
  8
INSIDE
 62
5
100
AcDbLine
 10
-0.06250000000000017
 20
-0.8773239544735163
 30
0.0
 11
0.06249999999999984
 21
-0.8773239544735163
 31
0.0
  0
LINE
  5
C8
330
17
100
AcDbEntity
  8
INSIDE
 62
5
100
AcDbLine
 10
-0.06250000000000017
 20
-0.9273239544735163
 30
0.0
 11
0.062499999999999827
 21
-0.9273239544735163
 31
0.0
  0
LINE
  5
C9
330
17
100
AcDbEntity
  8
INSIDE
 62
5
100
AcDbLine
 10
-0.06250000000000018
 20
-0.9773239544735163
 30
0.0
 11
0.06249999999999982
 21
-0.9773239544735163
 31
0.0
  0
LINE
  5
CA
330
17
100
AcDbEntity
  8
INSIDE
 62
5
100
AcDbLine
 10
-0.06250000000000017
 20
-0.9023239544735163
 30
0.0
 11
0.06249999999999983
 21
-0.9023239544735163
 31
0.0
  0
LINE
  5
CB
330
17
100
AcDbEntity
  8
INSIDE
 62
5
100
AcDbLine
 10
-0.06250000000000018
 20
-0.9523239544735163
 30
0.0
 11
0.062499999999999827
 21
-0.9523239544735163
 31
0.0
  0
LINE
  5
CC
330
17
100
AcDbEntity
  8
INSIDE
 62
5
100
AcDbLine
 10
-0.06250000000000018
 20
-1.0023239544735163
 30
0.0
 11
0.06249999999999981
 21
-1.0023239544735163
 31
0.0
  0
LINE
  5
CD
330
17
100
AcDbEntity
  8
INSIDE
 62
5
100
AcDbLine
 10
0.27799487141208373
 20
-0.8344593594427636
 30
0.0
 11
0.615780370180603
 21
-1.6499456917426827
 31
0.0
  0
LINE
  5
CE
330
17
100
AcDbEntity
  8
INSIDE
 62
5
100
AcDbLine
 10
0.3241888480376481
 20
-0.8153251878245091
 30
0.0
 11
0.6619743468061674
 21
-1.6308115201244282
 31
0.0
  0
LINE
  5
CF
330
17
100
AcDbEntity
  8
INSIDE
 62
5
100
AcDbLine
 10
0.37038282466321243
 20
-0.7961910162062547
 30
0.0
 11
0.7081683234317316
 21
-1.6116773485061735
 31
0.0
  0
LINE
  5
D0
330
17
100
AcDbEntity
  8
INSIDE
 62
5
100
AcDbLine
 10
0.3010918597248659
 20
-0.8248922736336364
 30
0.0
 11
0.6388773584933852
 21
-1.6403786059335554
 31
0.0
  0
LINE
  5
D1
330
17
100
AcDbEntity
  8
INSIDE
 62
5
100
AcDbLine
 10
0.34728583635043025
 20
-0.8057581020153819
 30
0.0
 11
0.6850713351189496
 21
-1.6212444343153007
 31
0.0
  0
LINE
  5
D2
330
17
100
AcDbEntity
  8
INSIDE
 62
5
100
AcDbLine
 10
0.3934798129759946
 20
-0.7866239303971274
 30
0.0
 11
0.7312653117445138
 21
-1.6021102626970463
 31
0.0
  0
LINE
  5
D3
330
17
100
AcDbEntity
  8
INSIDE
 62
5
100
AcDbLine
 10
0.27799487141208373
 20
-0.8344593594427636
 30
0.0
 11
0.3934798129759946
 21
-0.7866239303971274
 31
0.0
  0
LINE
  5
D4
330
17
100
AcDbEntity
  8
INSIDE
 62
5
100
AcDbLine
 10
0.29712904303033827
 20
-0.8806533360683281
 30
0.0
 11
0.41261398459424914
 21
-0.8328179070226919
 31
0.0
  0
LINE
  5
D5
330
17
100
AcDbEntity
  8
INSIDE
 62
5
100
AcDbLine
 10
0.31626321464859275
 20
-0.9268473126938923
 30
0.0
 11
0.4317481562125036
 21
-0.8790118836482561
 31
0.0
  0
LINE
  5
D6
330
17
100
AcDbEntity
  8
INSIDE
 62
5
100
AcDbLine
 10
0.287561957221211
 20
-0.8575563477555458
 30
0.0
 11
0.40304689878512184
 21
-0.8097209187099096
 31
0.0
  0
LINE
  5
D7
330
17
100
AcDbEntity
  8
INSIDE
 62
5
100
AcDbLine
 10
0.30669612883946545
 20
-0.9037503243811101
 30
0.0
 11
0.4221810704033763
 21
-0.8559148953354739
 31
0.0
  0
LINE
  5
D8
330
17
100
AcDbEntity
  8
INSIDE
 62
5
100
AcDbLine
 10
0.32583030045772
 20
-0.9499443010066745
 30
0.0
 11
0.44131524202163086
 21
-0.9021088719610383
 31
0.0
  0
LINE
  5
D9
330
17
100
AcDbEntity
  8
INSIDE
 62
5
100
AcDbLine
 10
0.5761675436814618
 20
-0.6645558913297807
 30
0.0
 11
1.2003137610641643
 21
-1.288702108712483
 31
0.0
  0
LINE
  5
DA
330
17
100
AcDbEntity
  8
INSIDE
 62
5
100
AcDbLine
 10
0.6115228827407893
 20
-0.6292005522704532
 30
0.0
 11
1.2356691001234916
 21
-1.2533467696531557
 31
0.0
  0
LINE
  5
DB
330
17
100
AcDbEntity
  8
INSIDE
 62
5
100
AcDbLine
 10
0.6468782218001167
 20
-0.5938452132111259
 30
0.0
 11
1.271024439182819
 21
-1.2179914305938284
 31
0.0
  0
LINE
  5
DC
330
17
100
AcDbEntity
  8
INSIDE
 62
5
100
AcDbLine
 10
0.5938452132111255
 20
-0.6468782218001169
 30
0.0
 11
1.217991430593828
 21
-1.2710244391828194
 31
0.0
  0
LINE
  5
DD
330
17
100
AcDbEntity
  8
INSIDE
 62
5
100
AcDbLine
 10
0.6292005522704529
 20
-0.6115228827407896
 30
0.0
 11
1.2533467696531553
 21
-1.235669100123492
 31
0.0
  0
LINE
  5
DE
330
17
100
AcDbEntity
  8
INSIDE
 62
5
100
AcDbLine
 10
0.6645558913297803
 20
-0.5761675436814622
 30
0.0
 11
1.2887021087124826
 21
-1.2003137610641648
 31
0.0
  0
LINE
  5
DF
330
17
100
AcDbEntity
  8
INSIDE
 62
5
100
AcDbLine
 10
0.5761675436814618
 20
-0.6645558913297807
 30
0.0
 11
0.6645558913297803
 21
-0.5761675436814622
 31
0.0
  0
LINE
  5
E0
330
17
100
AcDbEntity
  8
INSIDE
 62
5
100
AcDbLine
 10
0.6115228827407893
 20
-0.6999112303891081
 30
0.0
 11
0.6999112303891077
 21
-0.6115228827407896
 31
0.0
  0
LINE
  5
E1
330
17
100
AcDbEntity
  8
INSIDE
 62
5
100
AcDbLine
 10
0.6468782218001166
 20
-0.7352665694484354
 30
0.0
 11
0.735266569448435
 21
-0.6468782218001169
 31
0.0
  0
LINE
  5
E2
330
17
100
AcDbEntity
  8
INSIDE
 62
5
100
AcDbLine
 10
0.5938452132111256
 20
-0.6822335608594443
 30
0.0
 11
0.6822335608594441
 21
-0.5938452132111258
 31
0.0
  0
LINE
  5
E3
330
17
100
AcDbEntity
  8
INSIDE
 62
5
100
AcDbLine
 10
0.6292005522704529
 20
-0.7175888999187717
 30
0.0
 11
0.7175888999187714
 21
-0.6292005522704532
 31
0.0
  0
LINE
  5
E4
330
17
100
AcDbEntity
  8
INSIDE
 62
5
100
AcDbLine
 10
0.6645558913297803
 20
-0.7529442389780991
 30
0.0
 11
0.7529442389780988
 21
-0.6645558913297807
 31
0.0
  0
LINE
  5
E5
330
17
100
AcDbEntity
  8
INSIDE
 62
5
100
AcDbLine
 10
0.7866239303971273
 20
-0.3934798129759949
 30
0.0
 11
1.602110262697046
 21
-0.7312653117445145
 31
0.0
  0
LINE
  5
E6
330
17
100
AcDbEntity
  8
INSIDE
 62
5
100
AcDbLine
 10
0.8057581020153818
 20
-0.3472858363504306
 30
0.0
 11
1.6212444343153005
 21
-0.6850713351189501
 31
0.0
  0
LINE
  5
E7
330
17
100
AcDbEntity
  8
INSIDE
 62
5
100
AcDbLine
 10
0.8248922736336363
 20
-0.30109185972486624
 30
0.0
 11
1.6403786059335552
 21
-0.6388773584933859
 31
0.0
  0
LINE
  5
E8
330
17
100
AcDbEntity
  8
INSIDE
 62
5
100
AcDbLine
 10
0.7961910162062545
 20
-0.37038282466321276
 30
0.0
 11
1.6116773485061733
 21
-0.7081683234317323
 31
0.0
  0
LINE
  5
E9
330
17
100
AcDbEntity
  8
INSIDE
 62
5
100
AcDbLine
 10
0.815325187824509
 20
-0.3241888480376484
 30
0.0
 11
1.630811520124428
 21
-0.661974346806168
 31
0.0
  0
LINE
  5
EA
330
17
100
AcDbEntity
  8
INSIDE
 62
5
100
AcDbLine
 10
0.8344593594427635
 20
-0.2779948714120841
 30
0.0
 11
1.6499456917426825
 21
-0.6157803701806037
 31
0.0
  0
LINE
  5
EB
330
17
100
AcDbEntity
  8
INSIDE
 62
5
100
AcDbLine
 10
0.7866239303971273
 20
-0.3934798129759949
 30
0.0
 11
0.8344593594427635
 21
-0.2779948714120841
 31
0.0
  0
LINE
  5
EC
330
17
100
AcDbEntity
  8
INSIDE
 62
5
100
AcDbLine
 10
0.8328179070226918
 20
-0.41261398459424947
 30
0.0
 11
0.880653336068328
 21
-0.2971290430303386
 31
0.0
  0
LINE
  5
ED
330
17
100
AcDbEntity
  8
INSIDE
 62
5
100
AcDbLine
 10
0.879011883648256
 20
-0.43174815621250395
 30
0.0
 11
0.9268473126938922
 21
-0.3162632146485932
 31
0.0
  0
LINE
  5
EE
330
17
100
AcDbEntity
  8
INSIDE
 62
5
100
AcDbLine
 10
0.8097209187099096
 20
-0.40304689878512223
 30
0.0
 11
0.8575563477555458
 21
-0.28756195722121136
 31
0.0
  0
LINE
  5
EF
330
17
100
AcDbEntity
  8
INSIDE
 62
5
100
AcDbLine
 10
0.8559148953354738
 20
-0.4221810704033767
 30
0.0
 11
0.90375032438111
 21
-0.30669612883946584
 31
0.0
  0
LINE
  5
F0
330
17
100
AcDbEntity
  8
INSIDE
 62
5
100
AcDbLine
 10
0.9021088719610382
 20
-0.4413152420216312
 30
0.0
 11
0.9499443010066744
 21
-0.32583030045772043
 31
0.0
  0
CIRCLE
  5
F1
330
17
100
AcDbEntity
  8
INSIDE
 62
5
100
AcDbCircle
 10
0.0
 20
0.0
 30
0.0
 40
0.54
  0
CIRCLE
  5
F2
330
17
100
AcDbEntity
  8
INSIDE
 62
5
100
AcDbCircle
 10
0.0
 20
0.0
 30
0.0
 40
0.49000000000000005
  0
CIRCLE
  5
F3
330
17
100
AcDbEntity
  8
INSIDE
 62
5
100
AcDbCircle
 10
0.0
 20
0.0
 30
0.0
 40
0.44000000000000006
  0
CIRCLE
  5
F4
330
17
100
AcDbEntity
  8
INSIDE
 62
5
100
AcDbCircle
 10
0.0
 20
0.0
 30
0.0
 40
0.515
  0
CIRCLE
  5
F5
330
17
100
AcDbEntity
  8
INSIDE
 62
5
100
AcDbCircle
 10
0.0
 20
0.0
 30
0.0
 40
0.465
  0
CIRCLE
  5
F6
330
17
100
AcDbEntity
  8
INSIDE
 62
5
100
AcDbCircle
 10
0.0
 20
0.0
 30
0.0
 40
0.41500000000000004
  0
CIRCLE
  5
F7
330
17
100
AcDbEntity
  8
OUTSIDE
 62
7
100
AcDbCircle
 10
0.0
 20
0.0
 30
0.0
 40
1.76
  0
CIRCLE
  5
F8
330
17
100
AcDbEntity
  8
OUTSIDE
 62
7
100
AcDbCircle
 10
0.0
 20
0.0
 30
0.0
 40
1.81
  0
CIRCLE
  5
F9
330
17
100
AcDbEntity
  8
OUTSIDE
 62
7
100
AcDbCircle
 10
0.0
 20
0.0
 30
0.0
 40
1.86
  0
CIRCLE
  5
FA
330
17
100
AcDbEntity
  8
OUTSIDE
 62
7
100
AcDbCircle
 10
0.0
 20
0.0
 30
0.0
 40
1.785
  0
CIRCLE
  5
FB
330
17
100
AcDbEntity
  8
OUTSIDE
 62
7
100
AcDbCircle
 10
0.0
 20
0.0
 30
0.0
 40
1.835
  0
CIRCLE
  5
FC
330
17
100
AcDbEntity
  8
OUTSIDE
 62
7
100
AcDbCircle
 10
0.0
 20
0.0
 30
0.0
 40
1.885
  0
ENDSEC
  0
SECTION
  2
OBJECTS
  0
DICTIONARY
  5
A
330
0
100
AcDbDictionary
281
1
  3
ACAD_COLOR
350
B
  3
ACAD_GROUP
350
C
  3
ACAD_LAYOUT
350
D
  3
ACAD_MATERIAL
350
E
  3
ACAD_MLEADERSTYLE
350
F
  3
ACAD_MLINESTYLE
350
10
  3
ACAD_PLOTSETTINGS
350
11
  3
ACAD_PLOTSTYLENAME
350
12
  3
ACAD_SCALELIST
350
14
  3
ACAD_TABLESTYLE
350
15
  3
ACAD_VISUALSTYLE
350
16
  3
EZDXF_META
350
2D
  0
DICTIONARY
  5
B
330
A
100
AcDbDictionary
281
1
  0
DICTIONARY
  5
C
330
A
100
AcDbDictionary
281
1
  0
DICTIONARY
  5
D
330
A
100
AcDbDictionary
281
1
  3
Model
350
1A
  3
Layout1
350
1E
  0
DICTIONARY
  5
E
330
A
100
AcDbDictionary
281
1
  3
ByBlock
350
1F
  3
ByLayer
350
20
  3
Global
350
21
  0
DICTIONARY
  5
F
330
A
100
AcDbDictionary
281
1
  3
Standard
350
2C
  0
DICTIONARY
  5
10
330
A
100
AcDbDictionary
281
1
  3
Standard
350
22
  0
DICTIONARY
  5
11
330
A
100
AcDbDictionary
281
1
  0
ACDBDICTIONARYWDFLT
  5
12
330
A
100
AcDbDictionary
281
1
  3
Normal
350
13
100
AcDbDictionaryWithDefault
340
13
  0
ACDBPLACEHOLDER
  5
13
330
12
  0
DICTIONARY
  5
14
330
A
100
AcDbDictionary
281
1
  0
DICTIONARY
  5
15
330
A
100
AcDbDictionary
281
1
  0
DICTIONARY
  5
16
330
A
100
AcDbDictionary
281
1
  0
LAYOUT
  5
1A
330
D
100
AcDbPlotSettings
  1

  4
A3
  6

 40
7.5
 41
20.0
 42
7.5
 43
20.0
 44
420.0
 45
297.0
 46
0.0
 47
0.0
 48
0.0
 49
0.0
140
0.0
141
0.0
142
1.0
143
1.0
 70
1024
 72
1
 73
0
 74
5
  7

 75
16
 76
0
 77
2
 78
300
147
1.0
148
0.0
149
0.0
100
AcDbLayout
  1
Model
 70
1
 71
0
 10
0.0
 20
0.0
 11
420.0
 21
297.0
 12
0.0
 22
0.0
 32
0.0
 14
1e+20
 24
1e+20
 34
1e+20
 15
-1e+20
 25
-1e+20
 35
-1e+20
146
0.0
 13
0.0
 23
0.0
 33
0.0
 16
1.0
 26
0.0
 36
0.0
 17
0.0
 27
1.0
 37
0.0
 76
1
330
17
  0
LAYOUT
  5
1E
330
D
100
AcDbPlotSettings
  1

  4
A3
  6

 40
7.5
 41
20.0
 42
7.5
 43
20.0
 44
420.0
 45
297.0
 46
0.0
 47
0.0
 48
0.0
 49
0.0
140
0.0
141
0.0
142
1.0
143
1.0
 70
0
 72
1
 73
0
 74
5
  7

 75
16
 76
0
 77
2
 78
300
147
1.0
148
0.0
149
0.0
100
AcDbLayout
  1
Layout1
 70
1
 71
1
 10
0.0
 20
0.0
 11
420.0
 21
297.0
 12
0.0
 22
0.0
 32
0.0
 14
1e+20
 24
1e+20
 34
1e+20
 15
-1e+20
 25
-1e+20
 35
-1e+20
146
0.0
 13
0.0
 23
0.0
 33
0.0
 16
1.0
 26
0.0
 36
0.0
 17
0.0
 27
1.0
 37
0.0
 76
1
330
1B
  0
MATERIAL
  5
1F
102
{ACAD_REACTORS
330
E
102
}
330
E
100
AcDbMaterial
  1
ByBlock
  2

 70
0
 40
1.0
 71
1
 41
1.0
 91
-1023410177
 42
1.0
 72
1
  3

 73
1
 74
1
 75
1
 44
0.5
 73
0
 45
1.0
 46
1.0
 77
1
  4

 78
1
 79
1
170
1
 48
1.0
171
1
  6

172
1
173
1
174
1
140
1.0
141
1.0
175
1
  7

176
1
177
1
178
1
143
1.0
179
1
  8

270
1
271
1
272
1
145
1.0
146
1.0
273
1
  9

274
1
275
1
276
1
 42
1.0
 72
1
  3

 73
1
 74
1
 75
1
 94
63
  0
MATERIAL
  5
20
102
{ACAD_REACTORS
330
E
102
}
330
E
100
AcDbMaterial
  1
ByLayer
  2

 70
0
 40
1.0
 71
1
 41
1.0
 91
-1023410177
 42
1.0
 72
1
  3

 73
1
 74
1
 75
1
 44
0.5
 73
0
 45
1.0
 46
1.0
 77
1
  4

 78
1
 79
1
170
1
 48
1.0
171
1
  6

172
1
173
1
174
1
140
1.0
141
1.0
175
1
  7

176
1
177
1
178
1
143
1.0
179
1
  8

270
1
271
1
272
1
145
1.0
146
1.0
273
1
  9

274
1
275
1
276
1
 42
1.0
 72
1
  3

 73
1
 74
1
 75
1
 94
63
  0
MATERIAL
  5
21
102
{ACAD_REACTORS
330
E
102
}
330
E
100
AcDbMaterial
  1
Global
  2

 70
0
 40
1.0
 71
1
 41
1.0
 91
-1023410177
 42
1.0
 72
1
  3

 73
1
 74
1
 75
1
 44
0.5
 73
0
 45
1.0
 46
1.0
 77
1
  4

 78
1
 79
1
170
1
 48
1.0
171
1
  6

172
1
173
1
174
1
140
1.0
141
1.0
175
1
  7

176
1
177
1
178
1
143
1.0
179
1
  8

270
1
271
1
272
1
145
1.0
146
1.0
273
1
  9

274
1
275
1
276
1
 42
1.0
 72
1
  3

 73
1
 74
1
 75
1
 94
63
  0
MLINESTYLE
  5
22
102
{ACAD_REACTORS
330
10
102
}
330
10
100
AcDbMlineStyle
  2
Standard
 70
0
  3

 62
256
 51
90.0
 52
90.0
 71
2
 49
0.5
 62
256
  6
BYLAYER
 49
-0.5
 62
256
  6
BYLAYER
  0
MLEADERSTYLE
  5
2C
102
{ACAD_REACTORS
330
F
102
}
330
F
100
AcDbMLeaderStyle
179
2
170
2
171
1
172
0
 90
2
 40
0.0
 41
0.0
173
1
 91
-1056964608
 92
-2
290
1
 42
2.0
291
1
 43
8.0
  3
Standard
 44
4.0
300

342
29
174
1
175
1
176
0
178
1
 93
-1056964608
 45
4.0
292
0
297
0
 46
4.0
 94
-1056964608
 47
1.0
 49
1.0
140
1.0
294
1
141
0.0
177
0
142
1.0
295
0
296
0
143
3.75
271
0
272
9
273
9
  0
DICTIONARY
  5
2D
330
A
100
AcDbDictionary
280
1
281
1
  3
CREATED_BY_EZDXF
350
2E
  3
WRITTEN_BY_EZDXF
350
FF
  0
DICTIONARYVAR
  5
2E
330
2D
100
DictionaryVariables
280
0
  1
1.4.3 @ 2026-05-27T17:22:46.102652+00:00
  0
DICTIONARYVAR
  5
FF
330
2D
100
DictionaryVariables
280
0
  1
1.4.3 @ 2026-05-27T17:22:46.106190+00:00
  0
ENDSEC
  0
EOF
